<mxfile host="app.diagrams.net" agent="Mozilla/5.0 (Windows NT 10.0; Win64; x64) AppleWebKit/537.36 (KHTML, like Gecko) Chrome/136.0.0.0 Safari/537.36" version="27.0.9">
  <diagram name="Page-1" id="IyhWheqyQIZHQ8fE5nbu">
    <mxGraphModel dx="1961" dy="550" grid="1" gridSize="10" guides="1" tooltips="1" connect="1" arrows="1" fold="1" page="1" pageScale="1" pageWidth="850" pageHeight="1100" math="0" shadow="0">
      <root>
        <mxCell id="0" />
        <mxCell id="1" parent="0" />
        <mxCell id="veElxyi0WQyssnxSMCz9-293" value="" style="rounded=0;whiteSpace=wrap;html=1;fillColor=none;dashed=1;dashPattern=8 8;" parent="1" vertex="1">
          <mxGeometry x="202" y="593" width="181" height="44" as="geometry" />
        </mxCell>
        <mxCell id="veElxyi0WQyssnxSMCz9-304" style="edgeStyle=none;rounded=0;orthogonalLoop=1;jettySize=auto;html=1;exitX=0;exitY=1;exitDx=0;exitDy=0;entryX=0.5;entryY=1;entryDx=0;entryDy=0;" parent="1" source="veElxyi0WQyssnxSMCz9-292" target="veElxyi0WQyssnxSMCz9-301" edge="1">
          <mxGeometry relative="1" as="geometry" />
        </mxCell>
        <mxCell id="veElxyi0WQyssnxSMCz9-305" value="Recieves" style="edgeLabel;html=1;align=center;verticalAlign=middle;resizable=0;points=[];" parent="veElxyi0WQyssnxSMCz9-304" vertex="1" connectable="0">
          <mxGeometry x="0.1538" y="1" relative="1" as="geometry">
            <mxPoint x="19" y="41" as="offset" />
          </mxGeometry>
        </mxCell>
        <mxCell id="veElxyi0WQyssnxSMCz9-292" value="" style="rounded=0;whiteSpace=wrap;html=1;fillColor=none;dashed=1;dashPattern=8 8;" parent="1" vertex="1">
          <mxGeometry x="202" y="536" width="181" height="44" as="geometry" />
        </mxCell>
        <mxCell id="veElxyi0WQyssnxSMCz9-282" value="" style="rounded=0;whiteSpace=wrap;html=1;fillColor=none;dashed=1;dashPattern=8 8;" parent="1" vertex="1">
          <mxGeometry x="202" y="452" width="181" height="69" as="geometry" />
        </mxCell>
        <mxCell id="veElxyi0WQyssnxSMCz9-23" value="" style="rounded=0;whiteSpace=wrap;html=1;fillColor=none;dashed=1;dashPattern=8 8;" parent="1" vertex="1">
          <mxGeometry x="580" y="200" width="480" height="260" as="geometry" />
        </mxCell>
        <mxCell id="zOy4VWw5FsechNxSUbOy-7" style="edgeStyle=orthogonalEdgeStyle;rounded=0;orthogonalLoop=1;jettySize=auto;html=1;exitX=1;exitY=0.5;exitDx=0;exitDy=0;entryX=0;entryY=0.5;entryDx=0;entryDy=0;" parent="1" source="zOy4VWw5FsechNxSUbOy-1" edge="1">
          <mxGeometry relative="1" as="geometry">
            <mxPoint x="310" y="315" as="targetPoint" />
          </mxGeometry>
        </mxCell>
        <mxCell id="zOy4VWw5FsechNxSUbOy-1" value="What are the problems caused by hurricane harvey" style="text;html=1;align=left;verticalAlign=middle;whiteSpace=wrap;rounded=0;fontSize=10;" parent="1" vertex="1">
          <mxGeometry x="120" y="300" width="140" height="30" as="geometry" />
        </mxCell>
        <mxCell id="veElxyi0WQyssnxSMCz9-8" style="rounded=0;orthogonalLoop=1;jettySize=auto;html=1;exitX=1;exitY=0.5;exitDx=0;exitDy=0;entryX=0;entryY=0.5;entryDx=0;entryDy=0;" parent="1" source="zOy4VWw5FsechNxSUbOy-2" target="veElxyi0WQyssnxSMCz9-1" edge="1">
          <mxGeometry relative="1" as="geometry">
            <mxPoint x="740" y="245.1379310344828" as="targetPoint" />
            <mxPoint x="590" y="245" as="sourcePoint" />
          </mxGeometry>
        </mxCell>
        <mxCell id="zOy4VWw5FsechNxSUbOy-2" value="What were the deaths caused by hurricane harvey?" style="text;html=1;align=left;verticalAlign=middle;whiteSpace=wrap;rounded=0;fontSize=10;" parent="1" vertex="1">
          <mxGeometry x="415" y="230" width="115" height="30" as="geometry" />
        </mxCell>
        <mxCell id="veElxyi0WQyssnxSMCz9-9" style="edgeStyle=none;rounded=0;orthogonalLoop=1;jettySize=auto;html=1;exitX=1;exitY=0.5;exitDx=0;exitDy=0;" parent="1" source="veElxyi0WQyssnxSMCz9-6" target="veElxyi0WQyssnxSMCz9-2" edge="1">
          <mxGeometry relative="1" as="geometry" />
        </mxCell>
        <mxCell id="zOy4VWw5FsechNxSUbOy-3" value="What were the building damages caused by hurricane harvey?" style="text;html=1;align=left;verticalAlign=middle;whiteSpace=wrap;rounded=0;fontSize=10;" parent="1" vertex="1">
          <mxGeometry x="415" y="300" width="115" height="30" as="geometry" />
        </mxCell>
        <mxCell id="veElxyi0WQyssnxSMCz9-10" style="edgeStyle=none;rounded=0;orthogonalLoop=1;jettySize=auto;html=1;exitX=1;exitY=0.5;exitDx=0;exitDy=0;" parent="1" source="zOy4VWw5FsechNxSUbOy-4" target="veElxyi0WQyssnxSMCz9-3" edge="1">
          <mxGeometry relative="1" as="geometry">
            <mxPoint x="580" y="395" as="sourcePoint" />
          </mxGeometry>
        </mxCell>
        <mxCell id="zOy4VWw5FsechNxSUbOy-4" value="What were the total costs incurred due to hurricane harvey?" style="text;html=1;align=left;verticalAlign=middle;whiteSpace=wrap;rounded=0;fontSize=10;" parent="1" vertex="1">
          <mxGeometry x="415" y="380" width="105" height="30" as="geometry" />
        </mxCell>
        <mxCell id="zOy4VWw5FsechNxSUbOy-5" style="edgeStyle=orthogonalEdgeStyle;rounded=0;orthogonalLoop=1;jettySize=auto;html=1;exitX=0.5;exitY=1;exitDx=0;exitDy=0;" parent="1" source="zOy4VWw5FsechNxSUbOy-1" target="zOy4VWw5FsechNxSUbOy-1" edge="1">
          <mxGeometry relative="1" as="geometry" />
        </mxCell>
        <mxCell id="zOy4VWw5FsechNxSUbOy-8" style="rounded=0;orthogonalLoop=1;jettySize=auto;html=1;exitX=1;exitY=0.5;exitDx=0;exitDy=0;entryX=0;entryY=0.5;entryDx=0;entryDy=0;" parent="1" target="zOy4VWw5FsechNxSUbOy-2" edge="1">
          <mxGeometry relative="1" as="geometry">
            <mxPoint x="351.5" y="315" as="sourcePoint" />
          </mxGeometry>
        </mxCell>
        <mxCell id="zOy4VWw5FsechNxSUbOy-9" style="rounded=0;orthogonalLoop=1;jettySize=auto;html=1;exitX=1;exitY=0.5;exitDx=0;exitDy=0;" parent="1" target="zOy4VWw5FsechNxSUbOy-3" edge="1">
          <mxGeometry relative="1" as="geometry">
            <mxPoint x="351.5" y="315" as="sourcePoint" />
          </mxGeometry>
        </mxCell>
        <mxCell id="zOy4VWw5FsechNxSUbOy-10" style="rounded=0;orthogonalLoop=1;jettySize=auto;html=1;exitX=1;exitY=0.5;exitDx=0;exitDy=0;entryX=0;entryY=0.5;entryDx=0;entryDy=0;" parent="1" target="zOy4VWw5FsechNxSUbOy-4" edge="1">
          <mxGeometry relative="1" as="geometry">
            <mxPoint x="351.5" y="315" as="sourcePoint" />
          </mxGeometry>
        </mxCell>
        <mxCell id="zOy4VWw5FsechNxSUbOy-13" value="Question Broadening&lt;div&gt;Prompt&lt;/div&gt;" style="text;html=1;align=center;verticalAlign=middle;whiteSpace=wrap;rounded=0;fontStyle=1;fontColor=#7F00FF;" parent="1" vertex="1">
          <mxGeometry x="289" y="348" width="80" height="30" as="geometry" />
        </mxCell>
        <mxCell id="veElxyi0WQyssnxSMCz9-1" value="[0.43231, 0.93611, 0.93221, ... , 0.10101]" style="text;html=1;align=left;verticalAlign=middle;whiteSpace=wrap;rounded=0;fontSize=10;" parent="1" vertex="1">
          <mxGeometry x="664" y="230" width="106" height="30" as="geometry" />
        </mxCell>
        <mxCell id="veElxyi0WQyssnxSMCz9-20" style="edgeStyle=none;rounded=0;orthogonalLoop=1;jettySize=auto;html=1;exitX=1;exitY=0.5;exitDx=0;exitDy=0;entryX=0;entryY=0.5;entryDx=0;entryDy=0;" parent="1" source="veElxyi0WQyssnxSMCz9-2" target="veElxyi0WQyssnxSMCz9-16" edge="1">
          <mxGeometry relative="1" as="geometry" />
        </mxCell>
        <mxCell id="veElxyi0WQyssnxSMCz9-2" value="[0.91111, 0.83612, 0.03221, ... , 0.22101]" style="text;html=1;align=left;verticalAlign=middle;whiteSpace=wrap;rounded=0;fontSize=10;" parent="1" vertex="1">
          <mxGeometry x="664" y="300" width="106" height="30" as="geometry" />
        </mxCell>
        <mxCell id="veElxyi0WQyssnxSMCz9-22" style="edgeStyle=none;rounded=0;orthogonalLoop=1;jettySize=auto;html=1;exitX=1;exitY=0.5;exitDx=0;exitDy=0;entryX=0;entryY=0.75;entryDx=0;entryDy=0;" parent="1" source="veElxyi0WQyssnxSMCz9-3" target="veElxyi0WQyssnxSMCz9-16" edge="1">
          <mxGeometry relative="1" as="geometry" />
        </mxCell>
        <mxCell id="veElxyi0WQyssnxSMCz9-3" value="[0.00321, 0.53381, 0.87261, ... , 0.21441]" style="text;html=1;align=left;verticalAlign=middle;whiteSpace=wrap;rounded=0;fontSize=10;" parent="1" vertex="1">
          <mxGeometry x="664" y="380" width="116" height="30" as="geometry" />
        </mxCell>
        <mxCell id="veElxyi0WQyssnxSMCz9-4" value="" style="endArrow=none;html=1;rounded=0;strokeWidth=3;strokeColor=#7F00FF;" parent="1" edge="1">
          <mxGeometry width="50" height="50" relative="1" as="geometry">
            <mxPoint x="618.6" y="287.13" as="sourcePoint" />
            <mxPoint x="618.6" y="222.88" as="targetPoint" />
          </mxGeometry>
        </mxCell>
        <mxCell id="veElxyi0WQyssnxSMCz9-5" value="" style="endArrow=none;html=1;rounded=0;strokeWidth=3;strokeColor=#7F00FF;" parent="1" edge="1">
          <mxGeometry width="50" height="50" relative="1" as="geometry">
            <mxPoint x="620" y="420" as="sourcePoint" />
            <mxPoint x="620" y="370" as="targetPoint" />
          </mxGeometry>
        </mxCell>
        <mxCell id="veElxyi0WQyssnxSMCz9-7" value="Embedder (mpnet)" style="text;html=1;align=center;verticalAlign=middle;whiteSpace=wrap;rounded=0;fontStyle=1;fontColor=#7F00FF;" parent="1" vertex="1">
          <mxGeometry x="574" y="335.75" width="90" height="20" as="geometry" />
        </mxCell>
        <mxCell id="veElxyi0WQyssnxSMCz9-11" value="" style="edgeStyle=none;rounded=0;orthogonalLoop=1;jettySize=auto;html=1;exitX=1;exitY=0.5;exitDx=0;exitDy=0;" parent="1" source="zOy4VWw5FsechNxSUbOy-3" target="veElxyi0WQyssnxSMCz9-6" edge="1">
          <mxGeometry relative="1" as="geometry">
            <mxPoint x="590" y="315" as="sourcePoint" />
            <mxPoint x="770" y="315" as="targetPoint" />
          </mxGeometry>
        </mxCell>
        <mxCell id="veElxyi0WQyssnxSMCz9-6" value="" style="shape=image;verticalLabelPosition=bottom;labelBackgroundColor=default;verticalAlign=top;aspect=fixed;imageAspect=0;image=data:image/png,iVBORw0KGgoAAAANSUhEUgAAAQAAAAEACAYAAABccqhmAAAACXBIWXMAAA7DAAAOwwHHb6hkAAAAGXRFWHRTb2Z0d2FyZQB3d3cuaW5rc2NhcGUub3Jnm+48GgAAIABJREFUeJzt3XtgXFW9L/Dvb81kkr5sYuHcY1FOwGQSiW0mj0opDylULiovRcC3cMSew6NkhnqFc6Uw0HoEjm2Soqi9qIjClXp8gKjAoRTkUEDyxtBkklMKQrlHKE1oaZPMzPrdP9KUNM1jHnvP2nvP7/MXTWav9QO6fvu31uy9FkF4TuT922YliuYs8JE+ShMvIKL3EhAgpjkHPzJHEwLjr1GMEQDvAAATv8PACDO/5QfejGvfbv/QO7sbX112INf/LsJeZDoAkZ5o6daivYF5pZqoFJpKQShl0HEASgF+H4gWgDHbls4J+8G8G6BdAO8kYCcYO6F4p2LeOW9k787ozuVDtvQtbCEJwMGurmhbWJD01Wkfn0CMKgLXMVABwGc6tmm8TkArA61M6FZJenF+f/X2KEibDkwcSRKAQ6wqe/Y9yl90ktJYxuBlAE4EMM90XBZ5G8BzALYx4+lCNevZ23sr95oOSkgCMOa641vmD/nUChCdQcApAKrg7Du7lZIAXgDwNIG2JPTQljv6l75tOqh8JAkghyLBruNByXOZcQ6A04DDF+LyWJJAHQx+SCv9u409tW0Asemg8oEkABtdhM2+D1QET0tqXEzE5wN4n+mYXGIXGA8Q8/3z+2uekvUD+0gCsFgUrPYEO5cpwkXMfBFk0GfrTYD+SND3zI/VPC7JwFqSACyyqqzlgz7l+yqALwM4xnQ8HvUqA/co+H7UGFu8w3QwXiAJIAvRqu7AnsTI+cRYCeBMyH/PXNEAniHQPdi//2fygFLm5C9sBsKV7aWs6WoCfwXAUabjyXNvgPBTn+Lvrt9e+7LpYNxGEkAawmWdtVAcBvhzAPym4xGH0QT8gTX/a1N/7TOmg3ELSQAziILVYFnXJ1npawCsMB2PSMnTTGje1dv361/i4qTpYJxMEsAUomC1p6LjQsWIMnCC6XhEBhh/YXC0ua/m1/JcweQkAUwiEmxbwYTbwFRrOhZhAcZfWOGW5t7Qv0siOJwkgHHCwbaPA3QLgHrTsQhb/JkV3djcE3rEdCBOIQkAwOpgS2UCvvUEfMJ0LMJ+BNoCpSKNPYtfMB2LaXmdACJV3e9FIn4TM18JWdXPNwkAP05qvuGO/to3TAdjSl4mgJV1LQVz9vmuBOMmBkpMxyOMeotBN5Us3POD6BPLE6aDybW8SwDh8vYQEd3F4DrTsQhH6SLQ1xpjoT+bDiSX8iYBRN6/bRZmF93EoK8jf967F+lJENGdw/6Cb97ZXbXPdDC5kBcJIFLW9lFWtAlA0HQswvkIeAma/rmxP/So6Vjs5ukEcGVV99zCeLyJwV81HYtwHSbgLl+Rinynq/od08HYxbMJoCHYvoSAn0Pu+iILBLyUVPjixp6abaZjsYPnEkAUrAYrOlYx43bIllvCGgkA33ot1rfWa+8WeCoBrP5Q2z8kk/RzjG6yKYTV/sSJ5Jead9S/YjoQq3gmAYQr20+Hxv0A/s50LMLTdpOmz3tlgdADCYCpoaLzG8T8LcjXeyI3kgDWFcdCt7h9j0JXJ4BvVPTMi2PoJ8x8oelYRB4i/h2G6ctNO2sGTIeSKdcmgNXBlsokfA9AVvmFQQzq8Smcv6EnFDMdSyZcmQDCFe0ng/FbyH58wgEI2APNn2rsr33SdCzpUqYDSFekouNiZnoMMviFQzBQwooebajo+KLpWNLlqgQQqWhvYOZfELjIdCxCTBAg5nvCwfao6UDS4YopQPT0rf49rxdvIsZlpmMRIgV3vRbr+2c3PDTk+AQQreoODCbi98lKv3AVxoNJnnvxHf3lw6ZDmY6jE8Cqsr5CH+3bDMJ5pmMRIgN/pP0HLnTyyUWOTQBfX9w5JzGkfwvZi1+4GeHJAGade3tv5V7ToUzGkQkgXNpejEL8AYyTTMciRLYI2BZIJD9x2476QdOxTOS4bwFWLmyZjQA/KINfeAUDy4b8/oevrOqeazqWiRyVACLv3zZr1lzfQwCdajoWIaxE4KWB+PAD0dKtjvoK2zFTgGhVd2AgPvJrAJ80HYsQtiE8mkzOPc8p3w44ogK4CJt9A/GRn0EGv/A6xlk+tfe+6OlbHXEOhQMSANMxwfK7AFxsOhIhcoM+PbCr+PumowAckADCwY4bAVxqOg4hcuzycLD9X0wHYXQNIBJs+yyD7jMdhxCGMBN9ubk39HNTARgbeA3lbacR0aMACk3FIIQDjCiiszf0hraa6NxIAgiXt36ISD0t5/IJAQDYrRQtM7GpSM7XAL5R0TMPpH4lg1+IQxZozb+77viW+bnuOMcJgCmOoZ8A+FBu+xXC8YLDft9PRw8kyp2cJoBwecf/ltd6hZjS+eGKjv+Vyw5zlm0iwbYVDHoYsnW3ENPRrOgTzT2hR3LRWU4SwMETe1oBLMhFf0K43BtJrWrv6K9+1e6ObJ8CRMEqmaC7IYNfiFQd7VPJ+y7CZturZdsTwEBF+zdBON3ufoTwFjp1YUXw67b3YmfjkYq2embaBqDAzn6E8Kg4gU5pjIX+bFcHtlUAX1/cOYeZ7oUMfiEyVcDge+3cSMS2BJAc4mbIsV1CZKsskBj+jl2N2zIFCFd0ngHWj9nVvhB5hgl8VmOs9jGrG7Z8gK5c2DJ79lxfF4APWt22EPmKgJd8RWrRd7qq37GyXcunALPm+tZBBr8QlmLguORQco3V7VpaATQE25cQ8AzkaT8h7JDQSi/d2FPXalWDllUAK+taCgi4CzL4hbCLXzFtsnI/QcsSwOx9vqsALLaqPSHEJJhqB3cVr7SqOUumAJGq7vdyfCQGedxXiFx4K65Ggt/rOXF3tg1ZUgHwyMg6yOAXIlfeW5AMWLIgmHUFsKqs7QSfok4AjtjnXIg8kSBNocb+UHc2jWRdAfh81AgZ/ELkmp8VN2XbSFYJIBxs+zgYZ2UbhBAiIysiwbYV2TSQZQVA0eyuF0Jkg0H/ms0+ghkngEhF+/kAPpLp9UIISyy5Jtjx8UwvzjABMDEjmmmnQgjrKOK1mVYBGSWAhoqOzwAIZXKtEMJiTLXhYMf5mVyadgKIgpWSu78QTnNzJlVA2glgsKLjXAZOSPc6IYStFofLOz6R7kVpJwBmXp3uNUII+zEh7bGZVslw8HVf2zYozEM7ATzJwGvEmAPCCQBOg5yYPJm3CNjC4L8CAJiOJcKZcsbk4bTS9em8LpzWE3wEXi27fFmikzR9o7E/9OjEX1yxqKukaDhxHYNWQ56wBIC/MXDDgXnJuze11sfH/2JlXUvBnL3+yxi8DsDRhuJzFKXVagCfT/XzKY/mcGV7KTT6IH8pszEC4nX75+pbJ/5lnujaio7lmvm3AN6To9gciF/ghD6neUf9K9N96uDJU78HUJWjwJwswYnkB2f6bzYm5TUA1nQ1ZPBnjriNSS9p6q1dO9PgB4ANvaGtzPQFAJyD6JyoM67iy1P5i7x+e+3LPh9/EsAbOYjL6fyqwHd1qh9OKQFEq7oDBP5y5jHltTiBbyv2F57U3FvXlc6FzX2hhwDebFdgDtbpQ3JFOu+7r99e+zKIb7IzKLdgxmWryvpSWkdKKQHsicc/BZljpW/0rl/fGKu9PtpdNZJRE1AbrA7L4TrjauTM9bH6N9O9sNhf+CMAAzbE5DZHKd++81L5YEoJQAFfyy6evDMC4hv3z9VL073rT9QYq34eQNqDwaU642rkzEx3uol2V40wsNXqoNyIgMtT+dyMCSAS7DqewcuzDylvdEGrk1Kd68+MGMQpLei4XNpl/2QI/JJVAbka42Orylpm3J5/xgTASF6eyufEwbv+vGR9U391m5UNEyuvLwRmXPaLKZHfpy6d6UPTDuwoWAGQxb+ZpLnCn44oWDG41Mo2HSarsn8iBh1nRTtewKAvz/R+wLQJYDDYdTKAYyyNylssm+tPZU951xJ4d8NVSwf/6LdVOMOKtjyBcWy4rH3pdB+Z9nt9hr7E2og8pQtaXWZ1uT+RIr3ao/V/pw/JFU0WDX4AGIyPXA5gvlXteQLRxRg9rWtSU1YAF2Gzj0EX2hKUu9k215+ooaLtPAY+Y2cfhlg+5w9XtpcycLNV7XkG4aKDU/lJTVkBHFNZfio0/709UbkUcRuDL7Or3B8vEmxbwUw/g/devrC07AeAqyqfWwDNDwJ0lFVtesgxg8GukxHDU5P9csoEwEm6hMijxWf6Un6GP1vR07f697xWcj2Db4L3Hr22ZfAX6MAWAIusatN7khcDaSUAJqLMthjynFze9Su7Fg3u0j8h4jq7+zLAzsFfbVWbXsSgCwCsmux3k5aX4fL2EAjttkblfAkQ35LLuz4RrwEQsLMvQ2TwG6Z9atHG7dV/mfjzySsAQsbbDHvEPmb6XHOs5iG7O4qUdVQN7OK7ibje7r4MsXy1/4pFXSWBYf0Ig2Xwp0gl9NkAjkgAU60Onm1vOM7GTJ8bfRPPPtHTt/obKjquY8WtADw9+K1c7R/dMEX/B8OT0yT7EE96Uz9iCnDd8S3zh/2+NwAU2B6UEzHubeqr+aKdXUQquxYxJ+4GU62d/RgmZb+zjIwUBBbc2V21b/wPj5gCDPnUCsrXwQ8AzN+zq+no6Vv9e14vWc06eTNAXt73T8p+5wkUJIbPAPDg+B8eOQUgyudHKXc39ddO+dRUNiKVXYsGXp//HDHfCm9v+mn5Qz5XVT63oHA4uVXK/uwQqyMOEj2iAiDglNyE40DEL1vdZB7d9QG58zsb6ZMn/uiwCmBV2bPvQR5vrMhMXnvqLpdkwc/pmKq/UdEzb/yPDksAfhQtBeDLaVAOQsCxVrcZfWJ5ork3dBsp3xIQ2/rugEFS9ruDb4j3H3ai9+FrAApHlAh5ZkG4rO0kOxpu7Fn8QvH7Bk9kousBDNvRhyGW7OQz3hWLukoCuvARyGq/5QiHj/HDEgCDl+U2HAciusqupj1YDcid32WIaKoEwATgI8h3hC9EyjrPtbOLQ9UA0xoAGe0W7ADyPb8bMU4cv0vQoX9YVdbyQZ/y9ZuJynH25eJpQGD0UWBWfDfc9TSgLPi5mM/Hpeu3174MjKsA/D7fh82F5Dhzifg3DeUdN0RP32rrK7mN/aHu/fOSy1xUDUjZ73I67ls89s+HEoBm+Z51Aj8Rrx3YVdx6bVlHjZ0dbWqtjzf3hdaRploALXb2lSVZ8PMCpQ/tnXAoARCTbKgwucVa8bO5rAZAfCOAhJ19ZUDu/B6hQUcmAJDsqDKNABGvHdxV8mykssvW/06bWuvjTb21azX4bABv29lXGmTBz0MU+NAUgAAgWrq1aCBQvA95/BBQGkaYaW3JMXtujT6x3Na7dEN5xzlE/CDM7gsog997EsUFgTnR7qoRBQB7A/NKIYM/VYFcrQ044HRgmfN7k39waOhY4OAUQBOVmozGpXKyNmDwdGCZ83uYVuo4YGwNQFOpwVjczPa1gYOnA1t2B06RlP1eRygFxhLAwT+IzDC4jnWyxZ5qgNiO15SnIYM/DxDwbgUgBypawr61AaZcnc4sc/78UQq8+zVgqbEwvMfStYGDxzp9wIK4ZiJz/jwydtM/mAD4fSaD8SDL1gZydDqwlP15hg6O+YMJQM5Us8PBtYHWSLDt1mhVd0YHfijSq62OawIp+/PTAgCgyPu3zeLZs/abjsbrCNQKpS5r7Fn8QqrXRMo6z2WlH4B9DwLJnT+PFY8MzFJUOE/u/jmQ7jcF1wTbzmSl74UMfmGTwUDJAqVVwu75pXjX2DcFz0cqWic9fWl1sOWocEX7vynQwwDmTfYZC8jgF9CUXOAn4qPYc0fQO16IWf0xXNH+CpieJOL/x0xFgK5Kgk4F23owiwx+AQAg+I/ya6ISYtOh5CnGsQB/iXn0Dzl450cGvziEdbJEEXOR6UBETshqvziMAhWqPDitRsgefmJSVKgIyOj7aeEaMvjFFHShYpIE4GEy+MWUNBBQLFMAr5LBL2ZAhYqgpQLwHhn8IgVUmKvXTEXuyOAXKVMM5YbDKERqZPCLNPCwIrCXTqrNZzL4RZp4WBG74jgqMT0Z/CJtChhRmqQCcDkZ/CJDSioAl5PBL7LAw34mGpKXgVypM65Gzmyy+sWe4eQWlmf784IGD/uZ+S2S14Hdxq1v9Q2D8CQ0tjPhHQKOAfBRyKa0RviUesuvmHbL+HcVNw7+OIPWjxSq27//wuI9E38ZKes4ixXfBiBkU/9iEkkkdyul/bk+dUZkzo2D/20onNUcC/3LZIMfABr7Q48WLxxYwkxrAFmTyhXFvt2yKah7uHHwMzOdN3rIaWoilV2LoPVPZBHSfkk9t0g1vrrsAAiSAJzNlZt5MOj+dAY/ADT2LH5h/sI9S5noegDyFbV99t7RXz48+i4As0wDnMu1J/Yo0uszuS76xPJEc2/oNlK+JQRqtTouAQB4C3j3YJBdJiMRU3Jj2T/mb429NVkN3kPVgKwNWI+wC3j3aLCdBkMRk3Nl2T/OTiD7J0yiTyxPNPeF1pGmWgDPZx+WAAAGXgIOJgACdhqNRkzk2rJ/HEu/XG7sD3UXLxxYJtWARXh0zKvxfxCO4Oayf7xSgC1NAoeqAeWrl7WBrO0ExhKAkimAQ3hl8APA0ddUttXa0bCsDWRPgd+dAiiWBOAAbp/zH4FYXWtX27I2kJ2E1u8mgHkje3cCSJoMKM95Yc5/BGJ8Nlze/kk7+5C1gYzEFxTO+iswbqEmHGzvAVBhLKT85aWyfzKDGnzhxljtFrs7kqcIU9bdFKv5MHDoa0CAgC5z8eQtrw9+AJivQA+HK9rWrKxrsfPQU1kbSN2hsX4oATDxC2ZiyVuem/NPww+mW2bv9bWEyzptWRgcI2sDKTk01sdVACQVQO54cs6fgsVQ+pmG8o4bbK8GDl8bSNjZl9sw05EJIA4lCSA38unOP5kAEa/NZTXAjE8AGLSzLzfxaV/n2D+Pe1CDKRzsGADwHgMx5Yt8mPOnY4SZ1pYcs+fW6BPLbb1LN1S0nUdMD9jZh0sMNMVC7x17THvcyUDEAP5sKKh8IIP/SAEiXjvw+vznIpVdi+zsqLm39kEA/9fOPlyB+bnx72hMPBrs6RyHky/yveyfHlMt62RrJNh2a7Sq27azKhl0p11tuwVD/ef4Px+WAJglAdggXxf80lXAoOsGEsPP2FUNNMeqnwYwYEfbbkGKto3/82EJoFDNehbyRKCV5M6fLlurAWIAr1jbpqskRvz+w6b5hyWA23sr92Lcd4QiK3Joh3Cajju7q/aN/4F/kg89DdmeOVtyaEemiNuI/Jc29iy24UbEBHT8g/XtusQkU/yJi4AA0+M5Cca7pOzPTJzAtxX7C0+yZ/ADDeXtpwKYb0fbbkCsjngf44gKIMlDj/moMA7A1ie1PEru/Jmw9a4/vh91BZC35+ANDxf6t0784REVwB39S98GYdvEn4sZyZ0/fbbf9cc0VLSdR+DP2tmHwz01cf4PTL4GAGJ+mEEftT8mz5AFv/R1KU2Xbuivabe7o0hZx1nM/DO7+3EyAj882c+PXAMAQMAf7Q3HU+R7/vSMMNOa4oUDdRv6Q7YO/pV1LQXhirY1rPj3yPdH3LWaNAFMsWkjUzjY8SqAhTaG5AXyeG8aCNQKpS6zfa6P0c1BmBN3g8nWF47cgf/aFKs9drLfTFoBAMRgyIsT05PBn7oEM62Zv3DPUrsH/8q6loKG8o4bWCdbZPCPUb+d6jeTrgEAAHzYDI0rbInH9fiFuIrL4E/NoCL61IZYaCv67O0oUtm1iPcl7gaxDPzxiO+f6ldTJoDintCfBoIdrwN4ny1BudffOKHP+d4OGfwp0AB/bkNvzRFfP1lpZV1Lway3/dexTq4ByLaXiVzq1eLe0DNT/XKKKQAQBWmA/t2emNyLgRuad9Rb9jy5l7/qI+C+plitrQvK13yo88Oz9/q2EfFaADL4j8CbR8fy5KaeAgBgYDMBq6wPyrXeOjAvebdVjXn9IR/WqtGutsfu+pTUayADf0pK8y+n/f10vyyJVW8D8KqlEbkYAVs2tdbHrWjLw2X/mDea+hfb8jVfpLJr0ex96lm5689o54b+2uem+8C0CSAK0gzcY21MLkbWnKGYB4MfAF6y4nTg8WSFPz0Eumem/wfTJgAASJK6C8CUcwiRHi/P+Sew9GBQmeunTSuf/vFMH5oxAXy3t/olAPKGIADWOC6b6z3+hN9EpVacDjx211dJ3QqgPvuw8gODHl2/vfblmT43YwI42Nhd2YfkfkQ4M9P97POk7B/v6EhFe1aJTub6WWCd0phNKQGUFBT8BsAbWQXkAQyUzNnrvyzd6/Ko7D+MZrU6k+uip2/1N1R0XMc6+bzM9TPy3wfeox9M5YMpJYBod9UIg2QxEACD163+UFvKu8rkWdl/GAJfku7pwJHKrkUDr89/jphvBVBoU2jexvhpqt9WpZQAAIAUfxdyxBIAHJ1M0u9TSQLhyvbSAl2wFXl25x+HQLjv2oqO5TN9UFb4LRNX2v/dVD+c1iJNONj2C4AuST8mT3qDmG+cHyj8cbS76rCTaKNV3YGBxPBXwXQLgKMMxeckCSI0Kk7ePtlr0+Fg28cB+jbyN1Fah3FvU1/NF1P9eFoJoCHYvoTk9KCJBgB+nEFjK66lBJyBPN57bhpxgJ8CVDcRDzHT3wP6dIA+YDowr1CaatPZZyHtr2nCwfYnAZyW7nVCCNs91hSr+Vg6F6S8BjCGidene40Qwn5EOu2xmXYCKOmteQhAd7rXCSFs1dnYW/tIuhelnQCiIA3iaLrXCSHsQ4SbMnn3IsNHNZnCwY42yAlCQhhHoNbGWPWSTBJA2hXAwS6ZiW/K7FohhJUYek2mb15m9bJGONj+LIATs2lDCJEFwjNNvTXLMr08wwpgFCuSKkAIgzTzmmyuzyoBNPeEHmHQpAcOCCFs9/uNsdojDvxMR1YJAACIk9cCsGSbLCFEyuJMmb1tOV7WCaCpr247gX+YbTtCiHTwHc291b3ZtpJ1AgCAoUL/jQAs2ydfCDGtNzBCa61oyJIE8P0XFu8B881WtCWEmB4zrWnaWTNgRVuWJAAAKD5m8PsAOqxqTwgxqZZdfTHLtuizdOfWa4Nt1Rr0PICM9s0TQkwroTR9xMpj1S2rAABgQ6y2E4RmK9sUQoxi4HYrBz9gcQIAgP17kzcB+C+r2xUirzH61P4D66xu1vIEsGlX/X5F9DUAlp4KI0QeY018ReOryw5Y3bDlCQAANvSGtgL4kR1tC5F3GD/I9om/qdiSAADAX6TCALJ+UEGIPLd9/zvJr9vVuG0J4Dtd1e9opb8AYGTGDwshJhNn4CubdtXvt6sD2xIAAGzsqWsF4xY7+xDCq5jxzeZYzfN29mFrAgCA4r7QtxnYanc/QnjMn3b19W2wuxPbE0AUpJFIXgrgiAMhhBCT+m8Cff6XuDhpd0e2JwAAaN5R/wpIXQLA9n8hIVwuAYXPNsZCr+Wis5wkAABo6q1+nMA35Ko/IdyJrmvqqXkiZ73lqqNRTOHyjs0gfCa3/QrhfAz8pjkWujDTDT4zkbMKYBTxSCBwGQEv5rZfIRyvV+vhS3M5+IGcJwDgzu6qfZrUpwG8leu+hXCoNympz7mjf+nbue445wkAAJp7q3sJ6gIAwyb6F8IpGDQEwgWN/1XXb6J/IwkAABpj1U8x6CuQl4ZE/mIivrypt+ZpUwEYSwAA0BwL3c9MN5qMQQhjCNc39dbcazYEB4gEO+5i8FdNxyFErjDTD5r7QleYjsNoBTDm1Vjsnxj0C9NxCJELRPSrkmP2rDIdB+CQCgAAVta1FMzZ6/s1A+eYjkUI2zA/UhwoPC/aXeWIt2QdUQEAwKbW+vj8gsCFYH7EdCxC2IMfL44PXuCUwQ84qAIYs3Jhy+zZc9XDAJ1qOhYhrMKgZ+MFBR+7s7tqn+lYxnNMBTBm0676/YUJfS4B20zHIoQVCNhWlEic7bTBDzgwAQDAbTvqB31F6iwA/2E6FiGywniigGadfduO+kHToUzGcVOA8VaV9RX61L5fALjAdCxCZOD3tP/ARXbs5msVR1YAY+7oLx/ePy95MQG/NB2LEOnh+/fPS37KyYMfcHgFMOYibPYdEyz/AYDLTccixIyIf/hab/9VudjRJ1uuSABjIhXtDczYAIdXLiJvMYBbmmI1UdOBpMpVCQAAwhVtnwHTPQBmmY5FiHGGifGPjX0195kOJB2uSwAAEC5rOwmKHgBwtOlYhADwFjN/qrmv9k+mA0mXK0vppv7aZ5SiUwBsNx2LyG8EvEhJfaIbBz/g0gQAABt6QrGRgsBH5BsCYdADgURymanNPKzgyinA4ZgiFR3XMOPfABSYjkbkhSQTfbO5t/r2XO/hZzUPJIBRDeVtpxHRZgD/w3QswtPeJPDnGmO1j5kOxAqunQJM1NxX+6ekVvVgPGE6FuFV/DiBQl4Z/ICHKoB3HZoS3A4gYDoa4QkJAN8qjoVuiYK06WCs5MEEMOqaytY6pdW9ACpMxyLci0E9pOkLTf3VbaZjsYNnpgATbeypa/UXqToQ/xCy87BIHzPTDw7sS9R5dfADHq4AxosEO09l6P8DqQZEanYQ+J+8NNefimcrgPEaY9VP0f4DNQBuBuCY7ZiE4ySIaKO/SC3Oh8EP5EkFMF5DRetiYnUXgCWmYxGO0kHEX2vsrW0xHUgu5UUFMF5zb11X8cKBZQRcBWC36XiEcW8S8xWvxfrq823wA3lYAYwXLm0vpgBfz6AI5CvDfBMH8BMfkt9cH6t/03QwpuR1AhhzbWVHkDWvlzMJ8sZjpCnc2B/qNh2IaZIAxmkob/8YiG4h8FLTsQgbEJ7RzGs2xmq3mA7FKSQBTCISbFvBoG8DqDcdi7BEFxPWNffWyJujE0gCmBJTJNh5AUPfDNAi09GIjHQS4abG3tCDbn9rzy6SAFLQEOw4RYGvY+CTkP9mbvA0aXVbY//ih2TgT0/+MqchXN4eAtEhhWENAAACBUlEQVS1AH8WsveA02gC/qBZrWvuq37OdDBuIQkgAw3HtxyrCnxXM+MrAP7OdDx57m9E+KmOJ7/bvKP+FdPBuI0kgCxEq7oDg8OJ/wmlv8TApwH4TMeUJzSAx5mwqcQfeMBJp+26jSQAi4Qr20uRpH+E4q+AcazpeDzqZTDd4/PrH63fXvuy6WC8QBKADSJlHVWs+CIAXwJwvOl4XO41IvqVZvyyOVb9tCzqWUsSgI2iYLUn2LlMQV/CoAsAvN90TO7AfwXUbxnYXBKr3ua1XXicRBJADkWCXccDegXA5zLwMQCFpmNyiASA55jod0zJxzb21LbJnT43JAEYcmVV99zCxMiZAJ3B0KeAaTEAv+m4ciQBoIOItmnoLQWFvi3f6ap+x3RQ+UgSgENcWdU91x8fPpGAk4noZDBOBDDfdFwWGQTzs0zYRuT7zxG//893dlftMx2UkATgaFdXtC0sYJwAoipmqiPgBAZ/GM6dOiQAvELAiwy0MqFbJenFxv7qF6WkdyZJAC4TreoODA4NHauVOg6EUgClBIz+M2MhgKMAzLGp+30AdoOwi4GXwNgJYKcCv4Qk75xfVPSKfCfvLpIAPChaurVoMFCyQFNygQ++BRp6AbPyqbEpBfEsDSoaf40CD4HpwOjvMcDQWkHtTiK5W7Fv9/yRPbujO5cP5f7fRtjp/wNmia+u7YMUZwAAAABJRU5ErkJggg==;" parent="1" vertex="1">
          <mxGeometry x="604" y="300" width="30" height="30" as="geometry" />
        </mxCell>
        <mxCell id="veElxyi0WQyssnxSMCz9-16" value="" style="shape=image;verticalLabelPosition=bottom;labelBackgroundColor=default;verticalAlign=top;aspect=fixed;imageAspect=0;image=data:image/png,iVBORw0KGgoAAAANSUhEUgAAAQAAAAEACAYAAABccqhmAAAACXBIWXMAAA7DAAAOwwHHb6hkAAAAGXRFWHRTb2Z0d2FyZQB3d3cuaW5rc2NhcGUub3Jnm+48GgAAIABJREFUeJzt3Xt8nGWZ//HPdc8k6TltATmUcuySzkwoAuX8W6XaJm0BD6utyooKKrtg20zKwVX056iw6q4lKeUg9YQHdAkqPwTaTFIoiHL4LXVRmqbUopYCgkCbnttk5r72j6QCtW0mycw8c7jer1deL8g8cz9Xk9zfeQ73c99gjDHGGGOMMcYYY4wxxhhjjDHGGGOMMcYYY4wxxhhjjDHGGGOMMcYYY4wxxhhjjDHGGGOMMcYYY4wxxhhjjDHGmOyRoAsw+XFlbOWoyvTukxHZs3PEoc8sXTW1J+iaTPAsAErc5ac/VTFi92vXq8oCgWF9334dkS81d9TdEmhxJnAWACVs/qRlVeGK0M9UuHC/G4gubu6obwTRPJdmCoQLugCTG4lYS2Wo0rUcsPMDqDTEo223gdoHQZmyX3wJSsRaKrt0zN0g78nwLbc3r6m7wo4Eyo8FQIkZROffy0KgDFkAlJAhdP69LATKjAVAiejt/NUtwHuH2JSFQBmxACgBWez8e1kIlAkLgCKXg86/l4VAGbAAKGI57Px7WQiUOAuAIpWHzr+XhUAJswAoQnns/HtZCJQoC4AiE0Dn38tCoASFgi7AZO5N9/nz3fkBpp5z2HPjnnj1x60B7NvkiD0LUES26NhFQxjkM2QKC+Kxts8EtX+TfXYKUCTm1SSPD4f5A5rxUdsOQTYoGu1nu98inDKAdjeN3Vk5IfHnabsz3N4UMDsCKBIVYd4xkM6P8xd69OkMtr0Pr5cipDNse/zmEd2nZLitKXAWAEVCkUyP1nbg/IXNq2c9nGnbzZ0zfzTAEDAlwgKgSKQl9SjQ3xX4AXf+vQYQAl3jdlb+bqDtm8JkAVAklqye/ZwqzQfZZCfCewbT+fdq7pz5I/X8M5A64EYq19j5f+mwACgivif9OdA79v2+wssqrr65o/6hoe5jcWf9XYpcDOx4ywtCWpCvNHfWfWeo+zCFIxx0ASZzS9bP3gNcuiDa9uMQvE/Rcag+JVVVdzQ/Pa0rW/tZvKbu7saTHnzMh1KXIkRE9AVwP21aU5fJRUVTRCwAitBNa+oeBB7M5T6a1r37ReD6XO7DBM9OAYwpYxYAxpQxCwBjypgFgDFlzALAmDJmAWBMGbMAMKaMWQAYU8YsAIwpYxYAxpQxCwBjypgFgDFlzALAmDJmAWBMGbNZgYvMtTX3jk5XDpuQSvE2cTIB7w8XceMUPwpklMA4hVH0fsWA8f00+RdgPbBdYLvCZtDtgtuOssmjLzvRl8SHX3GV6Re/+fv6Hf20Z4qIBUCBScRaKre56hNSyiSn/IOHSeKZhHACcBQwIuASdyhsFPiTwB+86B8crE+J/8Mhhw7fkHh42oGnEzMFxwIgQPMnLRvjqiqmOK+nq+N0UU5X0ZoBTP9daFKCrFNhlXhWge/A8dumjpmbgi7M7J8FQB5ddXJycsrrPzqVdyCcp8rxQdeUBx7hDwK/9l5/FSb9yKLOCzYEXZTpZQGQQwtrkxN9mgtFmKbwDuDwoGsqDLIB4VeCPuh6Kh9YtG7aa0FXVK4sALKsMdoa88KFonIRcC72M+6PF+F/VLnfe+67aW39qqALKif2x5kFDbXLp+BDHxPRD6NMCLqe4qbrVLgznZIf3fxs/Z+CrqbUWQAMUjzSeqQIF6vKxxCmBF1PCVLg16j8sGqP3P2NP87YEnRBpcgCYIAWRttP9aKNqH4YqAi6njKxHfgJzjU3r57RGXQxpcQCIANzaAkdFRvzPlHiIP8n6Hro/XR8GXgF2CSwGWUTyCaFTeK0d5EQ1S6P073/7VAF8C4UQnUMgAhhQUd7FRF0PDBehHEexguMxzMO4QjgbQH8O/flQe/HadNQlkAzb7AAOCiVxkj7+1T0q/SOqssfYYsqnU7oUM+fQJ8Xdc9T4TZW+00vJDrmdueznMajHxvuR245xjmZiDBRkWMFTlSIIkRQhuezHuBRRD7X3FH3mzzvt6RYABxAY6R1uorcAJyZ+73pOsQ9CTwtwmpBO29cXb8x9/vNjgQJ93rtmcc7DcccGkU5TeFsYGKu9y3K/T7kr1u8etbvc72vUmQBsI+FtcmJ3nMLcFGOdrET5dcIjwNPiuiTpTpSrvGkBydoZfdZeHcOcA5wFrlZjs4D367a7T5rFwsHxgLgb1QaY22fVuU/gTFZbvyPwAoR7q/eUdlerstrXz0lOTLdo+eAm45wkaLRbLav8LII85s76n+WzXZLmQUAcFXkgWM94Z+ocG6WmvTAbxC5K5XinpufrXspS+2WlAWRtn9woh8EPgSckq12Be6u3O0+bUcD/Sv7AGisbatT7+8EOTQLzT0pKj8lHfpZ3+q6JkMNNctrJByaq6oXC0zOQpN/EO8+0LR2xjNZaKtklXEAqMQjbZ/H8eUhPn23Q5SfiLjbblwz43+yVl7ZUlkYS56vKlcovI+hjbXYgcinmzvqfpqt6kpNmQaASkO0/VZB/3XwbcgGRW8cttv9wA41cyMeaT1SHZ8WlQXAIYNsRlFd2Nw5szmbtZWKMgwAlYZY282iXDnIBp4XlRurd1XcXq4X8/Kt9+KhfEpFP8cgn6gU5LqmNXX/nuXSil7ZBUA81vptVD41iLe+IsL/3THskO8vXTW1J+uFmX5dW3Pv6J7Q8PmKfo7eKc8GRISFTR31TTkorWiVVQA0xFrnicqSAb7NI3JnT9o13rJ2+us5KcwMyLyatqPCYb6O6iUDfKtXcbMXd8xI5qSwIlQ2AbAw0n62F/8IUDmAt60WJ5c2ra57Kld1mcFbEGmb7US/Te9ciZkRXnXC6cU00jKXymJa8MajHxvuxd/FADq/It/fObz7LOv8heumzrpl4TCnAisyfpNymFd+lLuqiktZBICO2RYHjslw8xTwycVr6i5buuqinTksy2TBN39f/9exax6vVzTzC3zKO+OR5PtyWFbRKPlTgKtOWnlouqJ7PUp1Bpt34/xHmlfP+kXOCzNZF4+1fQbVJWTydy08O/awytpyn8a85I8AfEV3Q4ad34vwQev8xau5o+4WQa/JaGOlpuvVnjk5LqnglXgAqKjyiUy2FOG6po76+3JckMmxpjUzFyH8MKONvX4it9UUvpIOgHis/RTg6P631F83ddR9I+cFmbzYOaz7CqD/q/zC+VdPSY7MfUWFq6QDQPEZTd8lzjWCaK7rMfmxdNVFO1G9LoNNK31a8zDhS+Eq6QAAifS7ifKU3eorPeke3yKwub/t1GfwN1LCSjoARPt/xFccK/NRi8mvJetn70Hpd75AlYKY7DQwJR0AoP1PVKn6Sh4KMQFQpy/3t41I4KstB6rEA8CUNRUfdAmFruwDQJHBPmduCl0Gp4DlruwDADgj6AJMjjg9K+gSCp0FgHDeZyavsKOAErNgcvJ0W6i1fxYAyvAK8Z8MugyTXc7pvKBrKAYWAACi186ftOywoMsw2dE4uf1kkH8Ouo5iYAHQ65BQVXhR0EWYoZtDS0id/w62cnNGLAD2Ur0kHkleEXQZZmgmxKq/SV7WcywNFgBvJtzUEGuvD7oMMzi98wEQD7qOYmIB8FZhUf+LhtrkhUEXYgambzKQm4Kuo9hYAPy9EeK5pzHaemnQhZhMqDREW29A9Wbs73nAcrFUcykIK/K9eKxt2s5he/7V5gYsTFedtPLQdLjteyC5Wsq95FliHozqJSN2Vj4+P7Ysq8tYm6GL1y4/P13R/TRgnX8I7AigP8KUkIaebowmb9sjldfd2jFte9AllbPGWOt4VL6knnnYB9iQ2Q8wMxUKCyq1Z3W8dvk/BV1MOUqcvzLcGEleicp6hQXY325W2A9xQPRYvPt5PJp8uiHaNge05KdVD1qChGuIts3p+uueDhVuURgXdE2lxE4BBucUQVvikbanIHnDi51b7rubuemgiyolieNWDtsyYs9HupDPCzqpDJawCIQFAHQCkxnMX5gwFbhnQnTshkbalnrnvrt49XSbYWgI5tcuOzGsoX/p0j2XwpCe5++md2bgE7NUWkkq+wAQ9LvAekXuAMYOrhU9VuEG8ekvNcSSvxCvPx7rtrYnOuZ2Z7HUknVlbOWoKva8R5WP4WWGghviJ/5GhTkCl2EBcFBlHwAATWtm3tsYaz0D5L9UOX0ITVWK8mFEPrxFqzfHo8l7xMld1YdWPFTuS1Dt6/LT7xsxfFfVBYLOhe4LVKX/+RszoLAsnKr8+KJ1016LR5OXZaPNUmYB0KepY+b6xPkrz97y155rPfpFgWFDaa/vYtVl6vWyrr92b4pH21aoalsoRFu5Lk0dr22PSFrrVLSeXbwTtHdCziysyCCwWUUWLu6ou2PorZUPC4A36fuU/vd4bfs9+PRSkIwWFsnAeNC5Isz1HuLRZKdAu4o8QTr9ePPaWX/O0n4KRoKEez125uSQhs4GzgNm4P3EHN03+VlPWhpufrbupZy0XsIsAPajefWMTtB3xGNtH0D5Otk/j4woRFBdgHM0RJMvCzwpwhOgTzuf7lzUecGGLO8zZ+bQEjoyMvaEENQivF1Vz+5ynBXKbFHWQRNhlfcsXNxZ/6tc7qeUWQAckGhzBz9LxFp+2eXHXInItcCROdkTHAG8V5X3gpCWMPFochvIWvAdKqx1XjakQzwf6g5vqF736F8SJPI65fXlpz9VUbn99aNDjomCHquO40EiokSAyaBVfzuSF7JyWH9gug7l+uo1T9yZ759DqbEA6EfflfzmxHErv7V55J5Picq1wMQ87Ho06BkgZ4j2DjlyHjScoit6Tk+c5Iv03ubaBLoZ2ITKpr7lsDZ5kbSg20W1B8A73aJp5wHC4iqU9CgAhSoVN0LQShUdB4wXGA9uvHgdp45DUI5l1+tHENo7cEwCWUlRkDWIv+GFjq132biL7LAAyFDiz9N2AzfPoeW2o2PVs1VZALybYEaoVADH9X29UYK88cErff+l0vuaqCB93dfjeXPZe7eVt5yga+84x+CXTPXAQ4osfXFN1y+s42eXBcAA3c3cNB3cB9y3cPKKk1T8ZSr6aWB80LWVmFdE5Q7V9LdK8SJpobAAGIIb105fB/xb4riViS0ju2coMgfV9wOjgq6tSHUhcp+gd1ezJZlYYwOpcs0CIAv6Tg/uA+57Y1SbzAWmAyODra7gbRJYhtBSzZakjZ7MLwuALOubL+AnwE8S568Mb3q5+xTnuEiEC1U5lXJ/AlNICzyNlxXgV+wYcegjS1dN7Qm6rHJlAZBDfQOLVvV9JRpqVxwu6t8lqmcrnAWcClQGWmTu7UB4Srw8gfjHK3eFHv7GH2dsCboo08sCII/6nhT8ad8X8yctqwqF5TREzkJkKhBBiKBkZVx8ALYCnSKsVs8qnDw+9rCK1fYcROGyAAjQkvWz9wCP930BfUNoa8883mk45tCoqtaAHEPv2INjgKqAyt1rpyB/VvxGUXlenaxVpAPoXNwx4/mAazMDZAFQYBIkPKt5DngO+OW+r18Te+CIbtxE8W6COj2MvoE74mUcwngP450wBkCVsfTe8HfCW4flau+AIYC0CFv7vrcJlc0Km6RvcJEqm53jr4ps7Em7jbesnf56Dv/5Js8sAIrMf3Zc8DLwMvDfQddiil95X5E2RWX+pGVjEsetHNJj2uat7AjAFLyGaNu/CPp54Jiuym7fEE0+4rxraFo745mgayt2dgRgClo8mrxM0G/RewEUeq9nTFPnH54/adlhQdZWCiwATAFTUbjhAC+OD1W5q/NaTgmyADAFqyG2YmLfXAn7592ZeSynJFkAmMIlsudgL6vo7nyVUqosAEzB6hs52XnADUQfzlsxJcoCwBQ0UV0A/N1QYoW1bsuYmwIoqaRYAJiC1tQ5c4Wg76L3cesXeqcF08XhVOU/Nr1w7q6g6yt2Ng7AFLymNTMfBR4Nuo5SZEcAxpQxCwBjypgFgDFlzAIANyboCkyuyCBXey4fFgCqpwVdgskFFdCpQVdR6Mo+AFSovyb2wIGHm5qi1BBbcR5wQtB1FLqyDwCgoofQV4MuwmSTimj6a0FXUQwsAABULmuMtE4PugyTHfFo27wsLu1e0iwAejkVuWt+7bJsLwNu8qwhknwHsCjoOoqFBcAbxod8+MHGWOukoAsxg9MQW36GCPfQu3iqyYAFwFvosarySGO0NRZ0JWZgGmvb6kTdSmyR1gGxAPh7RynyRGOs9eKgCzGZUGmMtDWo1/uxdRgHzB4G2r9RqnJnPJp8ZzjMwm/+vn5H0AWZv9dQu+Jw8W3fV5gVdC3Fyo4ADu7yVJpnGyKtHwu6EPOGBAnXEGn9mPh0B9b5h8QCoD/KBBH5QTzWdv+CSNs/BF1OuWuIJs/qip77hIj8ADgk6HqKnZ0CZEr1AifMaowmfy4+9IUb105fF3RJ5aShdvkU590XFD7YO8zXZIMFwMA4hTnq0u+PR5J3hsJ8fdEz9WuDLqqUNUSTZznlC+q5QHvXOTRZZAEwOGGEj6fTfLwxllzlvd60a8ShP126ampP0IWVgvmTllW5yvB7BG0AzrPP+9yxAEA2gB472HercrqI/GDErte/3hhLfjdF+qdLOmavyWaF5WJhpP1sT/qjiHwEdKj381PAX+hdVt0cQNkHgOCXeJUXxHE7+tYltAfoSFW+ECL0hXg0uRqRFpd2d9m1goNRWTC57TQX4v2ozvH4k7JxlC/Cn9LCR53n48DlQ6+zdJV9AAAs7qy/a15N8v+HQywFsvFQUC2qtd6lvxKPJlcrknSONrpGPVruM9leGVs5qkK6z3de6pW29wDHoJC103vhh6k96flL1s/eGo8mP56dRkuXBUCfm5+t/xNoXWOs7WOqLCJ7t5hqBa1Vz1VUb9sVH518VGEFzj3utoxcVeqBcG3NvaN3h4afKeLPE5V3o93noFRob6/PGkHWqOj85o76h7LacImzAHgL0aYOfnDFyff/sjJdeZ2g84CqrDWvDEeoE6hDPTpmW088kvydiDzh4UlVfXq827Iu0TG3O2v7zKPGox8bTvXWk0He7lVOFfScbqHWqYZyeOduq6Bf2TH8kJvsIuzAWQDsx23PXLgZuLrx5BW3kk5/WeHD5OZnVYEwVdGpAvNEoEure+LR5HqgA9VORTqc0z+pZ2Nz58y/5KCGAbsm9sARPWl3vDiZ7JGTROUkRCMq205CJQQgez/hs/tB/2bbgJtDqcobF62b9lrO9jIICyPtZ3unV+I1ArJd0WUVFdxaiEPKLQAOoumZ6X8ELmmMtX5ZVT4HXELuHzWtACJABBEEUBUQiEeTe4CNChtFeR6nryhsou8rBJs8brM4t1U03bNLerYDDNs8fve+pxrX1tw7eltlKDzMhwUXHgsgaa1WTR/ikUOk96m68YiOR+RQVSZK7xX1iT1KFa63bwuA5Lyzv9k24OYeH1p0y9rpr+dljwMQjybne3wziuv94SgC56dT8omFtcmZN66u3xh0jW9mAZCBpo6Z64FPzqtp+2JFWK9Q5XLgbQGUUgVMEpjUmwzylktnHgBF02kUqOrLKh2zjXg0+ZaGuoGqdF+fTaf73gl7Q+cNAgUxAkfXKXKL707fsWT97K1BV7M/jbHWM1VpZj9D7BWNqmflwtrktEIKAQuAAbj52bqXgC/On7TselcZniPopcD52DMVudIDulwldOvijultbxxqFCb1ciVy0L+FE32BhYAFwCAsWT97D/Bj4MfzapLHh0N8XOFDApODrq0EKPCYKD/p1tBdhXiYf0BCJIOtCioELACGqPf2IQkg0Ti5/WScflDRfwJqg62sqKQQfoNyP97/rHntrD8HXdCgCFsyvA5SMCFgAZBFTWtnPAM8A3ypIdZ+jNP07N7JKmQaMDrg8gqL8CpeV+DcfXtcd2vfnZfi5nUZIjMy3LogQsACIEcWd8x4HvgW8K05tIQmxMaeDJynqucKct5Qnj8oUi+h+gjIo2mXfmRJx6zOQj+nHyjZNuZ2Hb3tUoQpGb7lRO95eGFt8vygQsACIA/uZm6aDp4GngZuAWg86cEJhHvOU+FcVE4DjYAcGmylWSK8iupvFVYh/FbSuqpoD+sHoOmFc3fNq2mbFQ75lSAnZfi2E4IMAQuAgDSte/eLQEvfFwBXnbTy0FSoO+ock71nsohGQWqAYymEO3Fv5UXYoKrrQNYh8qx6XRcKsTbo89og3fxs3UvzatqmDSYEGmLt0/qOHPPGAqCA9I1o+1Xf1980Hv3YcMbtPDKt6SNcmrfhZAKqhwFHgB6pyNukd1xCtfROWjKawfxuhV0oXUAXQlfff29S5GVR/4IIL6m4F0O+54XRbsdfinXIcq4NNgRE/cp8h4AFQBFoeuHcXbzAH4E/DuR9V09JjtyhPZVVqfAwCYeHO9KVAJ5QN4CmUrv2hFO7AcK73M6+25smC4olBCwASljf2POCG39eLm5+tu6lhtoV73DeP6RoNMO3nSCqv5pXk5zWd4s5pywATFlT5Zp4NHlNznbg04N4REKPDYdkZT5CwIawGlOQ9NhwiParTlqZ0ztDFgDGFK4T0xXdOV3p2ALAmAKmytzEcSuH5ap9uwZgikJjbdtUVc5S77dJVdUvm5+e1hV0TfkgMGzb8J2HAxty0b4FgCloieNWDtsyovuH6nUOgIhAd/eOeKzt080ddT8Nur486Nk2wr+aq8btFMAUtK6R3TcqzNnn2yNRvXNhpP3sQIrKIxXuX7rqop25at8CwBSsz57QXo1y2QFelrTzDXktKN+EV8M+1ZjLXVgAmILVPSx9NAeZlVlUTsxjOXmmr6n46Ys6L8jJuf9edg3AFKxUt98Yqgz1cICJWAUd+nBZ0e+IC39tyO0cqHmfGu1V7gYGsLS8vqZO37149azf56quvSwATMFasn721oZY8ueifHh/r3tx3x7yTlS6+mZ/zrpra+4d3eOG/QgpzM4PdgpgClwqHZoHPPmWbwppVb64uGNGcv/vCt61NfeO7g4NW67CuZm/K7+dH+wIwBS4W9ZOf30OLecdHRn7HuAsj77u0GXNnTM7gq7tQPZ2fuC8zN+V/84PFgCmCNzN3DSd3APcQw7XGMuGq6ckR3anuQ8dQOcXXlXR6fnu/GCnAKboiCb4ssyhJRR0JftKxFoqUz1yP8o7M39X79X+IDo/WACYIpQg4e9mju8NgcI5IthC9WcQPT/zdwRz2P9mFgCmSInezdx0gi9LgkRB/B2r5+IBbB145we7BmCKXIKEB5U5REN3MzcdZC0qHJ3Z4UhhdH6wIwBTEnqPBoI+JRDlhf63KpzODwEdATTElp8hKl8AOQvYJvA7FWlq7qj7TRD1mNLQe0qQcB20uGCOBvROkKkHeb2gOj8EcAQQjyZnibrfgLwHOByYpPABVB9tjLZ9Pt/1mNLy5guEovldS2HniENvEfTBA7z8SqF1fshzAMyftKxK4Xvsf2y3KHp9Nh/xFOh33npFRmVrf6ZQ9J4SeNf/eoyKZm1tg6Wrpvakuv0FgnwF4cW+b28X+LFznFFonR/yfArgqsL1onrEQTYRT/qjwBPZ2J8Kqf6mZFXhlGzsyxQe0f5/t4JkdVHSvrUVvgR86fLT7xuRy2f5syHP1wC0vt8tnBw1lD3MoSV0dHTMBxR3Napn9F8Ss644+f5xJbE6rfmbeKT1NCDS33ai8lyuaij0zg95DgBRnd7fEndO5cWDbnAAV8ZWjqryPZ9U0bjCcWQ4G7vAsMpUxReBhYPZrylMKnJDJhcAvJNVOS+mgOXtGsBVkQeOzWiJJNUB3QmYV9N2VGOk7euV2r1RRZuB4wZamwjzGqLJswb6PlOYGmOtFwvMzGDTznwvxllo8nYEkCI8PYNE1lAFD2XSXkPt8ini3WcU/ZjCUKdNrhC4Z15N29Sbn617aYhtmQA11C6fol6WZrKtKj/JdT2FLn93ARzTM9jqd9/8ff1fD/yySmNtW108kkyKd08Dl8vQO/9eR4adLm+oXXF4ltozeTY/tiwq3i0HRva3rcLutJfv5aGsgpaXI4AECdcF7+5vOxHa9/v+WEvlFqo/or5toXqm5OzurjBFNP3IwtrkjHJe474YxSOtp6EkgYyW0nKwdLEd7eXnCGBr9LxTUA7rd0ORFW/+3/mTlo1pjLQ1dGn1elXuQJiSsyL3Umq8sqoh1t7vHQtTGOKR1ksQ+RVIhuvo6WsuVfnV3FZVHPJyBJBWP136+dRW2C1dox4FmFeTPD4c1gZUPqlo/gfqKIcJflk8mvzq2LdVXp94eFoq7zWYfl09JTkyleImOODU4fujKvzronXTXstVXcUkL0cAQv/n/wKPUb315Hi07a5wmD+g0gBkqfPLBhEWcoBTjANwwJe6/tr91ILa5ADmdTP50BhtfW8qJR0MrPMjKv+xuGPmz3NUVtHJ+VjpxHErh3WN7N6EMryfTbeTtQ7fR3lKYFH14ZU/Szw8LRV/+8qx0t3zG0WjA21JhO+l9qQ/t2T97Jwt02T613jyihM0nW4GLhroexVaX1qz5cKgHxsuJDkPgHgs+S6UAz0gkQseeEC8LGpaW/fIvi/Oq0keHw7xCDBxEG1vR/TW9B7/TQuC/IpPXn4cIbkOlY9zgHUC+vEklZUzy2VR0UzlPAAaosmvCfxbrvejsFvgh6EQTYueqV97sG2vijxwbFrCK4BJg9zddkRvVQnfuHj19FcG2YbJwLya5PEVjs+p8AkG1/EBHuqWyvfe2jFtexZLKwm5PwKIJP8b4SDPSA+R8CrKreEwtx58DMG+dbUeicgy4O1D2Hs3qj8X4bamNTMfHUI75k0SJFxX5OxZOHcFqrMY0rUq/eXYnVUfSvx52u6sFVhCchoAjbHW8aryKjm52KjrFHej2zrqh00vnLtrMC1cfvp9I0buqrxd4aNZKGi1it5eEZKWgQSReUN88vLjxIUuVvTTDGJI9z68INe/sKbrK3bOf2A5DYB4LPlBlLuz3OyvVGTRuI6Z54ChAAAFGUlEQVTH7u+dD27o4rG2z6jqN7MyqlBIi+rDXrgrlQ7/4pa101/PQokla2FtcqJXmYPqXOBMsvM3+YpH/vmmNXX5vPZUlHIbANHk7cDlWWgqhfBzxS9a3DHrv7PQ3t+56uTk5LTneyjnZLHZHuARVdoI+eTi1TOfAcnsMcUSNYeW0ITJo8/EuTqFmQJnkc2/Q5EHKuj51H92XPBy1tosYbkOgOeAE4bYzJ14/4XmtbP+nIWSDmoOLaEJsbENqH6ZbN+SBBReFqENryvE8XhTx8z12d5HoZlDS+jISHVERM5z6AzgXQrjsr8n2YBqvLmz/v9lv+3SlbMAuOqklYemw93ZuFXmFf2dE1nhPe1u2+hfD/acP1PXxB44IkX4elUuJZeDpYRXxfOkhydV5PG0d08X+ynDvJq2o0IVepooZ4vq2YqcCf1PzTUE3cCincO7ry+GCTgKTc4CYGFtcqL3ZP1Za4XdDv2NKvdTVXVHLu/rLoy1nuJxN6A6mzzcMenzCtCBaqcIq/GuM1WZeu7l32//S6FczErEWiq3uPFH+1T6RIdEQWMqRAWiufl0369u4PshTX1tUecFG/K0z5KTsz/qBAnXFT3nL8DbcrUP4BVxcmHT6rqncrgPFkbbT1X8dQrvJ7i1FFLAS6DPK/K8U9mI01eATcAmj9vs6dk0DN2U2jJuy0CPkq6MrRxV1eOrcX68Fz9OYDzCeEHHKRwlyEQPEwWOAY4kf4G4r27gjpCm/t06/tDl9JfYEGv9rKh8PZf7AF5Kd6cjS9bP3prj/RCvbY+gfj7KR8ntYW027dg7O7IiW0FD0ve8vIfhWZxPIaf6rp981wm326Pa2ZPTAJhDS2hCdMx3QD6Ry/2I8pmmzvpbc7mPN7u25t7RPW7YJSpcAdTma79lSFF5RMTftmP4ofcsXTW1J+iCSk1eDuMaI63T1cklKDPoPXzMtu81r6n/ZA7a7dfCaPupvVOZy4eBIc1obP6mQ0VbQunwf924dvq6oIspZXk/j1sQSdY6dDrOTUf1nWTjdptwW3NH/ZVDr27w5tASOjI69nyn/v2IuxD02CDrKT66TkRa0p67buqsXx10NeUi0LXVLz/9qYrhO18/R9DpOJmOcgaDmKRE0A81rZnZkoMSBy0ea3u7er1QhJn0jnAb7IMspWob8JAobThtK4cxEYUo0ADY12dPaK/eU+Wn8UYg1GTwtidfXLPlvEK5RbY/V09Jjkyn9R8VpqFyPnAq5RcIWxGeFJXHveqDu0Yc8rid0wevoAJgXw2x9mNE/XRUpyPybva9pSi0h3oqLy626Z0Sx60ctnV46u1p8WcKnNn3tOQklFDQtWVJN9ApwlPe87gTfaJ6zROd2Xp2w2RPQQfAW6ksjCWnqHKaV3GC/k9z58zfBl1VtiSOWzls64hUJI3GnFKr4iMgJwLHAyOCru8AtgJ/UqFTPKsJ+U7toWPckcOes3kUi0MRBUD5aqhdcXgorcd7p8fj/eE4jgQ5AuUwlAmIVAs6RmEsQ/+d9gCbFDY77R1kpE42q+qLTtnoQzzvUm5DZTfPf+OPM7YM/V9ngmQBUGKurbl39E6Gj66odMO89ozSlKsACIU0hGeMONKptGwFCOG6qZAdAD3dfvcIdm37j2ffuy3I+o0xxhhjjDHGGGOMMcYYY4wxxhhjjDHGGGOMMcYYY4wxxhhjjDHGGGOMMcYYY4wxxhhjjDHGGGOMMcYYY4wxxhhjitf/Aovb8aRtlmTzAAAAAElFTkSuQmCC;" parent="1" vertex="1">
          <mxGeometry x="820" y="292.88" width="44.25" height="44.25" as="geometry" />
        </mxCell>
        <mxCell id="veElxyi0WQyssnxSMCz9-17" value="Vector Database" style="text;html=1;align=center;verticalAlign=middle;whiteSpace=wrap;rounded=0;fontStyle=1;fontColor=#7F00FF;" parent="1" vertex="1">
          <mxGeometry x="797.13" y="340.13" width="90" height="20" as="geometry" />
        </mxCell>
        <mxCell id="veElxyi0WQyssnxSMCz9-19" style="edgeStyle=none;rounded=0;orthogonalLoop=1;jettySize=auto;html=1;exitX=1;exitY=0.5;exitDx=0;exitDy=0;entryX=0.004;entryY=0.333;entryDx=0;entryDy=0;entryPerimeter=0;" parent="1" source="veElxyi0WQyssnxSMCz9-1" target="veElxyi0WQyssnxSMCz9-16" edge="1">
          <mxGeometry relative="1" as="geometry" />
        </mxCell>
        <mxCell id="veElxyi0WQyssnxSMCz9-24" value="Standard RAG Retrieval" style="text;html=1;align=left;verticalAlign=middle;whiteSpace=wrap;rounded=0;fontStyle=1;fontColor=#7F00FF;" parent="1" vertex="1">
          <mxGeometry x="612" y="430" width="176" height="20" as="geometry" />
        </mxCell>
        <mxCell id="veElxyi0WQyssnxSMCz9-25" value="text chunk" style="rounded=0;whiteSpace=wrap;html=1;fontSize=9;" parent="1" vertex="1">
          <mxGeometry x="897.13" y="260" width="100" height="20" as="geometry" />
        </mxCell>
        <mxCell id="veElxyi0WQyssnxSMCz9-26" value="text chunk" style="rounded=0;whiteSpace=wrap;html=1;fontSize=9;" parent="1" vertex="1">
          <mxGeometry x="897.13" y="270" width="100" height="20" as="geometry" />
        </mxCell>
        <mxCell id="veElxyi0WQyssnxSMCz9-27" value="text chunk" style="rounded=0;whiteSpace=wrap;html=1;fontSize=9;" parent="1" vertex="1">
          <mxGeometry x="897.13" y="280" width="100" height="20" as="geometry" />
        </mxCell>
        <mxCell id="veElxyi0WQyssnxSMCz9-28" value="text chunk" style="rounded=0;whiteSpace=wrap;html=1;fontSize=9;" parent="1" vertex="1">
          <mxGeometry x="897.13" y="290" width="100" height="20" as="geometry" />
        </mxCell>
        <mxCell id="veElxyi0WQyssnxSMCz9-29" value="text chunk" style="rounded=0;whiteSpace=wrap;html=1;fontSize=9;" parent="1" vertex="1">
          <mxGeometry x="897.13" y="300" width="100" height="20" as="geometry" />
        </mxCell>
        <mxCell id="veElxyi0WQyssnxSMCz9-30" value="text chunk" style="rounded=0;whiteSpace=wrap;html=1;fontSize=9;" parent="1" vertex="1">
          <mxGeometry x="897.13" y="370" width="100" height="20" as="geometry" />
        </mxCell>
        <mxCell id="veElxyi0WQyssnxSMCz9-34" value="" style="endArrow=none;dashed=1;html=1;dashPattern=1 3;strokeWidth=2;rounded=0;" parent="1" edge="1">
          <mxGeometry width="50" height="50" relative="1" as="geometry">
            <mxPoint x="946.6800000000001" y="363" as="sourcePoint" />
            <mxPoint x="946.6800000000001" y="323" as="targetPoint" />
          </mxGeometry>
        </mxCell>
        <mxCell id="veElxyi0WQyssnxSMCz9-36" value="Related Text chunks" style="text;html=1;align=center;verticalAlign=middle;whiteSpace=wrap;rounded=0;fontStyle=1;fontColor=#7F00FF;" parent="1" vertex="1">
          <mxGeometry x="859.13" y="220" width="176" height="20" as="geometry" />
        </mxCell>
        <mxCell id="veElxyi0WQyssnxSMCz9-49" value="Article IDs" style="text;html=1;align=center;verticalAlign=middle;whiteSpace=wrap;rounded=0;fontStyle=1;fontColor=#7F00FF;fontSize=7;" parent="1" vertex="1">
          <mxGeometry x="1010" y="235" width="30" height="20" as="geometry" />
        </mxCell>
        <mxCell id="veElxyi0WQyssnxSMCz9-53" value="" style="group" parent="1" vertex="1" connectable="0">
          <mxGeometry x="1020" y="260" width="10" height="125" as="geometry" />
        </mxCell>
        <mxCell id="veElxyi0WQyssnxSMCz9-38" value="1" style="rounded=0;whiteSpace=wrap;html=1;fontSize=8;" parent="veElxyi0WQyssnxSMCz9-53" vertex="1">
          <mxGeometry width="10" height="10" as="geometry" />
        </mxCell>
        <mxCell id="veElxyi0WQyssnxSMCz9-43" value="2" style="rounded=0;whiteSpace=wrap;html=1;fontSize=8;" parent="veElxyi0WQyssnxSMCz9-53" vertex="1">
          <mxGeometry y="10" width="10" height="10" as="geometry" />
        </mxCell>
        <mxCell id="veElxyi0WQyssnxSMCz9-46" value="3" style="rounded=0;whiteSpace=wrap;html=1;fontSize=8;" parent="veElxyi0WQyssnxSMCz9-53" vertex="1">
          <mxGeometry y="20" width="10" height="10" as="geometry" />
        </mxCell>
        <mxCell id="veElxyi0WQyssnxSMCz9-47" value="4" style="rounded=0;whiteSpace=wrap;html=1;fontSize=8;" parent="veElxyi0WQyssnxSMCz9-53" vertex="1">
          <mxGeometry y="30" width="10" height="10" as="geometry" />
        </mxCell>
        <mxCell id="veElxyi0WQyssnxSMCz9-48" value="5" style="rounded=0;whiteSpace=wrap;html=1;fontSize=8;" parent="veElxyi0WQyssnxSMCz9-53" vertex="1">
          <mxGeometry y="40" width="10" height="10" as="geometry" />
        </mxCell>
        <mxCell id="veElxyi0WQyssnxSMCz9-50" value="6" style="rounded=0;whiteSpace=wrap;html=1;fontSize=8;" parent="veElxyi0WQyssnxSMCz9-53" vertex="1">
          <mxGeometry y="50.00999999999999" width="10" height="10" as="geometry" />
        </mxCell>
        <mxCell id="veElxyi0WQyssnxSMCz9-192" style="edgeStyle=none;rounded=0;orthogonalLoop=1;jettySize=auto;html=1;exitX=0.5;exitY=1;exitDx=0;exitDy=0;" parent="veElxyi0WQyssnxSMCz9-53" source="veElxyi0WQyssnxSMCz9-51" edge="1">
          <mxGeometry relative="1" as="geometry">
            <mxPoint x="5" y="320" as="targetPoint" />
          </mxGeometry>
        </mxCell>
        <mxCell id="veElxyi0WQyssnxSMCz9-51" value="n" style="rounded=0;whiteSpace=wrap;html=1;fontSize=8;" parent="veElxyi0WQyssnxSMCz9-53" vertex="1">
          <mxGeometry y="115" width="10" height="10" as="geometry" />
        </mxCell>
        <mxCell id="veElxyi0WQyssnxSMCz9-52" value="" style="endArrow=none;dashed=1;html=1;dashPattern=1 3;strokeWidth=2;rounded=0;" parent="veElxyi0WQyssnxSMCz9-53" edge="1">
          <mxGeometry width="50" height="50" relative="1" as="geometry">
            <mxPoint x="4.690000000000055" y="105.75" as="sourcePoint" />
            <mxPoint x="4.690000000000055" y="65.75" as="targetPoint" />
          </mxGeometry>
        </mxCell>
        <mxCell id="veElxyi0WQyssnxSMCz9-168" value="Fact Extract Prompt" style="text;html=1;align=center;verticalAlign=middle;whiteSpace=wrap;rounded=0;fontStyle=1;fontColor=#7F00FF;" parent="1" vertex="1">
          <mxGeometry x="820.63" y="639.86" width="80" height="29.13" as="geometry" />
        </mxCell>
        <mxCell id="veElxyi0WQyssnxSMCz9-223" style="edgeStyle=none;rounded=0;orthogonalLoop=1;jettySize=auto;html=1;exitX=0;exitY=0.25;exitDx=0;exitDy=0;entryX=1;entryY=0.5;entryDx=0;entryDy=0;" parent="1" source="veElxyi0WQyssnxSMCz9-174" target="veElxyi0WQyssnxSMCz9-212" edge="1">
          <mxGeometry relative="1" as="geometry" />
        </mxCell>
        <mxCell id="veElxyi0WQyssnxSMCz9-225" style="edgeStyle=none;rounded=0;orthogonalLoop=1;jettySize=auto;html=1;exitX=0;exitY=0.75;exitDx=0;exitDy=0;entryX=1;entryY=0.5;entryDx=0;entryDy=0;" parent="1" source="veElxyi0WQyssnxSMCz9-174" target="veElxyi0WQyssnxSMCz9-234" edge="1">
          <mxGeometry relative="1" as="geometry">
            <mxPoint x="604" y="674.87" as="targetPoint" />
          </mxGeometry>
        </mxCell>
        <mxCell id="veElxyi0WQyssnxSMCz9-174" value="" style="shape=image;verticalLabelPosition=bottom;labelBackgroundColor=default;verticalAlign=top;aspect=fixed;imageAspect=0;image=data:image/png,iVBORw0KGgoAAAANSUhEUgAAAQAAAAEACAYAAABccqhmAAAACXBIWXMAAA7DAAAOwwHHb6hkAAAAGXRFWHRTb2Z0d2FyZQB3d3cuaW5rc2NhcGUub3Jnm+48GgAAIABJREFUeJzt3Xl8VNX5P/DPc+5kARJUtrkTEFGpGy5V0SokE6K41NZaN1xr/fm12K8VJZkBtIuO3VTIJCj9thZt1dpFwV3rUqlDZgLairZurbgiaGaGVUiALHPP8/sjibLknpnMnsx5v178Qc655z6QmWfunJWwBx8CjjanmAGi8yRwAgFOACV71gPQCSDKzKsg6LG28NCHF2NyVx/1NE3LU7TrXzwVzZWQfA/AhyXR0vvENLM+UrU8XcFpmpZZXyQAjzN0CYjvB1CcQntdDLq6IVL1h5Qj0zQt4wjo/eSXf0dqb/5eXQQ6XT8JaFr+ExdiiUFSLkZ63vwAUMTg3/kmvZOu9jRNyxBxgNN5EQOHp7ndg7Zt2nRpmtvUNC3NBJM4PxMNE/i8TLSraVr6OAA+XlHeDtDvGLJt7yIaBuAqAob2fSlNTkeAmqZljgOAqSi/xx+put6u0GMGdwKYY1M85kIsMZZihpVKgJqmZY5A35N8AAAE3qy8mpXlxqQJo4uSjEvTtCwQuQ5A07Tc0QlA0wqYTgCaVsB0AtC0AqYTgKYVMEeuA9Dyiw8BR9sYOgEkDoCAyRJtDIo4HLF/z/+s5tNcx6ell04AGgDAUxE4DNK4sRU4G8AIAAADIIDAsCyDvWbTaxK4vy0ybLHe+2Fw0F8BCpxvQqDUYzb9H6TxFoDvovfNvzdi0GQC/arc3PGfOmfw1CyGqWWITgAFbPaooKu13WgC6Fr072lwIhGe95rB6zIVm5YdOgEUqGtHB8oMB54HcGKSTTgYWFTnaromnXFp2aUTQIEaahj3Azg61XaI6a46Z/NJqUek5YJOAAVoTkXT6Qykaxl4MZG8C2CKX1XLNzoBFCAp6edpbvIET0XonDS3qWWBTgAFpnZ0YCKAE+JUW07MpxYV0wiQMQFgL4BW5RWSLklTiFoW6XkABUY4jLPB9uXM/Pi6aPTCXfZx2ALAX+tqbhIsgwCG2Fx55kysKtLzAwYW/QRQYEjSoYrimLToB31t4tIYrlzFjN8qrh1e7uqoSD1CLZt0AigwTOxSFL+1cKM7bHutoBdUbZPVpRPAAKMTQOEZrijbqrrQkDHlWgByCP16GmD0L0xL2CfRDf8FsKbvUo4OK7Zey2Y8Wup0AtASthQzLIa8CsDOPYo6mcXVvjU17bmIS0ueTgBavzREpgUMIY4F8AAIK8H4E0mc0BCteibXsWn9p4cBtX6b31K5GsCVuY5DS11KTwBEQjGirGlavkvtKwDLjYrSbfo7oablt5QSQBd3PQPG532X8h9TaVvTtMxLKQHcuX56lLq/C+52diAzVhgx48ZU2tY0LfNSHgWoj7qftGAdxUQ/ZuK7QHz5umikev7GSvXiEU3Tci4towALIzVrAPwiHW1pmpY9ehhQS8q1owNlJYBZxEVR/bQ3cOmJQFq/+BBweMzgzUMMY4MwjPcth9zoMYN3zJr4rO0p01r+0k8AWr+0Oh23APzjXX5UDGBu0fZhpQBuyFFYWpL0E4CWsNkTAvuCeF5fZcR0Xe24lWOzHZOWGp0ACo9UlClfD9RuHAKgyO5ainUeknRUWk7oBFB4NijKDlBdKIi/omxZGpuTCUjLHZ0ACg2jRVF6gNcZmt5XwYVYYoDpB6qmuwSr2tbykE4AhYawUlXMxA/Ums2Tdv2Zb9I7xeNNsxHAyYp2318UcaueLrQ8lJZRgNpxK4cYXdZ0EEZB8mv1691vpqNdLf12WtbzQwyjHUCpTZUKAfm6xww+DObXQDSibdOmCwEcrmyY8US6Y9UyL+UngLqKpmNFLPYmEz/F4N+zwL89zqbf+hDQQ4x56NcbatqY8WCcasUAvgOihQBu5nhvfqBLWHxPeiLUsimlBHDt6EAZSXoUwMRdfkwgmtnmNOakFpqWKdLCLQC2p69FWrxgQ/X76WtPy5aUEsBQIb4F4MC+yphYTwrJUws3usPcfSR4Oqy2SmM/jl9Ny0cpJQAmGmdfSk7fpHeKU2lfy5yGSNUfAMxPpQ0CNgiLz164psZmTwgt36W4IxCrr9++Xo8y5DF/xD0PRNcAiCVx+Vtg/pp+9B/Y9Bu0wPnDVYuJqZJBoQQvaWOQj3jnyfXR6o8zGpyWcbqnXkN9tOofANweV5ObJZ0rCGcwMAFfHATKUWZ6A4QnuoBHFkWq9Hj/IKETgPYFf7g6CCDY+/dZI14ZPtJV3u57Z1JnDsPSMkgnAM3Wos0nbYOe3T+o6T4ATStgOgFoWgHTCUDTCphOAJpWwHQC0LQCphOAphUwPQxY4GrHrRwLyzrKAB/GjEMJmCBBwwAeRsC+AHaCsBXMWwHayoSPIfkNKfDmvmH5vg81yUwj1vKETgAFpnbcyiEiFvsGgFMBnIJY7BAA6D3nnQEQ9jj1nQGAAADEAIhgMNBqGu0eBFcQ01Mxij3Vc0KUNoDoBFAg5riWV1kwvkux2AUA9klTs6UATmXiUw0Yd3rM4JtEuE90id/p04IGBp0ABjUmr7P5m0z8I8n42l6f7Ol3NDMaLYf8aZ2r6T7JslE/FeQ33Qk4SNU5g6d6zNAbTPwUgK9l+fblxHS9AeM9j9nkyfK9tX7QCWCQmT0q6PK4gn8mwjIAR+U4nCKA6r3O0Nk5jkOzoRPAIOJxNZ1nGPgPGJfkOpZdMfGluY5B65vuAxgEZk18tqS4rWwBGLN6OuuT1QngAxBaWHIrhNgpmIuYaF8wDwfzOBAlc/5feUpRaRmjE8AAd+P40H6drfw0CFOTuDxM4BclKGBYvGLYBvlxvHH9m8YuG9kVKzoGoK8x8bcAOhFxniSZ6OUkYtOyQCeAAWzuqOaKrk5+gQhH9uOyDjAeEQb/YU1L9O9LMcPqzz1v+2z6JgAv9fy5bc7ogCmFcSEEZoHR19mB60pEx939uYeWPToBDFBzxwbGWZYMoXvrrrgY2AHGYi5y1Dd+OuWzdMWxYENNBMAiH/j/2pyhs5lwPYAaAARQQFjymtsi0zel635aeukEMADVjls5worFXkCCb36AHoOQsxtaqtdlKiYfSCKKJwE8ee3oQFkZF5GeDJT/dAIYYHwVq4a2xnY8A+CIBKpvYuarGqLupzId165+vaGmLZv305KnE8AA0yq3LwLI/pTeHsxYAYMvyeSnvjbw6XkAA4jXGbwYoKvi1WPCk8OHWNP1m1+LRz8BDBBzxqw4WJIV/wRewr3rwpHv97d3f0/zKprHxyCPkxJb9hk58uVMbg3uqQiMIsvxVTaovbWl9B+LMbkrU/fSdqefAAYIFtavAJTFqfZwebjqmtTe/Exes8kXk/JDSDwugOWtmzb9yzsmeHTybfbNBxYeV+g2SOMzJn4RUobKzR1vz61oPjTd99L6phPAAOAxgxcwcKa6FgXKR468wgeSKd3LGfofBt2C3Z8Oj2CBJ64dHYiXgPql1RX8IZhvBLDrIbKHWFI+OWvisyXpvJfWN50A8lzPG6EhTrVwTHZckpbHdIG5NiUHDjUcF6bcfo+ZWFUEJrt7HVqyvex/03UvzZ5OAHmueHv5dwHsr6jCxHz5neunR9NxP2bYzvWXYMVx8P1TYu7YF4o1Asz4UbqfOLS96QSQx3wIOMA8T1WHiX5fH61+KV33JOC/isL/pOs+iyJVG8GsmpE4aqhwxB3x0FKjE0Ae2+YU5wM4SFFlE1HsxnTek5jnAn1uHfTyunDkiXTeiUgsUtVg4ht8YP0azSD9n5vHiOj/KctBC/wtNRvTec/6aPVLEDhvl09nCdCSTuCcVIcW98I7fkWA6qjxg7ZXhOJOetKSpxNAnpo7qrkCwHRFla1GR3tGVtn5W9xPlEfd4x1CHGCVWiP9kaqLFkXcqjdqUuqjZ2xn4rtUdSzmGem+r/YlPREoT8WK+GJiGIoqv71jy2lbM3V/H0iiBWsz1X6vzo6Su4qLO+fBZo4DMV3oA9emOryp9U0/AeQpYj49TpUHshJIhi3afNI2AM8oqri2mqGqbMVTaPQTQB7yTXqnuHXTpkpFldf8EXfcHvk6Z/BUAN8kgJnk0w2RaYH0Rdm3WSNeGV5U0nW1kDiEiT8qNjp/17OJiD2BhyFxsV2xAa4B0JTuWDX9BJCXWrdsORHAMEWVv8Zro84MLiLCMiLMBqGWIF7yuEIL0xfl3jwVgcOKizvfJGY/E18D4I5Oq/jtORXB41TXlRdbzwPYZlfOoOPTHavWTSeAPEQWK98wsns7Llt1ruD5BFy3VwHzDV5n8JwUw1MEZtwP4IA9fmqyxB8vxBLb/gzfmpp2EP1D0fLkdISn7U0ngDzEJFWLYbpiZW2vqK4nJvttuAmXJRuXSu3owETYHEDCwOHjXBXHxmniNUWZ2TMqoqWZTgB5iRQJgD5c9MFZHcqrwUPtyhiwLUuJEEOUxbDU92VWJQBYRTLXh5wMSroTMD/Zzv5j4tXxLmYgAJvVg0wUd9rwTWOXjeyQRTcT40QCfS4J9zaE3Y+qrtkeHfZuubkjAsDso3jrzph8XXW9RfyOwfaHGrBM6jwCLQ79BJCfhtsVEMcfm+8sa7sTwL/2uha8aviIEb9SXTt3VHNFp1X8JjFdD9BJDJxJjEfqXMFfqq5bjMldzHwNgD3PFWAQzYq3T6DFpJ7RKOBSlmtJ0QkgP9mfpEOIu9Puog/O6igXQytBdDtAbwP0Ngi/tBxF7nhLhi0HNwLY6/s2MebVVTQpv8c3RKufIqZKgJ8D8BGIXiTQKf5w1YPxYu6IDP0cfa9B6MGqUREtSforQJ7pmQNQbFdOEgntuOtrmbwDwE09f/qBz7ApEEKK09HHk8Wu6qNV/wBwVv/u2f0E4UFwO+xmBIIy03dR4PQTQJ5peWen4lMQYKR4+l98tvvxSbIvyzRi1vsEZoBOAHmmZ0NM215+FnH3BUwJMdl19nUYMfl0pu7bs+zX9jGfEf+rj9Z/OgHkJ9sXOzHvk8kbG53t80B4Y48fWwDVLdhQ/X6m7rtzv2XlUDzdMJE+bCQDdALIR4Qt9kU0IZO3vmPLaVvLR4w8EcyzQfgLAb8B5Mn+SNWvM3lfOXTogapywfb/J1rydCdgHiLGh4w+T9oFAxnfMrtnpODOTN9nVxyzDlP1brCgjD19FDL9BJCHmEg12WfCYNwsk0GTVOVk0XvZiqWQ6ASQh5iVs/2MEodDtVR4QGJCtaJ4S3106vqsBVNAdALIQ0T0T1W5YK7JVizZ4KtYNZTAJ9qVE6BaKailQPcB5KG14fC/x5vmFgD72VQ5B4Byu3CVm8YuG9kRK/2KpK7IwkjNmmTbmTXx2ZLitqFHE/POsui0/yS7bdc23vF1AmxPAupZ26BlgH4CyENLMcMCK3fAObTWDNp+Ytq5EEsMr9nk67SKw0TyZQPGx3XOpsc8FYFR/W3L6wqdW9xWthYQ/2Qy3mo1m9+YM3bFV/vbDgAQ4wpVuSSRtnMPtN3pBJCvBD2nLAaUW4b3ZbxpenrO/Svq/RkRnQs2/gIoluLtweMKHc/MDwMY8+VP+Ui2rL95nSvG2F7YhxvGLHMC+LqiSuTTcIty+rGWvIL+ClA7buUQYmt/Q1pOthCTDvp0eIsM+1Cz54q2rCsqwtKuTtwF+0fjK2ePCv504UZ3OJH2fAg4WoEf9lnImF43Jnhyw3qsTCg4Zh92SSJfNoPRLOT3APwioXYAOERxXV9t9SLgz2k/j0D7QsE9AfgmvVPsdQW/V+cMviBisc/J4tWSRZCFWEmS1raaxnqPM/jHWlcozmm8mXX72qotAFRTb0sNB2Yn2t6WMdZIAPazCA1SnUC0J9tJO8R8cKKN1I5bOQKA8hBQKfiP/YhL66eCSgB1ruD5rZs2vcuMxUQ4HbsfS91rPxAuE8zPec3gcu+Y4NHZjvNL4veqUgaum20GJiTS0n7rjU0A7M8RsPijfgT2sW1MRB8m2gjFYrdCtfQZ+FdDS7V+/M+gAkkATF6zyUeMR6D49NrrKqCaBf7hcTVlZB+9ePyRyucYsN1Jh4ChBkRCU3R9qImR3aM5YVnDevfLicYlBG5BH6sGCdggpLgnkTbmVASPozif/gS+PdGYtOQURALwOIN393R+JaMUTA96nKFL0hpUwijOm4C+7nU22W8CuotPIpEGAt+KXd68zPw4yLoEIOUy5F0taHG/TkQXAdhlcg69TYZxeiITdmZNfLZEStwLqE4+onfLIu5HEo1JS86gTwAeZ3AWiGam2AyB+He1ruasb089PFL5aPeuPvaY6O66saFD4rW1FDOs+ki1r9jodLHkqRasAxui1eclc8Bofbjq8c6ytvES+JpkPro8UnnMgs+m/juRa4vbyv0AlLsLEcuf6ePAMm9QjwLMHdVcYZG8LU3NDRHSuscHPj6bL0wfSNYieJ3ongxjN1RXThYenT0hULVwTc3n8drsOaknsR5/hZ7diZWzFvfkMZu+C/APVHUYFPJHq/6SUnBaQgb1E4A0+GaoT9jpH6KvtpnBC9LWXoIaI+4mAHF6w/lIo10856tYlbdbZ3mdoekALY5TLQaJWf35SqIlb9AmgFkTny1h4njf2zcy0Y8JVEPdZ+j9BootsQCAgSvTFmQ/xGTnHICj6lp0Uqvc/kg+JgHPmOWnMfET6Hvk5QvEfEfD+qo9NyTRMmTQJgDH9vIaKLbXBvCRdDi+2hCu+kV9pGp5fcT91/qI+1piPhOKLbkAOmXuqGbV0FVG3Ll+epTBlwCIMymGvt4qdwSSmd6bKXWu4PkQ4inEfRrjV7ZFh92alaA0AIM4AQgplfPSheD/bfx0ymd7/rw+Wv0Sg1WHaJZ0OeThKQeYhIbItACYEunTOBHSWFXnbD4p40Ep+BBw9Ay/LgFQGqf6ZpDj4p49EbUsGbQJgNUHSWwd1uJeZnstGcrhJyH23jc/W9ZGwz5mfjyBqgcQyeV1rlCd6mDOTJkzuukrrS6jqWf4Nd7rrB3E5/rDUz/JRmzalwZtAhCSRiiKN6p68oks5Xdtsnhk0oGlaClmWMOHyEsJytWCvUqI2T/eNF/1jll+csaDQ/f6Co8ZvFUa9BYYUxK4xCKiS/3h6mDGg9P2MmgTQBzKHmYHyTh781Om9+ZX8q2paTc6Os4h8KoELzmWhVjhMZue8jpDfZ7gmyqv84Vhda5QnYjFPgRwMxTr+3chwfh+fbgqkScaLQMG9TyAweyOLadtnTuq+RSrSD4GxvQELiGAzmbisz1m8GUQ/lBURA/3LDpKWp2z+SQivpzBlxCz6qlrTx0M+k5DtGppKvfXUqMTwAA2f2Nlq2/SO99o3bzpfjD6M1X5ZDBO7urku+qcwX8KwktMWAEY7/rDU9bajcF7nS8MI2PIoZbE0QScAuZTQLL/p/YyPifw+f6oW2/0kWMFmQAYqPC4gi/alccsKiH1t4S80b2FN1/mdTa/wsQLEGecfQ9FRJjKwNTuf64FjxnaCQTDYN4GojYClzJEGViWM9FYlrtMR0zimxCBV1kQFzVG3f1ZfZgVM7GqqMy1c5ZgPpUp3nwFbGGiFpLyn7Eh8tlEZmDmo4JMAAQMVT02D5Q3/5eI66O4y2MufxkQfwGQ8Jr8PgwBcFDvm5tB6D6RMOVuD2biRZ3Dts/tmUKcV3wTAqWt7TuawDiRgTi9RD3FzGAiGO1Gl8cZXELgn9RHq22XSuejQu0EHJT8kWmvSofjqJ4Vf+25jmcXbwqBqoZw9Q35+OYHgNZ24yYA/d5nsUcRCJcx0bseV7A2nXFlmk4Ag0zjp1N21keqfWzQMUx4EnE/yzKJo8R0Q3nEOn5Bi3tF7uJIyNlpaKMYjAaPK3hPz2Gnea8gvwIUgobPqt4D8G2vM3AkkzEXwCXI2u+bowTRWCaGLvK1TN6RnXumLH3TuxlXtzqbI4jiJ2lrM0MGRJbSklcfrXnbH3FfIR2OCWCeDeaE1uwnoQPAMwya0RoZtn99pOqOAfTmTz/iH+V6X8lE6CeAAtGz7uFOAHfOGbviq5YVm07AKQBVAUj2rMHVBLzEwEtWqbVsoPaEZwgZzA0+BJblwy7TdgoyATCwg8h+QwxmKiFwVTZjyqaenXv+DaB+JlYVlY3deSBi8jBBdCiDJxBQxhBlIB4O5i4CtTHzFhB9TszvkUHvSlirk9lJaICKgPDlrkxMBsDjEWe0hYHDW13iWwjjsUwHmKyCTAAEtPjD7tPsyueODYyzLGNdNmPKlcWY3IXP8B4AffquDWIsq4+4v7Pnz71jlp/MQjwIRSIgSecC+ZsAdB+ApiWpfv20l0HGqQC22VYinJG9iPpPJwBNS4E/PPUTZtie38DAaK/zhfRtS5dmOgFoWqoEXlMVW7JYtTdFTukEoGkpIml7jDsAoIiL8nY4VCcATUuBDyxAypWY1tCNXXEPS8kVnQA0LWlMbWbwZgC2uy0R+F96HoCmDWBMPNLjCh3f+3eScIDkAYzQTAadqr6anst0fKnQCUDT4qKvg/nrvX9jAuwPadpNF5jvy1RU6aATgKZlCDH9vj7qzuv9AXQfgKZlxidWkfHDXAcRz+BNAMSqAzyVp+t0dhjKciKKczqPVuiYeV7jp1M25zqOeAZtAmDQh4riD1TX7rvR2gDF9E4W9H6ycWmFQRDdcu3oQLKrLLNm0CYAYuNuAjb0UWSx5F+qrvWhJkaM222KX/K3TM333W20HGPg8CEOx89zHUc8gzYB1EenrmfIbwBYvcuPNzPzZQ3rq22XAvf6JBqZz4TbAHwxhkvAszHZeak+ulpLCPM1c0c15+wYuUQM6lEAf2TaqxdiyaTx5pjjIBwl5Sh9PdFdapZihoUwfnjDmGV3GsJxhEM4Wua3VK6Of6U2CP2dmL54ImTBBgHjwbiMgWrFdaUxh/wfAD/LfIjJGdQJAOh5I0fwarLX37l+ehSA8qxAbXAjRrg+WtXXYbL3eM3gTxn2e/8R+CzkcQIYtF8BNC0b6iNVtwD8in0NmpyL05kTpROApqWEGIyHFBUcE0aPHp21cPpJJwBNSxEL2qQqjyW/6WrG6QSgaSkixtGq8g4gkq1Y+ksnAE1LgdfZdCCA/1VU2fzrDTVt2Yqnv3QC0LQk1ZrBE5noOagf8f+WrXiSMeiHAXflqQiMAooOI8s6FMCBTDQc4GEEKmcQg+XnRNTGwFZivEcG3mNr5+r66Bnbcx27ljtMqPKawSW9f5fMDhAdQMCxiLMumJmfyHiAKRjUCWDu2MC4mGV0n4DDfAokjQUkeLejrnsPA+8+Art3ih8TwBIADWGPGXybiQNC0ksdXcWBRZtPst8GWhuMDmDggN6/UOJHpa8eHpWPZiak9Bh0CWDWiFeGlxR3nQ/wdy0LburN0Mmfb08AjiKmo5hwfXFx506PGXySwQ+ui0RfWIoZemWg1idizMvn7cCAQZQA5o5qrpAO6WF0zuTMDrsMAXAxgS4eb5rrPBxcIIsc9zZ+OmVnBu+pDTDMWOiPup/MdRzxDPhOQE9FYJTHbPo/yyE/YqAO2R1z3R+Eu0Ss62OPK1g7E6uKsnhvLZ0IaeznoSXrohFv+trLnAGbAHxg4XUFvwdprAboWgAluYuGnGA0lJs7X/e4mty5i0NLFjM/n4ZmLAb5/JHKiwfKV8MBmQDmVTSP3+YMBZmxGMCIXMfzJT4STMu9ztDdteNWDsl1NFriBLf/DKC349fsEwN4RkIc0xCpunUgLRcfcH0Adc6mb8WkvI8o5Tc+A/i8588OdP9fDAOwD4DyFNolJr5GxGIneyoCF/lbat5NMU4tC+qjZ2yvHbfyRCPWNU8yTSdCaZxLNqL72PBXjC7x1PyNlS3ZiDPdBlACYPKaoVsZ+DES3JN5D6sBBIg5RAa9qxrf750vAJZHgjENQA2AMf2839GQxqt1ztAlDdGqZ5KIV8uyno5cX8+fgjAgEsCFWGLs7wz9hoHv9fPSjwj8IEnHgwvWT1XtEbgbf0vNRgDNPX/uBpjmVISmsEXfYeIZgPosuF2UEfHjHrPpan+k+oF+xq5pGZf3CcCHgKPNNB5i4PxEryHwKpD4ZVm48kkfSLU7cKIt8oIWrACwwut8wcNiyEwwvAAS2e7JAdB9HmfTvv5o9Z2px6Jp6ZPnnYBMraZxTz/e/OuYcEF9pPqE+nDV4+l58++uPnrGdn/Y3dhZ1nYQiH8CIJHxfwJRY50ZuiLd8WhaKvI6AXjM0O0ArkygKjPxXTst64iGsDsrUy8XfXBWhz9c/XNingRQIIFLiMD3es3gNzIenKYlKG8TgNcZvBjA3ASqbmXQRQ3h6htyseyyPlr9sT9SeSqBbkScA0cAFDHwkKcicFg2YtO0ePIyAXgqAocx4d4Eqn4sLD6hIVK1NONBKRHXR6ruIMb5iP+VoAxsPOSbEIg3zKRpGZd3nYCzJj5bgjZjCbrH5FXesmI4w7+xOpyNuBJRH3U/Oce1/AzJ4ml0zyfoG+OY1najEeqNJLQ8M2vEK8MN0TmMDBpSbFCMHNxaurZyayb6mrIl7xJAUVv5jQAfFafah8KyTvdvrMm7rZYWhKeF6pzNZxLJZVAnsWu8Zujh+kjV8iyFpiWMqdZccYRgeQoIUwAcCuAQoLPn98mISQY6gS4zFPNQ8GMwVgN4XQIvxcraXln0wVkdOfwHJCyvEsCcMSsOlrBujFMtIplO92/Ivzd/r4Zo5SteZ/AyJjwG+69ZxOC7fAgcl+9LRguFxwweweArCKHLAIxLcLqZA4yvAPgKgG8K4OaitrIdHmfwcQg8uDYcWZbP6wLyqg9ACmshoJyCaTHkpY3Rqo+yFVOy6qPuJwn4RZxqR7U6xQ+yEpBmy1PRXOkxg08DeJtA8wCMS6U9AoaCcBkYz483zQ88zqYb8rXPJ28SgMcVOh7AN1V1GPSzhsi0RIbc8sInkcitAJYrKxHdmK8vjsGubmzoEI8r9DdIGUL3ay/pXWMUJoBoYWu78d86Z9O3MtB+SvImAbCUP1LXoLfbIkOUp/rmm6WxiUxvAAATi0lEQVSYYQlpXA2gXVHN3NYu/idbMWndU8vrzOBPyOI3wXxalm47gYierHMFn/A6V/R3XUnG5EUC8FQEDiOicxRVWAj+/mJM7spaUGnSswbhNnUtmpvPx0cNJl7nijH7O81nCfgpcrCHBDHOYbLe8oxZnq3Eo5QXCQDSuArqWB5d0OJeka1w0q281JoPwHa4koDx413m9CyGVJA8ZvAIJus1Ipye41DGQIjnvK5gfxe3pV3ORwF8YNGK0CXKSvTl0cz9NXtCYF+jQ5xCEqXSQKihpXpdf66fUxE8zpJ0pGC0bIsOaUrmKcS3pqa9zmxqINAC20oS3wHwQn/b1hLjHbP8ZAb+isRXcvayAPwb4DeI6QMWtIkkb+ved5KHgehgEA4H4yT0bzs6gxm/9ZqhEfWRqjv6GVPa5DwBbK8ITock215XZvytIVL1WjJt15lNZ1E73QdgDBNAEh11rtAPG8JVDfGu9U0IlLbtNO6REpcTGExAubnjX7VWYEbjhpoP+htLuyXvHiKMH4Gwb1/lTDh37qjm8vkbK1v727amVjcmdAwLfg6qyVm7kwC/ABYPWkNizy1cU/N5vAtmYlXRMHPHFGJcRoSLAAxP4D7E4Ns9zuAOf9S9KMHY0irnXwEki7PUNfj3ybTrdTYdSKCHsftGHiXE7E9kQU5ru+PnTLh8jx8fS4bxsA+BfifOX2+oaWPAdsoyAUNjBlf3t11NbbYZmECCn0dib35J4D8YQhzhj1Sf5Y9W/SWRNz8ALMbkrsaIu6kh6p7p6OgYz0Q/BiOha0FY6DWbZiRUN81yngDAfIqidBsXFT2VVLOCrobNIxkTZquunTXx2RKAr+2rjIDj2pyOacnEZAj5oKqcoPy/0PrJN+mdYgPGEgBm/Nr0NrOYWh+p/u78lsrVqdz3ji2nbW0IV/1CSOtwQHl0eC/BoN/PdjUdnsp9k5HTBDDLDI4GcKSiynNJ77fPbP9LZ7iU17aVDUf3/v99kkLRtsKCcHUzARtsKwjoBJBG2zZuugPACXErEu6VDuPEhmjlK+m8/4INNRF/xH0Jga5C/EViwwwWS7K9mWxOE0AJcCIUky+YOPlJP6Tc4fUt1aUjI1WboOi1h0XK6xVBMVQTgxhH+SpWDU2ubW1XHnP5CUS4Pk41JvCt/rD7e5k82KU+UnUfMdWgeyNRVThHGrHYTZmKoy85TQCS6FBVOZFsSrbt8hLrNwD+s+fPGdghLL5Zda0PJEE8x6b4gYb1VW8kGxeDliuKxXbqOCTZtrVu3XMqxG8R9/XNc+oj1b5sxFQfrfqHEDgDgPJcSQbm1o0NZe01kNMEQFKqEkDH2pYN7yfbtm9NTbsRE6cx4UkAvcs1XyMi94IN1XHb9Yer/0TMlwFoAboTB4D55aXW95ONCQBAUrn3PFsxnQBStL/pugzdJ/faYsZCf6Tan6WQAAALWtyvQ8oLoN44pkRY/PNsxZTbTkCiiYrC91NdRTV/Y2VLQ9j9beKdw4uKaYQ/4p7sDyc+pFgfrf5zeaRqfwhr9PCRI/fzR9zzfGtqVNN64yLpUJ4TwASdAFLgAwsBjrei9OW26NBEdptKO//6aS+iexaiLQbOz9auUbmeB6CYlCE/TtdNevb/T+rsNx9IogUbkaZjH+qjU9d7zGAbbEYoiKm/E1W0XWxzBr9JIFVvegcbdGUup5WvjUR+Md40vw37pxQBNjzo/zb4/ZbrYUDbE3iIaWs2A8ky2++BzJzNw00HoyuVpQR/w2dV72UnlL4txQyLJV+nrMSYkY0O4RwnALZNAEzI+gafWWQ/248okRlkWh9uGrtsJBGpJnm1SsOR1e/9dhrWV6+Eeur38DZrR8aXD+e2ExCkuD/l7S4qaWD7byNArwpMUles+DQAxXblTHxf46dTNmcxJCViqleVc5z9MdIhpwmAofqUH9SPwraf8pJIOUyk2ZNQT6QyiPLqeLayaOVLAOwXpxFOATgTm5R8Idd9AIqFL5TKCb35zv7fJlkvBkoSEVUpij9Z0OJ+PWvBJMAHkgw8qajiqhvb/JVMxpDrBKD4tOP9sxdG9lw7OlAGxRMAkXqiiNY336R3igFWDCvjpawF0w+CSBmXiHFG1wfkdBiQGGuYUGlTrJwlmIgLscTY3+W6gZgvAlAKxt87u4p9izaflNCbrG5s6BCy8DOAjwQQZqaFqR71XeIoOgwsbR/rCLQmlfYL1eebNx5sgGxfzwyOO/9j3n4v7tNVXOIjwqkAdjLRw+vC4TsTnY9S5wyeCmAuEcYx82oGbmmMViunjRtEr8WYbcuZUn8fqOR2KrAg1aSY4bXjVo5NvnWm8ab5GDH70b3m4GgQaouLO1+bNeKVuD3tta7mybD4XwDPAHAEgFOJ+GmPK1ibfEwAQaoneEhLOVFI65thsXInX8FCucJv3n4v7hMrKVlF3StFjwJwIjH793eZjybyPdzjDF5NhBd7dhs6gojOFUSves3QNNV1d7RMXQfFHBUGMvoknNtRAGblL8Xoiqm+0ynVOYMzAPQ1jDKxpLjzlnjXC5aLCdh7HJZx29yxgeS3jWYcqCqODeX/Jt12AWNDKJO6BRlVlceKS24BsNdXCGKcU2c2X6C69qaxy0aC0Ii9F7aVMPgedQIhhmKFKKn6i9IgpwlASONfqnIG1yTbNil6hLn7Ec9W7biVI2A/S6vEijmSTkwgXm8bF7A20Q0otN1RnAlUhnLECYDiNSFY/XrpsIq+BvvtwCZ6ncEJynurJ4ZldF5IThPAgvVTP2RgrV05E53pAycVIwvFVtys3KYbHR0dnfhyAdHeDE566WhxkVgCm9EPAeTVMNVAwqSeN0LsiPc6sn1NKF9LAESc1xNJGe/1Yjv3g+L8u1KV61EAkKJ3loDx28ympLbJMoiWwOZNTKTepaXnmHGbzj6OOnZ2JL1Pwe1rq7Yw41zs+YnE+FNZxFIuEtHsCakaUgZQFOdR2v41IdmSS1SXWkVFLwP4xKZ4+YI4x9ix+jE/o8PCuU8AzC8qyyG+m0y7C1rcKxjwYc8kwHjik3Ak7gaM0uG4FsCefRStksSVd2w5LaV1Cg1R999jsnMiGN9j8BwhcLw/6r5cnxGYPElSvc4+JpWdaWvDkbt6lo7v1iyIb+mZtmur8dMpOwXJ7wDYskfRmp6DYWzNxKoigv0OVczI6JqYXK8GBND+JDDEdnUcgItrx638UeOnUz7rb8sNEffP6sY0/Z0MMYMkSpl4mT/qfiSRaxs/nfJZ7biVx4qurpkQdCRJjrJw3NMYnmqX6fvlzvXTowDuTUdbGiDBHyvnUBMfBuBpu+KlmGEhzOfWmc0XEMvpEGInW3JJvDd/rwXhaaG5o5qPlA5rJhONZebVjpjx2/kbpyo/wfetaD/IkiiyDRvI6DmYOU8A9dEztnvNpscYdIVNlRIjFqsD4Emm/Z5fYEK/xD31bBN1ZzLXatm1b2Ta2m1maEefIzcAGHRS/FaIGyJYCsXuzSrzN1a2oPupM2FS8hRVuTDUI2WpyvlXAACQ4PvV5fi+x7XigCyFow1APpAU4L22gPsST8vL49fUu2KDOg3lDlKpyosE0HPi76t25QQMZVj6k1iLQ7nf4ohxLldenMfXyzchUMqEs+1r0Ls9TxUZkxcJAACISHmAJjHOqXMFz89WPNrAwxDKefUG81XZiiUR2zqMC6A8sERmfP1C3iSA+nDlE4izXTdJ3Ot1Niln0mmFq7y0K6A6jYeB87K5464aEzGU+xIy02OZjiJvEgBATKDrAdivjCDsC8ISvXe+1pfuDVtZNWZvkMW3Zi0gBY8reCm61xzY+XR4tCr5czESlEcJAKiPVC0nxp9UdRg0uU3uWDoTq2yHTnKtdtzKIV5XcLbHDD3qMYMPeV3B7+VlB9QgJIl+F6fKxV5nKKdHsc/b78V9wIqTogGA6X4fyH42aprkVQIAAJLWHACbVHUYOKvcteOBfEwCXueKMUasK8iMRoDPA3ARMxaPN83HdBLIvMaI+5+Is/afie/zVARGZSmkvXSVlv4aqsk/wA6CyMppwXmXABZsqIkw05VQfRUAAMYlw80dT3idLwzLSmAJ8DqbDmRhNTNoch/F39rf6VSuKtPSgyHjHawxDmz8pXsTkeyqM5u8xHypqo4A7q6PTrVdNJZOeZcAAKAhWvUMAXF3b2XgLKYhTbXO0EHZiEulzlxew0QrwbDdwomIpmUxpILVEJkWYObHlZUY01s3b7o/m09lHlfoOwSaH6faekcxFcjJQArbIkN/CMKyBKoeL4hfrzNDF2Y8qD74EHDUmaFbCOJFxD2GmjP+nU7rVmQYsxHvMBjGJeOd5iO+CYHSTMfjNYPXgfl+KA7D7Qlq7u1rq/ZcU5AxeZsAFmNyl9ElziPwqgSq70PgJR4z+HQ2hwk9Fc2VrabxGoF9SGA7b4ZYnvGgNADAHS2Va4kQf/cmwrdb242VtaMDqv0Ek+abECitczXdycAixH+/PeOPuP+QiTjs5G0CAID5GytbO0BnYe9VeXa+yUTveFyhhaltJ6Y2Z+yKr3rM4FJIGQRwdGJX0WPDI5WPZiombW/1Yfc9TPTnBKoeKwzjdY8rWOtDIG3rY+qcwVNb241/E1O8Y8oB4JOiYrqiZ4egrMn5YqB4FkXcG2aZwaoS8LM2nWt7GgLmG0Qs9n2v2fQwGA+URd3LUx1S8U0IlG5rd5xNkP9PWtaZiPsot5sHyiOxq7MxrKPtTsgdM5mGHAzga3GqloPR0Goa13jQdFtrZNifkz0/cE5FcCpL/JCBsxK8ZKswjG/fvnZq1h79e5HHDNpmHALfqjo/3eNsuhGKKbzlpdaQVE/T7XXt6EDZEIfjMTAnM5/7UxCeJ8kBaSDU0FJtfxhDDx9Y7KhY8ZUYW9OIqQbAmVBO27S1wB+pmpftzK59yVMRGAXpCAHcnxN3NzLwEBGeIbmzueeA2T5diCXGOFfFsULK00G4FMCkftyngyG/3rMeJusGTAIAujvcWk3jFwDmoH+fwHtqJfBqyVhHRG0EtDGzwUKU9ewtdzC6N4gsSeEe2xl0bUOkKqvf6bS+zR4VdBlFeA6MY5K4vAvARwC/B9BGAtqZ2SCikQxMAHAIktu8sxVSnt9zZHhO5P1XgF35UBNDBPO8ztCLTPKPADmTbKqcQZOJMBnomXBABFLsz94/9K5kOaMx6laubdCyZ+FGd3jefi9Wx0pKH0f/N5stAnAoQIcCX75eUny1RCSJsxvXuxPp5M6YvO4EtFMfrVoWk13HAHgQ8SYMZVc7gJ9Kh3FcvAMhtOy7Y8tpW8sjsdMJfCtUm75m3nIjJo5vDFfm9M0PDNAEAHRvqeWPuK+QQA0Ib+Q6HgB/lZZ1lD/ivqVnJyEtD/lQE6uPVPuI6QwAH2T59tsJmLs2Epme6XX+iRqwCaBXY8Td5A+7v0pMpwH8SpZvzwCeYRYn+yPubzZuqMn2C0pLUn20all5qXUUgFugPKMyLSRAS1jw4fUR94JEjxrLhgHVB6BSH61aBmBZrRmsFsCVAM5H5k5VaSHgIQZ+54+4FdtQafmsp4P6pzeODy3q7MT1AvwDBkan8RadYCyVJG5rjFS+k8Z202bQJIBejRF3E4AmX8WqH2yztp/dfVYbnYLu3tpkSQBvgyhAEs98Eg0H8imLa6npmXp760ys+uVw584zmXA5wNMBjEiiuU4CXmbQEukwHmr8dMrmNIebVoMuAfTytUzeAeDhnj/wOpsOlIKOExKHMOFQBh1E4DJ0j+0PBxBD99zxz0HYAsYHTPQ+WL5LQv7T31KzMWf/GC0rFmNyF6J4GsDTPrBodTUfS8wnM/hwEB0ChhPd29fvC2A7QG0g3gzGe8R4jwVejzdnIN8M2gSwp/po9ccAPs51HNrA4ANJhPEagLjHig9kA74TUNO05OkEoGkFTCcATStgOgFoWgHTCUDTCphOAJpWwHQC0LQCltF5AK3txk6PGczkLTRNsycBrAfwGoEeLRs54k++dyZ17lpBPwFo2uAl0L1T9TcY/PvWTZv+U2cur9mzQtKYEEvlek3Tsupggnihzgxd0fuDlBKAANamHpOmaVlUROB7Pa4mN5BiAoiVyr8h82upNU1LryIwLfYh4EgpASxcU/M5CPPSFZWmaVlzaKtLXJRyJ6A/7L6bib8P/SSgaQMLi/PSMgzYEK7+7ewJgYcd7eJ0CYwXEPoYbE3LMQaPBHAdgCE2NY5L2zyAhWtqPgewJF3taZqWOo8rVAzmG2yKXXoegKYNYsTyc0VxiU4AmlbABPLrYA1N07JIALDftZSFmb1QNE3LNgHA/oQS4vM8FYFR2QtH07RsEgBszydjYDTY8edZZjCdhyVompYlEjRSUdxBXmfwHCY8EaedjWB+jIVYK1gvANK0gUCSrCCma2B/zP3Hjo7ytueL2srWEjBe0dYoEM0kZt1jqGkDBDGpy4FVYtEHZ3UA9JMsxaRpWp6QzI/2pAgmj9n8EMAzchuSpmnZQMB/yyLW0T0TgYh3WrH/YeD13IalaVoWdEgWV/lQE/tiJuCvN9S0tVtWNTM/nsvINE3LqA4CX9EQrXwFAProJWDyuJovZ+afx+kY1DRtYHmHWVzd++YH+kwA3WZNfLakpLXsTCb+FkAnEGAyoOcDaNrA0QEgTMCrkvnRddHoI0sxw9q1wv8HyIIxGoqB1JwAAAAASUVORK5CYII=;" parent="1" vertex="1">
          <mxGeometry x="680" y="581" width="40" height="40" as="geometry" />
        </mxCell>
        <mxCell id="veElxyi0WQyssnxSMCz9-175" value="Topic Clustering (HDBSCAN)" style="text;html=1;align=center;verticalAlign=middle;whiteSpace=wrap;rounded=0;fontStyle=1;fontColor=#7F00FF;" parent="1" vertex="1">
          <mxGeometry x="653.5" y="640.43" width="93" height="20" as="geometry" />
        </mxCell>
        <mxCell id="veElxyi0WQyssnxSMCz9-72" value="" style="group" parent="1" vertex="1" connectable="0">
          <mxGeometry x="920" y="593" width="230.87" height="30" as="geometry" />
        </mxCell>
        <mxCell id="veElxyi0WQyssnxSMCz9-66" value="" style="shape=image;verticalLabelPosition=bottom;labelBackgroundColor=default;verticalAlign=top;aspect=fixed;imageAspect=0;image=data:image/png,iVBORw0KGgoAAAANSUhEUgAAAQAAAAEACAYAAABccqhmAAAACXBIWXMAAA7DAAAOwwHHb6hkAAAAGXRFWHRTb2Z0d2FyZQB3d3cuaW5rc2NhcGUub3Jnm+48GgAADG9JREFUeJzt3V9s3WUdx/HPc/oH1002dEUC284RR1Aa48WGgU0XGN44IkFl/rlQEEwJ4NZOopl/iEVCAghu8w/ouEAMxsA0agjzamImbSdMTYzzHxHaOUgYIK10A9r1PF4MZISu6/M7f77Pc57365Z0v+/v2c6755z28HVK1Ible04uTVbXlJzWeOkcScuddKqX5kvqtJ4ve87fuHVk9YD1GJhdu/UAIdbrgbYl5SWXeOev0FT1w3Lq8Mf8d3/crwQwkyQCsF4PtJ1RXnK5pK94abm8sx4JaAnRB6Bv6eC5pZK7y0srrGcBWk3JeoDj827TsqE+V3KDPPjzsmnJ0HvF07ymiPIZwIblO09qmxq+z0uXWc+C5vPt/uObysN9C0d974Bc1XqeVhbdM4De0/d2tU0t2ike/Fnz0lXj5eHtA/LR/RttJVEdbu+KvR3zOqZ2SFprPQvsEYHGi+pgu557ZZuTX2c9B+JBBBormkPtqwx/UnLXWM+B+BCBxoniQK874/dvd776Pes5EC8i0BhRHGZn+/StkltsPQfiRgTqz/wgNywdfJeXLreeA2kgAvVlfohtJW1WpL+PgDgRgfoxPcBrux9eILlPWc6ANBGB+jA9vM75b7lM0gLLGZAuIlA724Pz/mLT6yN5RKA2hofmneQvsLs+WgURKM7swL5QfrTCj/5QL0SgGLPD6nDTZ1tdG62JCISzO6iqlpldGy2LCIQxOyTvdLLVtdHaiMDc2QXAq8vq2mh9RGBuzA7HlfiLQWMRgRPjYNDSiMDsOBS0PCJwfBwIskAEZsZhIBtE4M04CGSFCLwRh4DsEIHXZX8AyBMROCrrm0feiAABQOZyj0CWNw0cK+cIZHfDwExyjUBWNwvMJscIZHOjwFzkFoEsbhIIkVMEWv4GgSJyiUBL3xxQixwi0LI3BtRDq0egJW8KqKdWjkDL3RDQCK0agZa6GaCRWjECLXMjQDO0WgRa4iaAZmqlCCR/A4CFVolA0sMDllohAskODsQg9QgkOTQQk5QjkNzAQIxSjUBSwwIxSzECyQyKtDg5V/RrvdeRes7STF66aqwyfJfkC99/MxEANEQt699L3h2s5yxN59W7qTx8dwrPBKIfEIlyOrnol3rn9tZzFAupvByIejgkrKpy0S/dOnren7z093qOYyGFlwMEAI3hdHYNX+xLzm+u3zCGvHr7K8M/iDUCBACNUt6wfHd30S/eMrL6V076Vj0HMhNxBAgAGsWVJtsvqOUP2DK66suSvuSll+szkqFII0AA0DBOurjWP2Pr6Krb20v+3XL+Nkl/ljRR+2RGIoyA2SD9lcEBefcNq+ujKQ5NHn7ltDufvTDdB22L4xkAGml+x7zOT1sPgeMjAGgo59zmAT3cbj0HZkYA0GhnvrCs83PWQ2BmBAAN55y75frT9y62ngNvRgDQDG+rdk7eaT0E3owAoCm81/r+8tB11nPgjQgAmmnbpvLQR62HwOsIAJqpzUv39ZcH11oPgqMIAJqtS3I7+5YNrbceBAQANk5yTvdvqgxvG+jZ12k9TM4IAKw47/3G8Ynxob6lg+daD5MrAgBTXlrhSm5P/7LBezYu2XOW9Ty54Vc0EYOSnLui1Fb9TH956EE53bto/sKdA/t6Jq0Ha3UEADFpk3SpvC4dmxif6CsP75av7pYv/c2V9PjUkdLB7kULXiQM9UMAEKsFTn6dnFsn5yVJHe3TGpsYV395yHi0OnP+xq0jqwcsLs17AEDGCACQMQIAZIwAABkjAEDGCACQMQIAZIwAABkjAEDGCACQMQIAZIwAABkjAEDGCACQMQIAZIwAABkjAEDGCACQMQIAZIwAABkjAEDGCACQMQIAZIwAABkjAEDGCACQMQIAZIwAABkjAEDG2A5cIye94KVdkt/vXGnKep4cVL3vdNJSSR+StMh6npQRgOIOeu+/frj7pB9t/8NKHvgGelfs7Zj3/OSVzusmSd3W86SIABTzl1J7+7pv/+v9/9Z+61Hy9Wp4f9h35iO/dtOlnZJ6rGdKDe8BhDv4/wc/orDtiQ/sbyv5iyU9az1LaghAMPc1HvzxuePJ1aPe6QbrOVJDAAI46YXDizvutZ4DMztl/sJ7JI1bz5ESAhDAS7t4wy9eA/t6JiXtsp4jJQQgzIj1AJidl3vSeoaUEIAAXs5Zz4AT8fybDsBhBShJFesZcEIV6wFSQgACePmLelfs7bCeAzMb6NnX6aS11nOkhACEWTTv+ckrrYfAzMYnxj4vaaH1HCkhAIGc1019Zz6yzHoOvFF/ZbjipRut50gNAQjX7aZLO69/52DZehAc1V8ZrjjvH5LcYutZUkMAiumZrrrH+ipDVw/07Ou0HiZXAz37Ovsrw9fIVx/z0jnW86SIDwMV1+28fjA2MX5rf3lol5dG5f0z1kNlwbl3OKk8NjF+kaSFEj+dLYoA1G6hpI85SfyaAFLDSwAgYwQAyBgBADJGAICMEQAgYwQAyBgBADJGAICMEQAgYwQAyBgBADJGAICMEQAgY3wasEZsB24+tgPXDwEoju3AxtgOXDsCUAzbgSPAduDa8R5AOLYDR4btwMURgGBsB44R24GLIQAB2A4cN7YDhyMAAdgOHDe2A4cjAGFGrAfA7NgOHIYABGA7cArYDhyCwwrAduAkVKwHSAkBCMB24LixHTgcAQjDduCIsR04HAEIxHbgOLEduBgCEI7twJFhO3BxBKAYtgNHgO3AtePDQMWxHdgK24HrhgDUju3ASBYvAYCMEQAgYwQAyBgBADJGAICMEQAgYwQAyBgBADJGAICMEQAgYwQAyBgBADJGAICM8WnAGrEduPnYDlw/BKA4tgMbYztw7QhAMWwHjgDbgWvHewDh2A4cGbYDF0cAgrEdOEZsBy6GAARgO3Dc2A4cjgAEYDtw3NgOHI4AhBmxHgCzYztwGAIQgO3AKWA7cAgOKwDbgZNQsR4gJQQgANuB48Z24HAEIAzbgSPGduBwBCAQ24HjxHbgYghAOLYDR4btwMURgGLYDhwBtgPXjg8DFcd2YCtsB64bAlA7tgMjWbwEADJGAICMEQAgYwQAyBgBADJGAICMEQAgYwQAyBgBADJGAICMEQAgYwQAyBgBADLGpwFrlPN2YLb0po8AFMd24FexpTddBKAYtgMfgy296eI9gHBsBz4OtvSmhwAEYzvwbNjSmxYCEIDtwHPDlt50EIAAbAeeG7b0poMAhBmxHiAVbOlNAwEIwHbgEGzpTQF/SQHYDhykYj0ATowABGA78NywpTcdBCAM24HngC296SAAgdgOPDu29KaFAIRjO/BxsKU3PQSgGLYDH4Mtveniw0DFsR2YLb3JIwC1YzswksVLACBjBADIGAEAMkYAgIwRACBjBADIGAEAMkYAgIwRACBjBADIGAEAMkYAgIwRACBjBADIGAEAMkYAgIwRACBjBADIGAEAMkYAgIwRACBjZgHwVVe1ujYQE8vHglkAnNNhq2sDMXHOTVhd2y4AXv+1ujYQGbPHglkAqiWNWl0biInzGrG6tt0zALl/WF0biInraDN7LBjusvKuvzz8jKRuuxkAcwe3jp5/muS8xcUNfwzovHP6rd31AXte7jdWD37J/PcA3EO21weM+arpY8A0AG0vdf1MktmPQABjh6Zemvyl5QCmAbj9mfcdcnI/tZwBMOP0kzufvdD0G6D9rwL7I7dIOmI9BtBk09UjpduthzAPwJb9H3zCyd1jPQfQTN7r7u8cOO9x6znMAyBJmvabJf+c9RhAkzzffqTzBushpEgCsOXAqv947661ngNoBi9/9R1Pr4ziG14UAZCkbftX7ZD0fes5gMby3902uvrn1lO8JpoASNJTowf6vPQL6zmABnlo0ejkF62HOJbhrwLPrPf0vV1dHZMPSlprPQtQL07adWiq85LtT6+M6mPwUT0DkKTtT688PN0xts457bCeBagL7+8/0jF2cWwPfinCZwCv827TsuGN3uk2SZ3W0wAFHJHzNy8aWfXNAcX5f8CKOABHbVy2Z0WpVL1LXudazwLMmdejcu6araPn/9F6lNlEHwBJGpAvjVX2fFZV/1U5nWU9D3B8/p/eu5tP2X/+fbF+1z9WEgF4zXo90HZGZclH5HW5pHXipQHi8IqXdjqnHz81cuDBHfrEtPVAc5VUAI51bffDC9q7Ota0ubY1XtX3yLuzJJ0q6a0iDGiMSUkvSjoo5x/3VfdX59zuycMv/876Qz1F/Q8mnn4obg62NAAAAABJRU5ErkJggg==;" parent="veElxyi0WQyssnxSMCz9-72" vertex="1">
          <mxGeometry x="-3" width="30" height="30" as="geometry" />
        </mxCell>
        <mxCell id="veElxyi0WQyssnxSMCz9-67" value="" style="shape=image;verticalLabelPosition=bottom;labelBackgroundColor=default;verticalAlign=top;aspect=fixed;imageAspect=0;image=data:image/png,iVBORw0KGgoAAAANSUhEUgAAAQAAAAEACAYAAABccqhmAAAACXBIWXMAAA7DAAAOwwHHb6hkAAAAGXRFWHRTb2Z0d2FyZQB3d3cuaW5rc2NhcGUub3Jnm+48GgAADG9JREFUeJzt3V9s3WUdx/HPc/oH1002dEUC284RR1Aa48WGgU0XGN44IkFl/rlQEEwJ4NZOopl/iEVCAghu8w/ouEAMxsA0agjzamImbSdMTYzzHxHaOUgYIK10A9r1PF4MZISu6/M7f77Pc57365Z0v+/v2c6755z28HVK1Ible04uTVbXlJzWeOkcScuddKqX5kvqtJ4ve87fuHVk9YD1GJhdu/UAIdbrgbYl5SWXeOev0FT1w3Lq8Mf8d3/crwQwkyQCsF4PtJ1RXnK5pK94abm8sx4JaAnRB6Bv6eC5pZK7y0srrGcBWk3JeoDj827TsqE+V3KDPPjzsmnJ0HvF07ymiPIZwIblO09qmxq+z0uXWc+C5vPt/uObysN9C0d974Bc1XqeVhbdM4De0/d2tU0t2ike/Fnz0lXj5eHtA/LR/RttJVEdbu+KvR3zOqZ2SFprPQvsEYHGi+pgu557ZZuTX2c9B+JBBBormkPtqwx/UnLXWM+B+BCBxoniQK874/dvd776Pes5EC8i0BhRHGZn+/StkltsPQfiRgTqz/wgNywdfJeXLreeA2kgAvVlfohtJW1WpL+PgDgRgfoxPcBrux9eILlPWc6ANBGB+jA9vM75b7lM0gLLGZAuIlA724Pz/mLT6yN5RKA2hofmneQvsLs+WgURKM7swL5QfrTCj/5QL0SgGLPD6nDTZ1tdG62JCISzO6iqlpldGy2LCIQxOyTvdLLVtdHaiMDc2QXAq8vq2mh9RGBuzA7HlfiLQWMRgRPjYNDSiMDsOBS0PCJwfBwIskAEZsZhIBtE4M04CGSFCLwRh4DsEIHXZX8AyBMROCrrm0feiAABQOZyj0CWNw0cK+cIZHfDwExyjUBWNwvMJscIZHOjwFzkFoEsbhIIkVMEWv4GgSJyiUBL3xxQixwi0LI3BtRDq0egJW8KqKdWjkDL3RDQCK0agZa6GaCRWjECLXMjQDO0WgRa4iaAZmqlCCR/A4CFVolA0sMDllohAskODsQg9QgkOTQQk5QjkNzAQIxSjUBSwwIxSzECyQyKtDg5V/RrvdeRes7STF66aqwyfJfkC99/MxEANEQt699L3h2s5yxN59W7qTx8dwrPBKIfEIlyOrnol3rn9tZzFAupvByIejgkrKpy0S/dOnren7z093qOYyGFlwMEAI3hdHYNX+xLzm+u3zCGvHr7K8M/iDUCBACNUt6wfHd30S/eMrL6V076Vj0HMhNxBAgAGsWVJtsvqOUP2DK66suSvuSll+szkqFII0AA0DBOurjWP2Pr6Krb20v+3XL+Nkl/ljRR+2RGIoyA2SD9lcEBefcNq+ujKQ5NHn7ltDufvTDdB22L4xkAGml+x7zOT1sPgeMjAGgo59zmAT3cbj0HZkYA0GhnvrCs83PWQ2BmBAAN55y75frT9y62ngNvRgDQDG+rdk7eaT0E3owAoCm81/r+8tB11nPgjQgAmmnbpvLQR62HwOsIAJqpzUv39ZcH11oPgqMIAJqtS3I7+5YNrbceBAQANk5yTvdvqgxvG+jZ12k9TM4IAKw47/3G8Ynxob6lg+daD5MrAgBTXlrhSm5P/7LBezYu2XOW9Ty54Vc0EYOSnLui1Fb9TH956EE53bto/sKdA/t6Jq0Ha3UEADFpk3SpvC4dmxif6CsP75av7pYv/c2V9PjUkdLB7kULXiQM9UMAEKsFTn6dnFsn5yVJHe3TGpsYV395yHi0OnP+xq0jqwcsLs17AEDGCACQMQIAZIwAABkjAEDGCACQMQIAZIwAABkjAEDGCACQMQIAZIwAABkjAEDGCACQMQIAZIwAABkjAEDGCACQMQIAZIwAABkjAEDGCACQMQIAZIwAABkjAEDGCACQMQIAZIwAABkjAEDG2A5cIye94KVdkt/vXGnKep4cVL3vdNJSSR+StMh6npQRgOIOeu+/frj7pB9t/8NKHvgGelfs7Zj3/OSVzusmSd3W86SIABTzl1J7+7pv/+v9/9Z+61Hy9Wp4f9h35iO/dtOlnZJ6rGdKDe8BhDv4/wc/orDtiQ/sbyv5iyU9az1LaghAMPc1HvzxuePJ1aPe6QbrOVJDAAI46YXDizvutZ4DMztl/sJ7JI1bz5ESAhDAS7t4wy9eA/t6JiXtsp4jJQQgzIj1AJidl3vSeoaUEIAAXs5Zz4AT8fybDsBhBShJFesZcEIV6wFSQgACePmLelfs7bCeAzMb6NnX6aS11nOkhACEWTTv+ckrrYfAzMYnxj4vaaH1HCkhAIGc1019Zz6yzHoOvFF/ZbjipRut50gNAQjX7aZLO69/52DZehAc1V8ZrjjvH5LcYutZUkMAiumZrrrH+ipDVw/07Ou0HiZXAz37Ovsrw9fIVx/z0jnW86SIDwMV1+28fjA2MX5rf3lol5dG5f0z1kNlwbl3OKk8NjF+kaSFEj+dLYoA1G6hpI85SfyaAFLDSwAgYwQAyBgBADJGAICMEQAgYwQAyBgBADJGAICMEQAgYwQAyBgBADJGAICMEQAgY3wasEZsB24+tgPXDwEoju3AxtgOXDsCUAzbgSPAduDa8R5AOLYDR4btwMURgGBsB44R24GLIQAB2A4cN7YDhyMAAdgOHDe2A4cjAGFGrAfA7NgOHIYABGA7cArYDhyCwwrAduAkVKwHSAkBCMB24LixHTgcAQjDduCIsR04HAEIxHbgOLEduBgCEI7twJFhO3BxBKAYtgNHgO3AtePDQMWxHdgK24HrhgDUju3ASBYvAYCMEQAgYwQAyBgBADJGAICMEQAgYwQAyBgBADJGAICMEQAgYwQAyBgBADJGAICM8WnAGrEduPnYDlw/BKA4tgMbYztw7QhAMWwHjgDbgWvHewDh2A4cGbYDF0cAgrEdOEZsBy6GAARgO3Dc2A4cjgAEYDtw3NgOHI4AhBmxHgCzYztwGAIQgO3AKWA7cAgOKwDbgZNQsR4gJQQgANuB48Z24HAEIAzbgSPGduBwBCAQ24HjxHbgYghAOLYDR4btwMURgGLYDhwBtgPXjg8DFcd2YCtsB64bAlA7tgMjWbwEADJGAICMEQAgYwQAyBgBADJGAICMEQAgYwQAyBgBADJGAICMEQAgYwQAyBgBADLGpwFrlPN2YLb0po8AFMd24FexpTddBKAYtgMfgy296eI9gHBsBz4OtvSmhwAEYzvwbNjSmxYCEIDtwHPDlt50EIAAbAeeG7b0poMAhBmxHiAVbOlNAwEIwHbgEGzpTQF/SQHYDhykYj0ATowABGA78NywpTcdBCAM24HngC296SAAgdgOPDu29KaFAIRjO/BxsKU3PQSgGLYDH4Mtveniw0DFsR2YLb3JIwC1YzswksVLACBjBADIGAEAMkYAgIwRACBjBADIGAEAMkYAgIwRACBjBADIGAEAMkYAgIwRACBjBADIGAEAMkYAgIwRACBjBADIGAEAMkYAgIwRACBjZgHwVVe1ujYQE8vHglkAnNNhq2sDMXHOTVhd2y4AXv+1ujYQGbPHglkAqiWNWl0biInzGrG6tt0zALl/WF0biInraDN7LBjusvKuvzz8jKRuuxkAcwe3jp5/muS8xcUNfwzovHP6rd31AXte7jdWD37J/PcA3EO21weM+arpY8A0AG0vdf1MktmPQABjh6Zemvyl5QCmAbj9mfcdcnI/tZwBMOP0kzufvdD0G6D9rwL7I7dIOmI9BtBk09UjpduthzAPwJb9H3zCyd1jPQfQTN7r7u8cOO9x6znMAyBJmvabJf+c9RhAkzzffqTzBushpEgCsOXAqv947661ngNoBi9/9R1Pr4ziG14UAZCkbftX7ZD0fes5gMby3902uvrn1lO8JpoASNJTowf6vPQL6zmABnlo0ejkF62HOJbhrwLPrPf0vV1dHZMPSlprPQtQL07adWiq85LtT6+M6mPwUT0DkKTtT688PN0xts457bCeBagL7+8/0jF2cWwPfinCZwCv827TsuGN3uk2SZ3W0wAFHJHzNy8aWfXNAcX5f8CKOABHbVy2Z0WpVL1LXudazwLMmdejcu6araPn/9F6lNlEHwBJGpAvjVX2fFZV/1U5nWU9D3B8/p/eu5tP2X/+fbF+1z9WEgF4zXo90HZGZclH5HW5pHXipQHi8IqXdjqnHz81cuDBHfrEtPVAc5VUAI51bffDC9q7Ota0ubY1XtX3yLuzJJ0q6a0iDGiMSUkvSjoo5x/3VfdX59zuycMv/876Qz1F/Q8mnn4obg62NAAAAABJRU5ErkJggg==;" parent="veElxyi0WQyssnxSMCz9-72" vertex="1">
          <mxGeometry x="37.129999999999995" width="30" height="30" as="geometry" />
        </mxCell>
        <mxCell id="veElxyi0WQyssnxSMCz9-68" value="" style="shape=image;verticalLabelPosition=bottom;labelBackgroundColor=default;verticalAlign=top;aspect=fixed;imageAspect=0;image=data:image/png,iVBORw0KGgoAAAANSUhEUgAAAQAAAAEACAYAAABccqhmAAAACXBIWXMAAA7DAAAOwwHHb6hkAAAAGXRFWHRTb2Z0d2FyZQB3d3cuaW5rc2NhcGUub3Jnm+48GgAADG9JREFUeJzt3V9s3WUdx/HPc/oH1002dEUC284RR1Aa48WGgU0XGN44IkFl/rlQEEwJ4NZOopl/iEVCAghu8w/ouEAMxsA0agjzamImbSdMTYzzHxHaOUgYIK10A9r1PF4MZISu6/M7f77Pc57365Z0v+/v2c6755z28HVK1Ible04uTVbXlJzWeOkcScuddKqX5kvqtJ4ve87fuHVk9YD1GJhdu/UAIdbrgbYl5SWXeOev0FT1w3Lq8Mf8d3/crwQwkyQCsF4PtJ1RXnK5pK94abm8sx4JaAnRB6Bv6eC5pZK7y0srrGcBWk3JeoDj827TsqE+V3KDPPjzsmnJ0HvF07ymiPIZwIblO09qmxq+z0uXWc+C5vPt/uObysN9C0d974Bc1XqeVhbdM4De0/d2tU0t2ike/Fnz0lXj5eHtA/LR/RttJVEdbu+KvR3zOqZ2SFprPQvsEYHGi+pgu557ZZuTX2c9B+JBBBormkPtqwx/UnLXWM+B+BCBxoniQK874/dvd776Pes5EC8i0BhRHGZn+/StkltsPQfiRgTqz/wgNywdfJeXLreeA2kgAvVlfohtJW1WpL+PgDgRgfoxPcBrux9eILlPWc6ANBGB+jA9vM75b7lM0gLLGZAuIlA724Pz/mLT6yN5RKA2hofmneQvsLs+WgURKM7swL5QfrTCj/5QL0SgGLPD6nDTZ1tdG62JCISzO6iqlpldGy2LCIQxOyTvdLLVtdHaiMDc2QXAq8vq2mh9RGBuzA7HlfiLQWMRgRPjYNDSiMDsOBS0PCJwfBwIskAEZsZhIBtE4M04CGSFCLwRh4DsEIHXZX8AyBMROCrrm0feiAABQOZyj0CWNw0cK+cIZHfDwExyjUBWNwvMJscIZHOjwFzkFoEsbhIIkVMEWv4GgSJyiUBL3xxQixwi0LI3BtRDq0egJW8KqKdWjkDL3RDQCK0agZa6GaCRWjECLXMjQDO0WgRa4iaAZmqlCCR/A4CFVolA0sMDllohAskODsQg9QgkOTQQk5QjkNzAQIxSjUBSwwIxSzECyQyKtDg5V/RrvdeRes7STF66aqwyfJfkC99/MxEANEQt699L3h2s5yxN59W7qTx8dwrPBKIfEIlyOrnol3rn9tZzFAupvByIejgkrKpy0S/dOnren7z093qOYyGFlwMEAI3hdHYNX+xLzm+u3zCGvHr7K8M/iDUCBACNUt6wfHd30S/eMrL6V076Vj0HMhNxBAgAGsWVJtsvqOUP2DK66suSvuSll+szkqFII0AA0DBOurjWP2Pr6Krb20v+3XL+Nkl/ljRR+2RGIoyA2SD9lcEBefcNq+ujKQ5NHn7ltDufvTDdB22L4xkAGml+x7zOT1sPgeMjAGgo59zmAT3cbj0HZkYA0GhnvrCs83PWQ2BmBAAN55y75frT9y62ngNvRgDQDG+rdk7eaT0E3owAoCm81/r+8tB11nPgjQgAmmnbpvLQR62HwOsIAJqpzUv39ZcH11oPgqMIAJqtS3I7+5YNrbceBAQANk5yTvdvqgxvG+jZ12k9TM4IAKw47/3G8Ynxob6lg+daD5MrAgBTXlrhSm5P/7LBezYu2XOW9Ty54Vc0EYOSnLui1Fb9TH956EE53bto/sKdA/t6Jq0Ha3UEADFpk3SpvC4dmxif6CsP75av7pYv/c2V9PjUkdLB7kULXiQM9UMAEKsFTn6dnFsn5yVJHe3TGpsYV395yHi0OnP+xq0jqwcsLs17AEDGCACQMQIAZIwAABkjAEDGCACQMQIAZIwAABkjAEDGCACQMQIAZIwAABkjAEDGCACQMQIAZIwAABkjAEDGCACQMQIAZIwAABkjAEDGCACQMQIAZIwAABkjAEDGCACQMQIAZIwAABkjAEDG2A5cIye94KVdkt/vXGnKep4cVL3vdNJSSR+StMh6npQRgOIOeu+/frj7pB9t/8NKHvgGelfs7Zj3/OSVzusmSd3W86SIABTzl1J7+7pv/+v9/9Z+61Hy9Wp4f9h35iO/dtOlnZJ6rGdKDe8BhDv4/wc/orDtiQ/sbyv5iyU9az1LaghAMPc1HvzxuePJ1aPe6QbrOVJDAAI46YXDizvutZ4DMztl/sJ7JI1bz5ESAhDAS7t4wy9eA/t6JiXtsp4jJQQgzIj1AJidl3vSeoaUEIAAXs5Zz4AT8fybDsBhBShJFesZcEIV6wFSQgACePmLelfs7bCeAzMb6NnX6aS11nOkhACEWTTv+ckrrYfAzMYnxj4vaaH1HCkhAIGc1019Zz6yzHoOvFF/ZbjipRut50gNAQjX7aZLO69/52DZehAc1V8ZrjjvH5LcYutZUkMAiumZrrrH+ipDVw/07Ou0HiZXAz37Ovsrw9fIVx/z0jnW86SIDwMV1+28fjA2MX5rf3lol5dG5f0z1kNlwbl3OKk8NjF+kaSFEj+dLYoA1G6hpI85SfyaAFLDSwAgYwQAyBgBADJGAICMEQAgYwQAyBgBADJGAICMEQAgYwQAyBgBADJGAICMEQAgY3wasEZsB24+tgPXDwEoju3AxtgOXDsCUAzbgSPAduDa8R5AOLYDR4btwMURgGBsB44R24GLIQAB2A4cN7YDhyMAAdgOHDe2A4cjAGFGrAfA7NgOHIYABGA7cArYDhyCwwrAduAkVKwHSAkBCMB24LixHTgcAQjDduCIsR04HAEIxHbgOLEduBgCEI7twJFhO3BxBKAYtgNHgO3AtePDQMWxHdgK24HrhgDUju3ASBYvAYCMEQAgYwQAyBgBADJGAICMEQAgYwQAyBgBADJGAICMEQAgYwQAyBgBADJGAICM8WnAGrEduPnYDlw/BKA4tgMbYztw7QhAMWwHjgDbgWvHewDh2A4cGbYDF0cAgrEdOEZsBy6GAARgO3Dc2A4cjgAEYDtw3NgOHI4AhBmxHgCzYztwGAIQgO3AKWA7cAgOKwDbgZNQsR4gJQQgANuB48Z24HAEIAzbgSPGduBwBCAQ24HjxHbgYghAOLYDR4btwMURgGLYDhwBtgPXjg8DFcd2YCtsB64bAlA7tgMjWbwEADJGAICMEQAgYwQAyBgBADJGAICMEQAgYwQAyBgBADJGAICMEQAgYwQAyBgBADLGpwFrlPN2YLb0po8AFMd24FexpTddBKAYtgMfgy296eI9gHBsBz4OtvSmhwAEYzvwbNjSmxYCEIDtwHPDlt50EIAAbAeeG7b0poMAhBmxHiAVbOlNAwEIwHbgEGzpTQF/SQHYDhykYj0ATowABGA78NywpTcdBCAM24HngC296SAAgdgOPDu29KaFAIRjO/BxsKU3PQSgGLYDH4Mtveniw0DFsR2YLb3JIwC1YzswksVLACBjBADIGAEAMkYAgIwRACBjBADIGAEAMkYAgIwRACBjBADIGAEAMkYAgIwRACBjBADIGAEAMkYAgIwRACBjBADIGAEAMkYAgIwRACBjZgHwVVe1ujYQE8vHglkAnNNhq2sDMXHOTVhd2y4AXv+1ujYQGbPHglkAqiWNWl0biInzGrG6tt0zALl/WF0biInraDN7LBjusvKuvzz8jKRuuxkAcwe3jp5/muS8xcUNfwzovHP6rd31AXte7jdWD37J/PcA3EO21weM+arpY8A0AG0vdf1MktmPQABjh6Zemvyl5QCmAbj9mfcdcnI/tZwBMOP0kzufvdD0G6D9rwL7I7dIOmI9BtBk09UjpduthzAPwJb9H3zCyd1jPQfQTN7r7u8cOO9x6znMAyBJmvabJf+c9RhAkzzffqTzBushpEgCsOXAqv947661ngNoBi9/9R1Pr4ziG14UAZCkbftX7ZD0fes5gMby3902uvrn1lO8JpoASNJTowf6vPQL6zmABnlo0ejkF62HOJbhrwLPrPf0vV1dHZMPSlprPQtQL07adWiq85LtT6+M6mPwUT0DkKTtT688PN0xts457bCeBagL7+8/0jF2cWwPfinCZwCv827TsuGN3uk2SZ3W0wAFHJHzNy8aWfXNAcX5f8CKOABHbVy2Z0WpVL1LXudazwLMmdejcu6araPn/9F6lNlEHwBJGpAvjVX2fFZV/1U5nWU9D3B8/p/eu5tP2X/+fbF+1z9WEgF4zXo90HZGZclH5HW5pHXipQHi8IqXdjqnHz81cuDBHfrEtPVAc5VUAI51bffDC9q7Ota0ubY1XtX3yLuzJJ0q6a0iDGiMSUkvSjoo5x/3VfdX59zuycMv/876Qz1F/Q8mnn4obg62NAAAAABJRU5ErkJggg==;" parent="veElxyi0WQyssnxSMCz9-72" vertex="1">
          <mxGeometry x="77.13" width="30" height="30" as="geometry" />
        </mxCell>
        <mxCell id="veElxyi0WQyssnxSMCz9-69" value="" style="shape=image;verticalLabelPosition=bottom;labelBackgroundColor=default;verticalAlign=top;aspect=fixed;imageAspect=0;image=data:image/png,iVBORw0KGgoAAAANSUhEUgAAAQAAAAEACAYAAABccqhmAAAACXBIWXMAAA7DAAAOwwHHb6hkAAAAGXRFWHRTb2Z0d2FyZQB3d3cuaW5rc2NhcGUub3Jnm+48GgAADG9JREFUeJzt3V9s3WUdx/HPc/oH1002dEUC284RR1Aa48WGgU0XGN44IkFl/rlQEEwJ4NZOopl/iEVCAghu8w/ouEAMxsA0agjzamImbSdMTYzzHxHaOUgYIK10A9r1PF4MZISu6/M7f77Pc57365Z0v+/v2c6755z28HVK1Ible04uTVbXlJzWeOkcScuddKqX5kvqtJ4ve87fuHVk9YD1GJhdu/UAIdbrgbYl5SWXeOev0FT1w3Lq8Mf8d3/crwQwkyQCsF4PtJ1RXnK5pK94abm8sx4JaAnRB6Bv6eC5pZK7y0srrGcBWk3JeoDj827TsqE+V3KDPPjzsmnJ0HvF07ymiPIZwIblO09qmxq+z0uXWc+C5vPt/uObysN9C0d974Bc1XqeVhbdM4De0/d2tU0t2ike/Fnz0lXj5eHtA/LR/RttJVEdbu+KvR3zOqZ2SFprPQvsEYHGi+pgu557ZZuTX2c9B+JBBBormkPtqwx/UnLXWM+B+BCBxoniQK874/dvd776Pes5EC8i0BhRHGZn+/StkltsPQfiRgTqz/wgNywdfJeXLreeA2kgAvVlfohtJW1WpL+PgDgRgfoxPcBrux9eILlPWc6ANBGB+jA9vM75b7lM0gLLGZAuIlA724Pz/mLT6yN5RKA2hofmneQvsLs+WgURKM7swL5QfrTCj/5QL0SgGLPD6nDTZ1tdG62JCISzO6iqlpldGy2LCIQxOyTvdLLVtdHaiMDc2QXAq8vq2mh9RGBuzA7HlfiLQWMRgRPjYNDSiMDsOBS0PCJwfBwIskAEZsZhIBtE4M04CGSFCLwRh4DsEIHXZX8AyBMROCrrm0feiAABQOZyj0CWNw0cK+cIZHfDwExyjUBWNwvMJscIZHOjwFzkFoEsbhIIkVMEWv4GgSJyiUBL3xxQixwi0LI3BtRDq0egJW8KqKdWjkDL3RDQCK0agZa6GaCRWjECLXMjQDO0WgRa4iaAZmqlCCR/A4CFVolA0sMDllohAskODsQg9QgkOTQQk5QjkNzAQIxSjUBSwwIxSzECyQyKtDg5V/RrvdeRes7STF66aqwyfJfkC99/MxEANEQt699L3h2s5yxN59W7qTx8dwrPBKIfEIlyOrnol3rn9tZzFAupvByIejgkrKpy0S/dOnren7z093qOYyGFlwMEAI3hdHYNX+xLzm+u3zCGvHr7K8M/iDUCBACNUt6wfHd30S/eMrL6V076Vj0HMhNxBAgAGsWVJtsvqOUP2DK66suSvuSll+szkqFII0AA0DBOurjWP2Pr6Krb20v+3XL+Nkl/ljRR+2RGIoyA2SD9lcEBefcNq+ujKQ5NHn7ltDufvTDdB22L4xkAGml+x7zOT1sPgeMjAGgo59zmAT3cbj0HZkYA0GhnvrCs83PWQ2BmBAAN55y75frT9y62ngNvRgDQDG+rdk7eaT0E3owAoCm81/r+8tB11nPgjQgAmmnbpvLQR62HwOsIAJqpzUv39ZcH11oPgqMIAJqtS3I7+5YNrbceBAQANk5yTvdvqgxvG+jZ12k9TM4IAKw47/3G8Ynxob6lg+daD5MrAgBTXlrhSm5P/7LBezYu2XOW9Ty54Vc0EYOSnLui1Fb9TH956EE53bto/sKdA/t6Jq0Ha3UEADFpk3SpvC4dmxif6CsP75av7pYv/c2V9PjUkdLB7kULXiQM9UMAEKsFTn6dnFsn5yVJHe3TGpsYV395yHi0OnP+xq0jqwcsLs17AEDGCACQMQIAZIwAABkjAEDGCACQMQIAZIwAABkjAEDGCACQMQIAZIwAABkjAEDGCACQMQIAZIwAABkjAEDGCACQMQIAZIwAABkjAEDGCACQMQIAZIwAABkjAEDGCACQMQIAZIwAABkjAEDG2A5cIye94KVdkt/vXGnKep4cVL3vdNJSSR+StMh6npQRgOIOeu+/frj7pB9t/8NKHvgGelfs7Zj3/OSVzusmSd3W86SIABTzl1J7+7pv/+v9/9Z+61Hy9Wp4f9h35iO/dtOlnZJ6rGdKDe8BhDv4/wc/orDtiQ/sbyv5iyU9az1LaghAMPc1HvzxuePJ1aPe6QbrOVJDAAI46YXDizvutZ4DMztl/sJ7JI1bz5ESAhDAS7t4wy9eA/t6JiXtsp4jJQQgzIj1AJidl3vSeoaUEIAAXs5Zz4AT8fybDsBhBShJFesZcEIV6wFSQgACePmLelfs7bCeAzMb6NnX6aS11nOkhACEWTTv+ckrrYfAzMYnxj4vaaH1HCkhAIGc1019Zz6yzHoOvFF/ZbjipRut50gNAQjX7aZLO69/52DZehAc1V8ZrjjvH5LcYutZUkMAiumZrrrH+ipDVw/07Ou0HiZXAz37Ovsrw9fIVx/z0jnW86SIDwMV1+28fjA2MX5rf3lol5dG5f0z1kNlwbl3OKk8NjF+kaSFEj+dLYoA1G6hpI85SfyaAFLDSwAgYwQAyBgBADJGAICMEQAgYwQAyBgBADJGAICMEQAgYwQAyBgBADJGAICMEQAgY3wasEZsB24+tgPXDwEoju3AxtgOXDsCUAzbgSPAduDa8R5AOLYDR4btwMURgGBsB44R24GLIQAB2A4cN7YDhyMAAdgOHDe2A4cjAGFGrAfA7NgOHIYABGA7cArYDhyCwwrAduAkVKwHSAkBCMB24LixHTgcAQjDduCIsR04HAEIxHbgOLEduBgCEI7twJFhO3BxBKAYtgNHgO3AtePDQMWxHdgK24HrhgDUju3ASBYvAYCMEQAgYwQAyBgBADJGAICMEQAgYwQAyBgBADJGAICMEQAgYwQAyBgBADJGAICM8WnAGrEduPnYDlw/BKA4tgMbYztw7QhAMWwHjgDbgWvHewDh2A4cGbYDF0cAgrEdOEZsBy6GAARgO3Dc2A4cjgAEYDtw3NgOHI4AhBmxHgCzYztwGAIQgO3AKWA7cAgOKwDbgZNQsR4gJQQgANuB48Z24HAEIAzbgSPGduBwBCAQ24HjxHbgYghAOLYDR4btwMURgGLYDhwBtgPXjg8DFcd2YCtsB64bAlA7tgMjWbwEADJGAICMEQAgYwQAyBgBADJGAICMEQAgYwQAyBgBADJGAICMEQAgYwQAyBgBADLGpwFrlPN2YLb0po8AFMd24FexpTddBKAYtgMfgy296eI9gHBsBz4OtvSmhwAEYzvwbNjSmxYCEIDtwHPDlt50EIAAbAeeG7b0poMAhBmxHiAVbOlNAwEIwHbgEGzpTQF/SQHYDhykYj0ATowABGA78NywpTcdBCAM24HngC296SAAgdgOPDu29KaFAIRjO/BxsKU3PQSgGLYDH4Mtveniw0DFsR2YLb3JIwC1YzswksVLACBjBADIGAEAMkYAgIwRACBjBADIGAEAMkYAgIwRACBjBADIGAEAMkYAgIwRACBjBADIGAEAMkYAgIwRACBjBADIGAEAMkYAgIwRACBjZgHwVVe1ujYQE8vHglkAnNNhq2sDMXHOTVhd2y4AXv+1ujYQGbPHglkAqiWNWl0biInzGrG6tt0zALl/WF0biInraDN7LBjusvKuvzz8jKRuuxkAcwe3jp5/muS8xcUNfwzovHP6rd31AXte7jdWD37J/PcA3EO21weM+arpY8A0AG0vdf1MktmPQABjh6Zemvyl5QCmAbj9mfcdcnI/tZwBMOP0kzufvdD0G6D9rwL7I7dIOmI9BtBk09UjpduthzAPwJb9H3zCyd1jPQfQTN7r7u8cOO9x6znMAyBJmvabJf+c9RhAkzzffqTzBushpEgCsOXAqv947661ngNoBi9/9R1Pr4ziG14UAZCkbftX7ZD0fes5gMby3902uvrn1lO8JpoASNJTowf6vPQL6zmABnlo0ejkF62HOJbhrwLPrPf0vV1dHZMPSlprPQtQL07adWiq85LtT6+M6mPwUT0DkKTtT688PN0xts457bCeBagL7+8/0jF2cWwPfinCZwCv827TsuGN3uk2SZ3W0wAFHJHzNy8aWfXNAcX5f8CKOABHbVy2Z0WpVL1LXudazwLMmdejcu6araPn/9F6lNlEHwBJGpAvjVX2fFZV/1U5nWU9D3B8/p/eu5tP2X/+fbF+1z9WEgF4zXo90HZGZclH5HW5pHXipQHi8IqXdjqnHz81cuDBHfrEtPVAc5VUAI51bffDC9q7Ota0ubY1XtX3yLuzJJ0q6a0iDGiMSUkvSjoo5x/3VfdX59zuycMv/876Qz1F/Q8mnn4obg62NAAAAABJRU5ErkJggg==;" parent="veElxyi0WQyssnxSMCz9-72" vertex="1">
          <mxGeometry x="120" width="30" height="30" as="geometry" />
        </mxCell>
        <mxCell id="veElxyi0WQyssnxSMCz9-70" value="" style="shape=image;verticalLabelPosition=bottom;labelBackgroundColor=default;verticalAlign=top;aspect=fixed;imageAspect=0;image=data:image/png,iVBORw0KGgoAAAANSUhEUgAAAQAAAAEACAYAAABccqhmAAAACXBIWXMAAA7DAAAOwwHHb6hkAAAAGXRFWHRTb2Z0d2FyZQB3d3cuaW5rc2NhcGUub3Jnm+48GgAADG9JREFUeJzt3V9s3WUdx/HPc/oH1002dEUC284RR1Aa48WGgU0XGN44IkFl/rlQEEwJ4NZOopl/iEVCAghu8w/ouEAMxsA0agjzamImbSdMTYzzHxHaOUgYIK10A9r1PF4MZISu6/M7f77Pc57365Z0v+/v2c6755z28HVK1Ible04uTVbXlJzWeOkcScuddKqX5kvqtJ4ve87fuHVk9YD1GJhdu/UAIdbrgbYl5SWXeOev0FT1w3Lq8Mf8d3/crwQwkyQCsF4PtJ1RXnK5pK94abm8sx4JaAnRB6Bv6eC5pZK7y0srrGcBWk3JeoDj827TsqE+V3KDPPjzsmnJ0HvF07ymiPIZwIblO09qmxq+z0uXWc+C5vPt/uObysN9C0d974Bc1XqeVhbdM4De0/d2tU0t2ike/Fnz0lXj5eHtA/LR/RttJVEdbu+KvR3zOqZ2SFprPQvsEYHGi+pgu557ZZuTX2c9B+JBBBormkPtqwx/UnLXWM+B+BCBxoniQK874/dvd776Pes5EC8i0BhRHGZn+/StkltsPQfiRgTqz/wgNywdfJeXLreeA2kgAvVlfohtJW1WpL+PgDgRgfoxPcBrux9eILlPWc6ANBGB+jA9vM75b7lM0gLLGZAuIlA724Pz/mLT6yN5RKA2hofmneQvsLs+WgURKM7swL5QfrTCj/5QL0SgGLPD6nDTZ1tdG62JCISzO6iqlpldGy2LCIQxOyTvdLLVtdHaiMDc2QXAq8vq2mh9RGBuzA7HlfiLQWMRgRPjYNDSiMDsOBS0PCJwfBwIskAEZsZhIBtE4M04CGSFCLwRh4DsEIHXZX8AyBMROCrrm0feiAABQOZyj0CWNw0cK+cIZHfDwExyjUBWNwvMJscIZHOjwFzkFoEsbhIIkVMEWv4GgSJyiUBL3xxQixwi0LI3BtRDq0egJW8KqKdWjkDL3RDQCK0agZa6GaCRWjECLXMjQDO0WgRa4iaAZmqlCCR/A4CFVolA0sMDllohAskODsQg9QgkOTQQk5QjkNzAQIxSjUBSwwIxSzECyQyKtDg5V/RrvdeRes7STF66aqwyfJfkC99/MxEANEQt699L3h2s5yxN59W7qTx8dwrPBKIfEIlyOrnol3rn9tZzFAupvByIejgkrKpy0S/dOnren7z093qOYyGFlwMEAI3hdHYNX+xLzm+u3zCGvHr7K8M/iDUCBACNUt6wfHd30S/eMrL6V076Vj0HMhNxBAgAGsWVJtsvqOUP2DK66suSvuSll+szkqFII0AA0DBOurjWP2Pr6Krb20v+3XL+Nkl/ljRR+2RGIoyA2SD9lcEBefcNq+ujKQ5NHn7ltDufvTDdB22L4xkAGml+x7zOT1sPgeMjAGgo59zmAT3cbj0HZkYA0GhnvrCs83PWQ2BmBAAN55y75frT9y62ngNvRgDQDG+rdk7eaT0E3owAoCm81/r+8tB11nPgjQgAmmnbpvLQR62HwOsIAJqpzUv39ZcH11oPgqMIAJqtS3I7+5YNrbceBAQANk5yTvdvqgxvG+jZ12k9TM4IAKw47/3G8Ynxob6lg+daD5MrAgBTXlrhSm5P/7LBezYu2XOW9Ty54Vc0EYOSnLui1Fb9TH956EE53bto/sKdA/t6Jq0Ha3UEADFpk3SpvC4dmxif6CsP75av7pYv/c2V9PjUkdLB7kULXiQM9UMAEKsFTn6dnFsn5yVJHe3TGpsYV395yHi0OnP+xq0jqwcsLs17AEDGCACQMQIAZIwAABkjAEDGCACQMQIAZIwAABkjAEDGCACQMQIAZIwAABkjAEDGCACQMQIAZIwAABkjAEDGCACQMQIAZIwAABkjAEDGCACQMQIAZIwAABkjAEDGCACQMQIAZIwAABkjAEDG2A5cIye94KVdkt/vXGnKep4cVL3vdNJSSR+StMh6npQRgOIOeu+/frj7pB9t/8NKHvgGelfs7Zj3/OSVzusmSd3W86SIABTzl1J7+7pv/+v9/9Z+61Hy9Wp4f9h35iO/dtOlnZJ6rGdKDe8BhDv4/wc/orDtiQ/sbyv5iyU9az1LaghAMPc1HvzxuePJ1aPe6QbrOVJDAAI46YXDizvutZ4DMztl/sJ7JI1bz5ESAhDAS7t4wy9eA/t6JiXtsp4jJQQgzIj1AJidl3vSeoaUEIAAXs5Zz4AT8fybDsBhBShJFesZcEIV6wFSQgACePmLelfs7bCeAzMb6NnX6aS11nOkhACEWTTv+ckrrYfAzMYnxj4vaaH1HCkhAIGc1019Zz6yzHoOvFF/ZbjipRut50gNAQjX7aZLO69/52DZehAc1V8ZrjjvH5LcYutZUkMAiumZrrrH+ipDVw/07Ou0HiZXAz37Ovsrw9fIVx/z0jnW86SIDwMV1+28fjA2MX5rf3lol5dG5f0z1kNlwbl3OKk8NjF+kaSFEj+dLYoA1G6hpI85SfyaAFLDSwAgYwQAyBgBADJGAICMEQAgYwQAyBgBADJGAICMEQAgYwQAyBgBADJGAICMEQAgY3wasEZsB24+tgPXDwEoju3AxtgOXDsCUAzbgSPAduDa8R5AOLYDR4btwMURgGBsB44R24GLIQAB2A4cN7YDhyMAAdgOHDe2A4cjAGFGrAfA7NgOHIYABGA7cArYDhyCwwrAduAkVKwHSAkBCMB24LixHTgcAQjDduCIsR04HAEIxHbgOLEduBgCEI7twJFhO3BxBKAYtgNHgO3AtePDQMWxHdgK24HrhgDUju3ASBYvAYCMEQAgYwQAyBgBADJGAICMEQAgYwQAyBgBADJGAICMEQAgYwQAyBgBADJGAICM8WnAGrEduPnYDlw/BKA4tgMbYztw7QhAMWwHjgDbgWvHewDh2A4cGbYDF0cAgrEdOEZsBy6GAARgO3Dc2A4cjgAEYDtw3NgOHI4AhBmxHgCzYztwGAIQgO3AKWA7cAgOKwDbgZNQsR4gJQQgANuB48Z24HAEIAzbgSPGduBwBCAQ24HjxHbgYghAOLYDR4btwMURgGLYDhwBtgPXjg8DFcd2YCtsB64bAlA7tgMjWbwEADJGAICMEQAgYwQAyBgBADJGAICMEQAgYwQAyBgBADJGAICMEQAgYwQAyBgBADLGpwFrlPN2YLb0po8AFMd24FexpTddBKAYtgMfgy296eI9gHBsBz4OtvSmhwAEYzvwbNjSmxYCEIDtwHPDlt50EIAAbAeeG7b0poMAhBmxHiAVbOlNAwEIwHbgEGzpTQF/SQHYDhykYj0ATowABGA78NywpTcdBCAM24HngC296SAAgdgOPDu29KaFAIRjO/BxsKU3PQSgGLYDH4Mtveniw0DFsR2YLb3JIwC1YzswksVLACBjBADIGAEAMkYAgIwRACBjBADIGAEAMkYAgIwRACBjBADIGAEAMkYAgIwRACBjBADIGAEAMkYAgIwRACBjBADIGAEAMkYAgIwRACBjZgHwVVe1ujYQE8vHglkAnNNhq2sDMXHOTVhd2y4AXv+1ujYQGbPHglkAqiWNWl0biInzGrG6tt0zALl/WF0biInraDN7LBjusvKuvzz8jKRuuxkAcwe3jp5/muS8xcUNfwzovHP6rd31AXte7jdWD37J/PcA3EO21weM+arpY8A0AG0vdf1MktmPQABjh6Zemvyl5QCmAbj9mfcdcnI/tZwBMOP0kzufvdD0G6D9rwL7I7dIOmI9BtBk09UjpduthzAPwJb9H3zCyd1jPQfQTN7r7u8cOO9x6znMAyBJmvabJf+c9RhAkzzffqTzBushpEgCsOXAqv947661ngNoBi9/9R1Pr4ziG14UAZCkbftX7ZD0fes5gMby3902uvrn1lO8JpoASNJTowf6vPQL6zmABnlo0ejkF62HOJbhrwLPrPf0vV1dHZMPSlprPQtQL07adWiq85LtT6+M6mPwUT0DkKTtT688PN0xts457bCeBagL7+8/0jF2cWwPfinCZwCv827TsuGN3uk2SZ3W0wAFHJHzNy8aWfXNAcX5f8CKOABHbVy2Z0WpVL1LXudazwLMmdejcu6araPn/9F6lNlEHwBJGpAvjVX2fFZV/1U5nWU9D3B8/p/eu5tP2X/+fbF+1z9WEgF4zXo90HZGZclH5HW5pHXipQHi8IqXdjqnHz81cuDBHfrEtPVAc5VUAI51bffDC9q7Ota0ubY1XtX3yLuzJJ0q6a0iDGiMSUkvSjoo5x/3VfdX59zuycMv/876Qz1F/Q8mnn4obg62NAAAAABJRU5ErkJggg==;" parent="veElxyi0WQyssnxSMCz9-72" vertex="1">
          <mxGeometry x="200.87" width="30" height="30" as="geometry" />
        </mxCell>
        <mxCell id="veElxyi0WQyssnxSMCz9-71" value="" style="endArrow=none;dashed=1;html=1;dashPattern=1 3;strokeWidth=2;rounded=0;fontColor=#7F00FF;labelBackgroundColor=light-dark(#7d1fbd, #ededed);strokeColor=#7F00FF;" parent="veElxyi0WQyssnxSMCz9-72" edge="1">
          <mxGeometry width="50" height="50" relative="1" as="geometry">
            <mxPoint x="157.12" y="15" as="sourcePoint" />
            <mxPoint x="192.87" y="15" as="targetPoint" />
          </mxGeometry>
        </mxCell>
        <mxCell id="veElxyi0WQyssnxSMCz9-78" value="Related Articles" style="text;html=1;align=center;verticalAlign=middle;whiteSpace=wrap;rounded=0;fontStyle=1;fontColor=#7F00FF;" parent="1" vertex="1">
          <mxGeometry x="947.42" y="631" width="176" height="20" as="geometry" />
        </mxCell>
        <mxCell id="veElxyi0WQyssnxSMCz9-193" style="edgeStyle=none;rounded=0;orthogonalLoop=1;jettySize=auto;html=1;exitX=0;exitY=0.5;exitDx=0;exitDy=0;entryX=0.991;entryY=0.614;entryDx=0;entryDy=0;entryPerimeter=0;" parent="1" source="veElxyi0WQyssnxSMCz9-66" target="veElxyi0WQyssnxSMCz9-240" edge="1">
          <mxGeometry relative="1" as="geometry">
            <mxPoint x="852.7300000000002" y="607.7199999999999" as="targetPoint" />
          </mxGeometry>
        </mxCell>
        <mxCell id="veElxyi0WQyssnxSMCz9-231" value="" style="group" parent="1" vertex="1" connectable="0">
          <mxGeometry x="487" y="635.5000000000001" width="147" height="140" as="geometry" />
        </mxCell>
        <mxCell id="veElxyi0WQyssnxSMCz9-232" value="" style="rounded=0;whiteSpace=wrap;html=1;fillColor=none;dashed=1;dashPattern=8 8;" parent="veElxyi0WQyssnxSMCz9-231" vertex="1">
          <mxGeometry width="143" height="140" as="geometry" />
        </mxCell>
        <mxCell id="veElxyi0WQyssnxSMCz9-233" value="Fact 2" style="text;html=1;align=center;verticalAlign=middle;whiteSpace=wrap;rounded=0;fontSize=9;fontColor=light-dark(#000000, #ff9fff);fontStyle=1" parent="veElxyi0WQyssnxSMCz9-231" vertex="1">
          <mxGeometry x="7" y="15" width="80" height="30" as="geometry" />
        </mxCell>
        <mxCell id="veElxyi0WQyssnxSMCz9-234" value="Fact 1" style="text;html=1;align=center;verticalAlign=middle;whiteSpace=wrap;rounded=0;fontSize=9;fontColor=light-dark(#000000, #ff9fff);fontStyle=1" parent="veElxyi0WQyssnxSMCz9-231" vertex="1">
          <mxGeometry x="67" y="35" width="80" height="30" as="geometry" />
        </mxCell>
        <mxCell id="veElxyi0WQyssnxSMCz9-235" style="edgeStyle=none;rounded=0;orthogonalLoop=1;jettySize=auto;html=1;exitX=0.75;exitY=1;exitDx=0;exitDy=0;" parent="veElxyi0WQyssnxSMCz9-231" source="veElxyi0WQyssnxSMCz9-234" target="veElxyi0WQyssnxSMCz9-234" edge="1">
          <mxGeometry relative="1" as="geometry" />
        </mxCell>
        <mxCell id="veElxyi0WQyssnxSMCz9-236" value="Fact 3" style="text;html=1;align=center;verticalAlign=middle;whiteSpace=wrap;rounded=0;fontSize=9;fontColor=light-dark(#000000, #ff9fff);fontStyle=1" parent="veElxyi0WQyssnxSMCz9-231" vertex="1">
          <mxGeometry x="11" y="54" width="56" height="30" as="geometry" />
        </mxCell>
        <mxCell id="veElxyi0WQyssnxSMCz9-237" value="Fact 4" style="text;html=1;align=center;verticalAlign=middle;whiteSpace=wrap;rounded=0;fontSize=9;fontColor=light-dark(#000000, #ff9fff);fontStyle=1" parent="veElxyi0WQyssnxSMCz9-231" vertex="1">
          <mxGeometry x="61" y="69" width="80" height="30" as="geometry" />
        </mxCell>
        <mxCell id="veElxyi0WQyssnxSMCz9-238" value="Unclustered facts" style="text;html=1;align=left;verticalAlign=middle;whiteSpace=wrap;rounded=0;fontStyle=1;fontColor=#7F00FF;" parent="veElxyi0WQyssnxSMCz9-231" vertex="1">
          <mxGeometry x="9" y="110" width="132" height="20" as="geometry" />
        </mxCell>
        <mxCell id="veElxyi0WQyssnxSMCz9-240" value="" style="shape=image;verticalLabelPosition=bottom;labelBackgroundColor=default;verticalAlign=top;aspect=fixed;imageAspect=0;image=data:image/png,iVBORw0KGgoAAAANSUhEUgAAAQAAAAEACAYAAABccqhmAAAACXBIWXMAAA7DAAAOwwHHb6hkAAAAGXRFWHRTb2Z0d2FyZQB3d3cuaW5rc2NhcGUub3Jnm+48GgAAIABJREFUeJztnXl4G9XV/7/nSrbsJEDCDqUvSxKgNcSWrZGTsCWFUrYCfVm6AIUWyp6WEBLJhhax2XLYy1ZogUKgfUtadii0lCQsSSzJkhwwpGQB+qOE0hICZJFtzT2/P+y0NHiuRo6kGcn38zx5HvA5996vNJ7jmbucQ6hgrgh2790POZcY3wAgATwlsxyam2p8X9VuTqB7P0FyLoDDCehl4sepH+H2VOM/SyLcJqFgsp4YxwOYBqbdQPgSgG2d1pUHJhhvQeCmaMz/q3waXm689mUJcy6DjwawXZH0bcmnYPwdxGsYWATCEx2xxu4SjV0UyGkBxaK1+bVdpMymAOz2+Z8z8Dak6e/oCnwyVLvL/ck9TS91AdhhC9MbNdI0Il2BjUWSbJtwMP0tMF8L4KtOaykURAi1x/xz7fjOnNKzvS/blwLwP0WWZYceIlzRHvM/7rSQ4SCcFlAsJGdnYYubHwAI2BvkuciyXRVa8MWbHwC+miHvDwsoMW/Ck1N7hY3UK2B+FBV08wMAM66cc9Dybez41mT7fwJ33PwAUMeMx8LB1Mvhyam9nBaTLxUbAMAwFFZLm1S2Y1WfRaUl2H0ITMQAHOSUhiIzCtkNdXYcmThQbDF5wzgYJmKhpvTBTkvJh8oNAKAaSwspbMp2sLQVkxYjeRizfAHATk6MXyo87Flry5HxcZGlDJedSPBfQkbyUKeF2KWCA0BlEDaW7cOg3wOodlpLMSEg1h5reMuOLxPNK7aeraCaQL8vl9cBHQBcDRPB/C2AHZ1WUlQIK7PS/J5d945Yw/NgRDCwsuNGdoJJvwXY9ZPsXqcFaKwJG92nMhDM7UkZMP+FCSsI3Ft8ZQWCKMNMb9SO+vjJyMLpmXyaRhP+q+ZM7nqETHEkgb8w2VsMGOQjwr5g+hrAOV4HeXI4mD45GsP8UmgbLjoAuJQIWGQofS1Y6cYA3UbUe3V7vPmjEklzDXOXNr0J4M1Sj9sS7NwB0nclE18M1VI647oI+A8RkFufVHQAcCsbm5NBIcUEhQsz8VkdMf+DJROlAQC0x5o/AvDjsJFKArgP1kFgYm/TMgNd6CyduvzQcwAuRUg6Ue1BN3XEGvXN7yDRuP/XINyidBKc4zo6iw4AboVomsL6GcvsNaWSorGmpg9Xg7Deys7AtBLKyRsdANwKYw9LE+F5q63MmtISSfvXgel5aw/+cunU5I8OAC4kAhYAdrGyE9BTQjmaHOS4HruccsojnpKJyRMdANxIc+cYKCZoCfRpCdVocsCMdQqzd5/V+4wpmZg8qbhVgMsmdY+uquHzmHm/QvfNwNRwMHXOWtN84J6uQH+h+9doSk1FPQG0BNPHeX3ydWa+EcC4IgyxBxi/3F54XgsHu79WhP41mpJSEU8Ac5q79yBT3sZsd8mFVdtr1FtvBtgPLF8IG6l74fPMib4yya2HUzQaJWX/BDCnuWuykDJBBNvrrcxkmRGIAGW2oP92xTnoNTtbgul97Y6t0biJsg4AISN9qpDiRShmzIdCkLQ+Tcac70mziWBeEg6kpuXZTqNxnLINACEj9RMC/x+A2jyaZYkQao83LrJyaE/4HwJwK+y9CgADjtuD8HxLIHlyHlo0GscpywDQEkieTMBNsJ/T8BOAfi5ZHJA77xxxNO6/RACNDNwPYJPNMaqZxLyQkZpq01+jcZyyCwAtTd3NTPQgbGgnYC2YZmR7xZei8YafzE3U/9XuOG1xf7oj7v9hr7d6D4B/BluBgGsIeHx2U2K83XE0GicpqwAw24jtykI+ATuP/UTz+qvEV6KJhttvWFa/Ybhj3rykbm003ngN4DkAwB9tNNnJI7xPR5oSo4Y7pkZTKsoqAHjgvQW5J/yyIL4gGmv4/g2L6z8s1NjR+KTV0bj/GAYuQc5MNLx/RoifFWpsjaZYlE0ACBtdRwH07RxunwhBR0Zjjb8olo6OuP9WgL4HoE/tSZeGmpYdWCwdGk0hKIuNQDOnLK5FVtyRw60f4JPbOv0Liq0nGm/4XUswVcOM+2E9EVlFwvwFwAcDZHtFoZjMbk5NFMxHEYRrXk9IylW+MZ88nW9KME1hKIsA4DNrzgSwj8qHiC9ojzW+YKe/UFNiO0Hi6xK0rwDtysSSCO9D8nIfyxfsVP9pj/kfCBvp8QD/VOE2NWwkvxGN4zk7uopJOJCaDYk2gLx5rHAWHSZCZsPYFWFj2VHR+KTVTusZaZRFAADjwhwOv2uPNd6bq5twc1cTpIgAOJKBagLAgzcDMwAiZMizscVIPZ4ViFzf6V+h6q8mXh/JGOnDAVgv/bG4GHA2AAzmqe+Ae0vBTQSZvwEw2WkhIw3XzwG0NqenA6R6l/7U4xWzVH3MnLK4NmSk7oMUcQDHQZ1jfxQD3/NI9ISNVJvqLHcEJAWL8wBYnwwkHOP0VmECnQb33vwDMJqd/p5GIq4PACz5fJWdgGuuW9Lwdyt7a/Nru9RkaxcS8APkdxNUAWgZ/+7EJy+b1D3ayqktUf86AfeoJDL4nDzGLThM2N7J8e1iklkWOisJVweACFgw8HWFy0b2eSwf/SPTFtRIzj5hL7e+BYxjvD45T1XkgU15C1RLgxLfGPb4BYBACSfHt8lGeEfrTEclxtUBIBPorofiXD8Rz1Mdxe3duN0tYDQXQMq3wsHuOVbGaLJpJYH/bNmacOCspoRj1X1qKHMXAaucGt8WRFfPfXX/z5yWMdJwdQBAjoyqDM8jVrbWQPcBzFTAR2++YrYR29XSTMoKMFTt8ThWNTbSOflTM8uHAngIgJuSiZpgvEnAudFYQ4fTYkYi7l4FIGUp7L4as3+plVGSeQVAdpIx/gsD7/vbKb0YYwRXzQQQGtKc5UXwWE8xSMmHAHjchp6iMDfV+D6AM5waX+NO3B0AwP+jMCas1usHNg7Rcequ8ScBMastUf86AISM1FQC/RzgJqsmgnASLAJANNm0Mmyk/g7gS0PZiXB+2EjZSlqSka5/MtNUCK7+RWNVVVzGSiuTL+s7DIDlzD0zFtSMWXfs5psfADri/sU1G6umga1rzTEwfk6g2zrZKKvSQ9MoDGxmsvNvL+t+NJrC4eoAQIoAwOB/Wdtob1W/gkVLZOH07JY/j/TUrWfw1WpNpvWORLKdTkyjcQWuDQAzJqzwAdjGyk5ElgGAIFTlorO+rklxK6OXql5V6RICu1saiS1LRGk0bsS1AeADfyoLxdo6g6usbcqTegLTFlruBJRkKnMNSBa9VjZiW5OOGo1rcG0AmD//VJNgXXFFsLB8PRAk1yi6Fpn12x1raWU+XqWLyDqjMAPbqtpqNG7DtQEAAHhgiW5oCDtZ2kzP65Y2ABB04xx/8guP8q2B7gMkcLmipTS59w1rs3LVQqNxHS5fBsQ/AQx5QITBk6wa+bomxTNGeg2AoecCGHsKr+hqCaQ6iLAwS+wlxjESchYp/4pT7Pp48IOhLJFpC7yZDVSv+CyrAdg6royBw0pn2fTVaIaNqwMAA28RLDcDfeWyqd07D5X2KwKSIaQeJuAyRe+7MuFmBiCst/n/dwvmh6xsGzdu1yAUwYPBD3TEG5UrDJuJNC/dNiN9Z9kSlQennPKIZ/zfxjdAUjHKppU3gj9e9T+r0vPnn2o6LaWUuDoACMIiZvzAwkyefp4GYMjtwOTztKHXPBsFqhHIwNsb1435lZVdSJquOmsoAMtaBKUgHOz+Gt4xfw2Qq+vVO4YkjH9nwv8LB7vPisbqX3RaTqlw9xyAUN80RHymlS36yqSPmamlQFIkQV5428qJlisAIHxf0b43483ECqQlb8KNXRPA8ml98+eCvgyWT89uTk10WkmpcHUAiC71vwPCu5YOjKNVSSQ6Eg13g2nrE4QStUbjTZZZfVqN5OEADlD0sPTmJVPtFhgpOOwR5yG/CkojmVqPpPOcFlEqXB0AAIAZjynMBMhLVe1X7f3WxQAP96SZCaJwrpNqDMxW2YmdOwQ0ACvzKWq2ZOR8X64PAFKat0O1IYjpRy3B5BQr+/z5p5rReGMYzN8D8J79kWk5wEfluvlbAsmTGWSd8IOwXrJ5v/1xiwCT5bkJzRCQ9TmTSsP1AeD6rsAqAM8rXIRkuvPcpoTlzkAAiCYaf9vr3bTvYGGPJRg6qPQDeIFAP6wZ/fGB0bg6y3CoKbEdE92i/ACSHuroCjh6Bp/IczeAYVdHGmFsBHuKVlfCbbh6FWAzxLidCUdb2oGGceS9C4AyAcjge/itAG5tCXbuALNmgiS5K0hIEtn3Ocsr7d6skWkLvL0bxO/Y4vjvIMyE2+30V0yi8UmrQ0byGALdjxzp1Uc4qxn8g44RlJ68LAJAe8L/bNhIvQDgCCsfIj47bKRWReP+dlt9xpo/AvDRcDVlNoy9A1Dn+mOm+zoSDa7Ic9cRb3wpAp64yej+CkGqDkuNSBhiTW28/s0IKEfZt8qiLAIAAMCUF8DjeQ3gGoXXdWEjuV1N3N9arAs5sONv7K0Azs3h+lGWs+FiaBguEZBEHD2AKm+BZiTh+jmAzUSTTSsB2ZbDjQAK9RrpeTOnLC74stfMKT3bb9ow7jkgV6ESgIkvvbErYH2WQaNxAWUTAACgZqOvA8DiXH4MfM+XrX09FEhazhvkB1NLIHmGL9v3JoEPzz0+P9oR888rzNgaTfEoqwAQ6anroyyfaDPF9T5E9Gw4mHo8HEhNG9Z4YBEyur8ZNtILmehBADvnakNArFbKM9xSEFSjUVE+cwCDtKca/zkn0H2sh+Riho2KN4wTQDghbKR6APr5qr3eujfXgY/ItAU1vRvHXbiJ0xcToEwv9t9D4W0hvMdH4v6cxUU1GjdQVk8Am5mbqP+rKeSxUOUL+CJ1AN89/t2JT6rq/V02qXt0ZsPYl5j5xnxufgCrBdFRbZ0H/iOPNhqNo5RlAACAuZ1NS01pTgbw17waMo6Z8O7E063MXp95KQAjTzmLKcuT22MNb+XZTqNxlLINAMDgLkGfZwrAeR3fZGbF5CDlN3HI+G3N6HWHt6ca/5lXO43GBZTdHMCWDNQG5CNCwdQZxHQTgB1ytxKqKkDqCkH/YQ0ThzvijQ/a9NdoXEdZPwH8B+KOWOODQnjrQDQPQDFn4CWAe2pE7/4dMX3za8qbsn8C+DyDE3Dfb23uukFK8QQKXmGHugBxanQE7RXXVDYV8gTw37R1Ni0DaMjknVsDgVeV5OZfv41yGzOztJfEUFMaSCrvI64Z49rzBRUZAMqdSE/degCqDELWKdE1TqC6Hpvmvrr/ZyVTkic6ALgXRXETai6dDE1uyDIhDcHd9SJ1AHAvqleNQ1S5EDWlY7BatFXqejDwdgnl5I0OAC6FiP6oMHtY8m2qHY2a4nPKKY94BMnbAVhfB6ZnS6cof3QAcClZM/uE0oFw5Ph3Jt4bqeuxLHSqKR4zJqzwjX974n1QJKkBAJBQX0eH0QHApQzmQsxVSuzMTG1fPBRInTBYTl1TZGZMWOFrCaZOHD3us3iOWhAg4M9uXzKuqH0AFYeQYUgRBxQ1hwiTCHh89Lj1n4WN5DsA6cNIRYN3Aa3fmxljVJdkEMlMoVKo2hp0AHAx0c6mrnAweT+YfmjDfRuADgRwYLF1jVzI9h5TBu7tSDSkiqtn69GvAC6nZtQnFxHgWFkxTf4wOFkrzUuc1mGHig0ABKlI762yuYvIwukZ4aX/hXpZUOMeVnMW34x0BcoiKUzFBgAwWdbyA1Q293Hdkoa/93qrjXyPPWtKDOGVbJWYMjfV6OrNP5+nYgPA+nVj7gL45SFMf1y114qyS9h585K6tWulPIrBV4Kw3mk9ms9BWA/wz9aa5tduWFz/odNy8qFiA8BtKyf21mz0HQGmGQA/BcITBJxbM3rd8blyArqVe7oC/R3xxqsFeScAuLUYB540+UAfALhVkHdCNN54zT1dgX6nFeWLPlW2BQPJQ/HVoWwEPNIe93+7xJIsiYBFbzDVLBmHCRa7M/EeALZxWlcF8xkxvSdJvi8Ii3wxf2e5VxLSy4BlTAQkEcMSDBQ71WjypmJfATQaTW50ANBoRjA6AGg0IxgdADSaEYwOABrNCEYHAI1mBKMDgEYzgqn4fQCRaQu8mfXjDhQe06zubHy93DduaDSFpKKfAELB1LGZDWPfBXFSStGdCaZXtzanpzutS6NxCxUbAFqNVAMxHgOw+79/yNhTSn4m3Ng1wTllGo17qNhXAEk8A0xVQ5hqWdAFAGaVWlOhmTmlZ/vqbP8xYEwjwbtBYg8Qxjitq2JhrIfAeyxpjYBclKnyPXPzkrq1TsvaGio2AIBpPysTwdpWDoQDaT/A1yDb9w0AXhAGUlXpo13FZeB7nkTEYNDZvmxfNmyknhPAT9vi/rTT8oZD5QYAkMcygRtRWebTjzSkxmaqcDvA30UFv76VEV4Ax0ngmHAw/XBNH/84kvavc1pUPuhfojKhJZjeN1OFTgCnQV83tyHAfEamCkvLrWKT/kUqA1oD3Qcw81IAZfXLNQLZj5mXhox0ndNC7KIDgMtpCXbuIIV8DMA4p7VobDGOwE+3+JNlUcFZBwCXw1w9Dwy9bFle7MVeus9pEXao4EnA8mdOIPV1AEfbdH8DhBVg6MpAxYKwCyT2BeErNryPazWSh7fFG/9SdF1bgQ4ALoaIozbW9p5kUGtHvKGnFJo0A3Myksw2gL6p8pMQHQACJZI1LPQrgEtpbe6aRKBGlQ+Dr4zG/Sfom7+0tCXqX4/G/SeAcJXak5tCTctcXapNBwCXIiWdoHQgmtcRb7y6RHI0X4A4GvNHCPiN0k1I9XV0GB0A3ArRkQpjRphZ11eeHQmYWZ4NoNfKTpCK6+g8OgC4ly9bWpj/0tYVWFNCLRoL5qYa3wfBeqKP6H9KKCdvdABwJUxg7GZlJWLXl50eUUhYXw/G7hGwa+8z1wobycw56K9jAFRbOpD4uHRqNLmhjxTGKjR3uvaEZsUFgAhYhIPpbwHYq9B9M1DfaiQPL3S/WzIqu06f66sgNmW9rr2eFRUAQsFkfcZIvwLmRwHetQhD7CdBL4SN5F/mBLrL+kixRgNUyEagSF3PmMzovqvBmIGSfCb6miCZCgVS19Zuqr4h0lPXV/wxNZrCU/ZPAGFj2T6ZUf1xMGbC9s3P/1IYVbbPU0uE6zKj+l4sl4MfGs2WlHUAaAmkDgLMToD3z6cdEf5gaQNb2iw4iL20dM7kLjv7wzUaV1G2ASAcSJ7EA+uvO+bVkOkX7TH/41bmj6S8C8CTecrZh0yxONSUPjjPdhqNo5RlAGgJdh8CoocB+Gw2kQCelowjo4mGC1SO93QF+qPxhhNB9L8AFtrVRMBYIfgJPTmoKSfKLgDMbk5NZJaPwd7N38/MN8GD8dG4/5tzE/4/2xuFOBpreCwa909n0AEM3A/LBIP/gYHtPSSf0XMCmnKhrAJApHnpth6JZwDskNubXybBDR2JxlnRpf53hjtmR7yhpyPu/yExDgH4tZyjAuPZS49Hpi2oiBUWTWVTVgEgw9XXAZiYw40BuiYa9x/W3tn4RqHGbk/4X63Z6AuA2E6ml6m9G8ZeUqixNZpiUTYBYE4gHQTThTnc+oj5zGi84WcA5Xxkz5dIT11fNNZ4NojCyPFKwEDkcn9yz0Jr0GgKSVk8pp5yyiMe8Q7/AuqAxcR8TnuicV6x9URjDR3hYMoLxrUKt9Gml+4CcEyx9dgl1JTYTni8h4B5NwY5vj2VSWYYeGNurDHhtJaRSlkEgPHvTPwOAL/SiXGV3Zs/AhaZ5qQfJu1LoF1ALJloDZue5R1dk3K+5wNANOa/riWY/DIznadwOzpkpKZ2xP2L7fRZTMJG+tsA38PM2w78pOAPSHlDTCAAYSP1Ur80T7qxK2B3E5amQJRFAACQ49GfX4wm/Dmz41w+Jf0l2Y9QhtInQ4rdQJtvg4H/IGEiZKTeJsZvUOO5MfrKJOWpO98G348ztX2HqpJEEuNiAI4GgFAwWQ/mh+De631olfA8CBc9LY0UXD8HMFAHD1MVLr0k5UWqd/4IWISN5E/NLL/FxDMAxVl7YG8QLqdec2WLkfqRSlukp66PhDgPqj+nhJMvn5L+kqqfYiOkOBvuvfk3c7SeMyk9rg8AEPJipZ1xQ3tXYLmVOVLXMyYTTD8K0NUARtkdloHtGbgnHEjfpVrSa4/Vvwx1XriqbFaebXfcYiBJOhqA7CKrPlfKXVMSXB4AmMB0rMKhX5p8p5UxAhaZUX2/BWP4iRmJz+/dMPYWpQ/TjSqzgPIzFB2CKIeswf1A/1tOixhpuDoAzJmc3B/ALpYOjN/PTTW+b2XuNbqvBHDc1upg4KIWI/0DK3s00ZACsETRvnHOQcu32Vodw8VE352wf8rRKe5sjzWrMutoioCrA4CQdJjKToIsH70v9yf3ZHDBMucyuCPSvHRbSzvjYUVzr+jbcFChtOTL9fHgBwyaBuBVpzQo+AxA+6q9VsxyWshIxN0TQ5IOVRTGMaWZfdnS6KUrYP+wkB12yrBvBoDrhjJ6IBZJSEVzcSiA5wqoJy8Gi4ccPHNKz/a+rDnWKR2fx5PNmlV9vjWRnro+xJ1WMzJxdwAQ2Md6fp3SHV2BT4aynNuUqAJwkrpzfo3huZyrfQv7pVnly/YdDaANgHUaZ+ZvwyIAtCUm9YSN9IcAdh5aLp0dNlKGWtMAGVm863Lzkrq1ANYWq39NeeHuAKA89MOWM/87er0HS8mW5bQZSNdu9B0S6alb/7kfP9zalHhRCk8MwB5Dt6QDw5NTew19uIgYSL4O0NeGHpR3BnCElSaNxglcPQcAhuWxWgb+aWWTUn1giMCzt7j5AQBtXYE1BCg3FMmsom+m91RtNRq34doAEKnrqQZgOekGtg4AYLbc6APArBn9yUIro4fECypdHmG9Vk2Ez1RtNRq34doA8H7NJuVmdRK562ZrNBo1rg0A93QF+hkYcpIPAJgVuQCJVHXzPBvXj51uZcwyf12lixV9M8OxtX6NZji4NgAAAJH15hWC9fwAQf5V1a8AbhhqY84cf3J3gK9UtfX0WffNqoKeGo0LcfcqANO/AJ4wpAlseQLPN/qTV3s3jF3LwPZDOhAmib5NS0KB1OVgc6HwmF7IqmOYcB2g2I/OWHZdqvFdK7FE6QMt2xJ9COZllvb/xgtgmk1fjWbYuDoAEHg1A5OHtlF9pCE1NpL2r9vSFlk4PRsyUn8gQHWar44Ij4M8YPbAzowCA7+zsrUGltVJVYpy5nujcX9r7lEGch9mpM/y9WdrcNNGIDfR6/WsG9wjMaJwdQCQTC8R8fcszJ7eajoYwNNDGb1eusrM8ukAagsk55+1nt7brYwm5GHqGCJfKpCOYREy0nUEvhvZPse2JLsZX9ZE2Ei9Klic35aof91pPaXC1XMAgrOLlA6M06xM1y1p+DsYHYXSwsSXRTonf2plJ4EzFM2zsnq0Y/vwZxuxXQm8EIC++dUcJEkubG1KqJaRKwpXB4D2rqa/AviHlZ3BJ6mSbdQkGq4B4YmtV0I/74g1PmhlbW3qbgSj2bI1kJz76v6O7RHwoPpC5FtBaeSyAwuRK/lsxeDqAAAQM9OQj/iDVJlZvsjKGAHJbEacBuCxrRBxZ83oj5Un1STJy1R2Bqs+Q9FhyDonxy83GDRivi+XBwDAQ2z53j3IparCnDcsq98QjTecxIzLAWzIY+iPwHR2NO6/KLJwetbKKWQkDwXhO4p++kxkf5nHuAVHsPi7k+OXHcQj5vtyfQBoi/vTUJ9j91FW3AGwYg6OuCPhbxPSnAjgVgCWSUQIWAXQNSzN8dFEg7IIyIwJK3wEcTfUawjzr48HP1D1U2ykkPcCsAximv8iK5judVpEqXD1KsBmmPl2IrKcwCLC9HAwfWU0hoiqn7auwBoAlwA8M9ycbGSTJgrQriCWzPg7k1geHTg3b0cVjR6XvhuAsjS5FDLXE0zR6Yg1doeN9OkA3wPV+QrNp8x8XluiMe20kFJRFgFg9d4r549/Z9/LAG6ydGL8LBRMrlZN1v0H4mgnugB0DVdT2EhdAdCZ6mHw7NzOpqXDHaOQROMNvws1JZ5zU2EQt0BgBtEaaWZftsoxUamURQCYP/9Uc04web5gWgrAY+FGxPTLsJES0bj/18XUEwqkWgFcpXQirGfTVJYiLzWDv9yOTkhq3IXr5wA2M1A+iu7I4VYN4P6wkWpTzwkMj0hdT3XYSN1PA1uGlf0T6MqOrsDfCq1BoykkZRMAAKBGZH4KQHnQZ5CWsJF+uTXQfUChxm4Jdh+SGdWXBHCWDfdXfaM+/nmhxtZoikVZBYBI5+RPTWkeC0U2oM9xkCSZDBupW8LGsn2GO2aoadmB4UDqAWa5CEDu9WHCyn5pnqhaOtRo3EJZBQAAuL4rsIqBEwHK2HCvAvATwFwRNlJPzQmklGf9/wNTOJj+VthILSRhLgPh+7B1XAgfmYRjdJFLTblQdgEAADri/sVE/F2bQQAY+JzHCcKfwoH0XSrHc5sSVWEj/TiYHwWgrEvweQhYS8TfvL7Tv8JuG43GacoyAABAe8z/uBTmdAAf5tWQ+PyWYOpEK/MOQlwA4Pj8+sRKEE1pjzVaVgfSaNxI2QYAAJjb2bTUS2IygDfyacdsXTOAQTnqCXyhxcuEvsntsQZd105TdpR1AACAa2P1b2d7RRCE6wH022tFqpNxdk/NbSRCaK2Uh+uadppypSw2AuXihmX1GwDMCTUtm0fC/AWAqUUe8ml4MKN9yAIhGk35UBEBYDMdXZNei4AP6Q2kjmMSdwO8a2FHoOVgviCa8C8sbL8ajTOU/SvAlkRAsj3R+CSAdwrdN4GXleLm3+gdq6yJoCkvar1Z117PigsAlcDcV/dbD6DXys6Sh852rHEEEqyaN+qLdDa7tmKUDgCuhBgEVQ6BhpJJ0eSEGX5LI2HNQOFYd6IDgFthtj5IRDhioIiJxmkGc1KAa79KAAATG0lEQVQOXREaUF9HF6ADgEthiD8pzD7hpbklE6OxxOzn6wH4rOw5rqPj6ADgVqTIlc34tHAwFSnGsWeNHZjCRvpqEL6rdMt9HR1FBwCX0tE16TWA1BmLGFeGA+mnQk3LrEuSaQpOa3PXpLCRfgbgn6r8CEgMXEf3UlH7ACoPGQboz0oXwrFE5rFhI70cxH8FW9dR0GwlhF3A2F9K7GfHnUmEii1pa9EBwMVE440vhI3U0wCOy+3N+4PVCUo1W0l+c/lPRmP1LxZJScHQrwBfgCzLfzFgaSsWvd7qM0FYWepxNcOHgbf7pXm20zrsoAPAlhA/b22ythWLm5fUrWWmEwkYcZVryxEC1rJHHlsuSWF0ANiCmg3VNwBIDWF6rD3h/0Op9QBAR7yhJyswGYw3nRhfYxPGm1mByXOXNpXNddIBYAsiPXXra6R5MIjCYPwJ4KeI+JxVe604xckdXdd3+lcwm1MAPABAOqVDMyQSwK+ZzSnllhGqYteQw0Z6CcCTh7bSc9F4w9GlVVQ4QsFkPTGuAegoDOQ91DhDP8DPCcFXtHU2LXNazHDQqwBlSEessRvA8eGDl41Dr3kMA4cRY3cQ9gCwjdP6KpjPwHiPCe8TsAg+z7PRVyZ97LSorUEHgDJm8Jfv4cF/Gk3e6DkAjWYEowOARjOC0QFAoxnB6ACg0YxgdADQaEYwOgBoNCMYvQxoQWTaAu+mz3b4ChP3zU1MesvNed00muGinwCGoCWYOjGzYezfSJjLBMnl4UC6J2ykDKd1aTSFRgeALWgJJqcw4/cAdvv3DwlfYeBPOhGnptLQAWBLmC4B4NnyxwSMJS/OcUCRRlM09BzAFjBjf6sjUgJkKxVUqYiARW8gPUUCh5Hg3VjSHkQY47SuSoUZ60nweyxpjQAW+RINSyKgsj6ZqQPAlpDyO3HF99XalNiNyduSofS3AexMAMAEqtizne6ACP/+nhlAxkh/2MLp32Wpr+36eFBVyMW1uOIXWmOPSF1PdWZU/xUSfCnAo53Wo8HOTDzDg6ofthjpG30bq66L9NT1OS0qH/QcQJnQEuzcYVNt33ODqaj1ze8uRjP4Z5lRfS9eNrV7Z6fF5IMOAGXAnObuPSRXx4kw3WktGiUHefrl0sFyYWWBDgAuZ+aUxbUeKf9AwN5Oa9HkhoC9s1n5ZKQpMcppLXbQAcDl+LK1dzEQdFqHxj4Easx4xG1O67CDngR0MXOCyQAY37fp/inA7wKkKwMVDd4FoL1gJ+0a01mtTd13tHXVJ4ssaqvQAcDFEIuojeKfKYa4snaj9/lym4EuRyJ1PdW9tb1HSaKrCGhQuAopZAeAr5dK23DQrwAuJdzYNYHAh6t8GLh/rTSbO+L1T+mbvzREeur62hONT9ZurG4G8Osc7kfMbkqML4GsYaMDgFvx0AkqM4GfX73Xih/d0xXoL5UkzX+I9NT1rdprxTkEKIu3ej1e5XV0Gh0AXApDqOoWZLOCZsyff6pZMkGaLzB//qkmiC4GYHkdmNnV9Sd0AHAtvI+lhfFyuVWgqVTaYw1vAXhF4WJ5Hd2ADgAuhYBdLW3EsVJq0eSClyqMuylsjqMDgAuJ1PWMAVCrcPlnqbRobKG6HrVzDlru2mpNFRkAWo1UA4gLHnkleEK4sWtCofv9AmM+U14XIqHTk7kJFsojwZRZ79r7rKL2AbQ2JXaTHm+HZD4DRbhFCNQID70VDqYfIvTObI81f1T4UTSa0uHayJQPEbAIG+lzpfAsB/MZRR6OwHwGs+/1UDD5fRsbdTQa11L2AaAl2LlDxkj/BeC7AWxrr5X8RGFU2T4H70pMD7QY6f+bOWWx6n1do3EtZR0AZjenJjJXLwEwLZ92RPRHaysrbEN4A6f6zNoFrc2v7ZJPO43GDZRtAAg1pQ/2SCwBMDGvhoRnV+654iErc7bXcxOAeF59MpolZzvnTO76Sl7tNBqHKcsA0NKc/CoEPwVghzyavQ7Qeav2XHG8agfdDcvqN9SMXncoEc1i4G3bvTP2FFL8cbYRs1y/12jcRtmtAlw2tXtn2S+fJmCszSaPMfiWjnjjSwBs/W2PLJyeAXBTBHzLpmD6aGJcBjuvGYw9vah6KtKUOCzSFdhoU59G4xhlFQBmTFjh8/ZveAJ2suMQVoLoomhnw5+GO14EJBHDMwCeCQVT3yOmGwFW/oVnIJARnocAPkmXE9O4nbJ6BRg9dn0Y4Mk5HYnm9Xo2Tdqam39LOmL+38Anvprr9Ncg32oJpu0m8tBoHKNsAsDs5tREEIVzuDEIV0Vj9WfevGTqpkJriL4y6eOVe604moA7cvky48YWf3KnQmvQaApJ2bwCCEl3AVyjdCJqicYaOoqpY3AC8eIWIwUGLlK47sBViAI4u5h68iFkpKYS+HiAxjmtZZAsA2/1eavn3bykbq3TYkYiZREAQsHUscTq7DgAfpXPzT+rKbFjtUdMlJJ2BglJkB/U9GNFJO1fZ6e9b/S6SzIbxu4DwPq8N9MPWgPdN7cl6l+3q6tYhALJGwm4FFZ1zxyCAPiyfa2hYPLIjlhjt9N6RhplEQCI6WKoN/en1krzwlz9RJoSozLkPQ+EUwEOMkMMlNMaOMuRqUI2bCRfAtFv15rmA6psO5GF07OR5qXfyUhfD4A9LKUL82IA5+fSVkxCgeTRRHSpkxpysDMxPQzwgXritLS4fg5g4PQdH6lwkVLIC3OlxgoZ6dMzwrMCxDcNTiQO9dm9AH0NjF9uLzyvh4Lpb6j6jHRO/pRAP1H5MNMZM6f0bK/yKTpEpzg6vj3qQkb3V50WMdJwfQCAR1wMhU4C7p7b2WSZkOGUUx7xhI1klMDzAOyex8j7EvMfw8FURHXgpz3e8CgA1fbhUb7+/jPzGLfgEMqjYjCzLnlWatwfAAgnKqycFbhZ1XyfdybeBVBo2KMzrgwbaeXqgxB0vboXVn2GokNgVcoqt/BJf9XG15wWMdJwdQC4Iti9Nxh7KlyeUeXGCxupCwn4UQGkXBsKpo61MrZ1NiwAY5mifbOTJwZ9oz+5B0DKqfFtwCBcVoylW40aVweALMvDlA6EB61Ms5oSOwJoL5AUQYzbZ0xY4bOUQpinaO/z9dc2F0hL3kQWTs+wNKeDcD2ANwB87JJ/awB+kSFOiMb8vyrut6AZCrevAqgCAFM/L7QyVglvGGCb+QFssdfosRt+BOD2oYwm8UKhzg1yGICFBdSTFx1dgU8AzBn8pykkQm5STBPxxk+2y5RSTj64PQDsq7C90Z5qHDIZYwQsMug+LUffawgcJcELJVDF0nM0gS8DsJ1lC8GnwyIAvL3nytT4dyZ+Ytme8P2wkbI1CZmRqLbjp3EHgmmpVVJABqduWzmxt6SC8sDtAWBHS4vinXtjczIopFAd2nlHSHNqW1dgzed+1tXSnHyUJb0CYOidcgyjtSmx2xbtAAzsEAwbyWUAHWIx5j4AzlVo0pQpbXF/OmykHgCw5WpPv8flT1yungMgRQAg0L+sbML0KNeTCTRrqJu4vbPxDYCvUzQV0lOlSPpBf1ONq6lcakavO4fBLQDeImAtMxYw+Ii2eONfnNamwrVPAJFpC7yZDRZ/iQEwSctc7EzYXfE2Ln2jP37WykgknmLmGyz7ZrZ8jCfgU72NbWQSWTg9CyA6+K9scO0TwEfv7eGBcuM6ZS0tUL5DSyycZllJV7BHuRRFbN03E+tafZqywrUBYHDi5DMrOzNbvh4w5Bce7z+Hd2NzMmhlzHL/QSpdyr6ZymLHnUazGdcGAABgwPI9n0DWE4QkVqv6FVJEI9MWfOH1Z85By7chElcq2wqxyloTvqRqq9G4DVcHAKGquUawLNFVO+rjRSCsV3R92KYN455rbe6aNPC/TKGm9MGib9MigPdXjLlysBrskDBQZz0kbwSw2ua/dxTaNZqC4dpJQABg0P8D2OpxPRBpSowaKvlmZOH0TIuRfprB37Hqm8CHSym6W4zUWkbaCztFRZj/YGUarBloOUHIjF90JPyzco4BINK8dNuM9NksUGKfSPPSbTex7xACRhW673KHgY211PtypHPyp05rKSWuDgDE/AoTTrIwV/cJMQXA0MssMnsVhOdk5PiMDNg9qvuZEFWWB4/IS4excgmAXrI5TlEIGelTM5LvIdVGpxEMAciw79OwkT43Gm/4ndN6SoWrXwEYtEhll6BTrWztXYHlAO4poJhr2joP/Ie1nb6tai1En2Mn8lqbuyYR+GHomz8X2wL8UCiYrHdaSKlwdQCoSdR3E6DKFXe6KtnGho/HXApgydbqYMLvo4kGy70Bs5tTExk4wroDvOZkJWE2PefA5U97LsJLwDlOiygVrg4AEZBksCoN96gas8/yYt22cmJvtkqcCELnsEUwnjEz4ixVqiqPxCVQ7Flg4Llhj18AJEm9OpEPTCPm+3J1AAAAAu5S2Zlx+eVT0pYX7IbF9R/WjFo3DcCvsDn5nz36CHxtTaLh+BuW1W+wcgo1LTsQ6pwDkshzdx7jFhyC6HFy/HKDwHl/XzMmrPCFjWQ0bKT+ETZSZthIJVU5JNyC6wNAe7xxUY5kG9uaWVZmBYosnJ6Jxv0/AlMAwJMALHcCAtgI4CFTml9tjzf+NAKyDBoRsCBh3g2gyro7fiYan6Tcl1BsTPTdCcCxV5Ay4yOS8s58G40et+HhwcxTO2PgvvIT48mQ0f3NgissIK4PAAAAolyFOE4JB1M539uiiYZUNO4/oUb07kTMpwwc3qCfM3ALAbMZ4vhe76Ydo3H/Gdd3BSw3/GwmE0hfDWCK0kmIIY8Pl5Lr48EPBItpABY7LMXtLGbpmT7UQTEVcwLp4EApuC8gCLKtQNqKgruSxFswc8ri2pps7WsMjFe49UvGsXMTfjulu7aasJE6C8D9SifCK9FYw6H5prrOtQ+AiGa1xxpuyqfPzbQEO3dgrtWrAVtAtOmT4U7UhozkBQSyemrgmtHrRg0WnHUdZTEzfPOSqZvCzekLIfl5hVuVIMxvNZInFfsIZjiQ/C6AXO/1/UKKC9yW537wl1y/DhQQYlGjuMy06bNtfABcGQDK4xUAQLSz4U9g/DaH23YS9FzYSOUsEjI8mMLBdAhED0F94hAAbnBDRSCNRkVZPAFsxqT+Sz2onp6jRLcXwB1hIzVVCO8s5eadPJjdlBjvFak7mElZLGQAWl4js9cWYlyNppiUzRMAMDCZBfDxGJipz8VpUmbfbDGSP47U9Qz7mG5LsHOHcCB1pUd4XmPYufnxISCOHeqMgkbjNsoqAABANO6Pg+h02FvTH8egWzOj+t5rCaR/PifQvZ/dcVqNVEPISN3H7HsPhAgAO3n9N0khT3B62U+jsUvZBQAAiMYaHmPGj2F/Y892TDxDkHy9JZjKkaSRKWykbpFAkoAf5CxJ/h96QXSaqkyZRuM2yjIAAEBHwn8HmE+FvdeBzXiZ0dFiJC3rDbQEUqcD+AnyWyL9iEh8PRpreCyPNhqN45RtAACAaKLxD5JpOkAf5NNOsjjD0khkbRuat2DKye2x+pfzbKfROE5ZBwAAmJtoiMmsbALIMlnHlhBZZ/Zl+xWEJRHfXdOP5miyaaXdsTUaN1FWy4BWzE01vg/g5JZA6hhJuJ2AvdUtSPV4n/vRn7GMBJ/fHmvc6qPGGo2TlP0TwOdpT/ifrZXmAcSYiYHik4XmPTCdXTNmXZO++TWVQEU8AXyewfX3W8JG+tsATy5k3wQsbk803FfIPjUaJ6moJ4CKobN5PQDLwidgndrLVZB1BSsA2dX7rFZlqHYUHQBcyGAOAsstzJJYWftQU1oYUpEOHh/Mn3+qaytG6QDgVgjvWZoY34g0pMaWUo5maMIHLxtHREdae5DldXQDOgC4FcaLCus2m7z805Jp0VjTa14JhuKsCS8onZj80QHApUghn1TZiWjmYFISjUOEA+kfAvixyoekeKJEcoaFDgAuZVRnYwzACoULAbivxUjdPqspYV0nUVNwZjUldmwxUneC+F6o94281d41KVYqXcOh4pYBK4UISIYpdTkYjyjciIGLqoTnnLCRXsDg5QD/g0i4KgtRJcAsCaBdCLQ/wNMZ8Nlo1Oq2jFBbogOAi4nGGn4fNrqX2tjP4AP4KAKOAghQ1yjTDAP69x9629/t4mjC/2iR5BQM/Qrgaog9WfkdAB86rUSTFx8BnjPc/tcf0AHA9VyXanyXSJwMoNdpLRpb9BKJb5VLUpgKDgBsmYWVWWFTtnMms2t7rP5lYhwOxeYgjSv4BzEOL6ej4ZUbAAhxhdXSJpTtSNVnUWlP+F9laQYBKCsmaxxjEUsz2J7wv+q0kHyo2AAgyHsjgC9UeGHgbbBpWWlI9KMdQ+fNf6OGs44eBOroCvwtGvdPY4jjAeiU466AX2OI46Nx/7SOrsDfnFaTL2VRGWi4XBHs3rsfci4xvoGB/IFPySyHBvMHWDIn0L2fIDkXwOEE9DLx49SPcHuq8Z8lEW6TUNOyAyHkCQQ+DAOJTPYAsK3DsiqZTwG8B+B9EBYKKZ4o99oP/x/74bN7/+mI6QAAAABJRU5ErkJggg==;" parent="1" vertex="1">
          <mxGeometry x="837.13" y="579.5" width="47" height="47" as="geometry" />
        </mxCell>
        <mxCell id="veElxyi0WQyssnxSMCz9-306" style="edgeStyle=none;rounded=0;orthogonalLoop=1;jettySize=auto;html=1;exitX=0;exitY=0.25;exitDx=0;exitDy=0;entryX=1;entryY=0.5;entryDx=0;entryDy=0;" parent="1" source="veElxyi0WQyssnxSMCz9-243" target="veElxyi0WQyssnxSMCz9-282" edge="1">
          <mxGeometry relative="1" as="geometry" />
        </mxCell>
        <mxCell id="veElxyi0WQyssnxSMCz9-307" style="edgeStyle=none;rounded=0;orthogonalLoop=1;jettySize=auto;html=1;exitX=0;exitY=0.5;exitDx=0;exitDy=0;entryX=1;entryY=0.25;entryDx=0;entryDy=0;" parent="1" source="veElxyi0WQyssnxSMCz9-243" target="veElxyi0WQyssnxSMCz9-292" edge="1">
          <mxGeometry relative="1" as="geometry" />
        </mxCell>
        <mxCell id="veElxyi0WQyssnxSMCz9-308" style="edgeStyle=none;rounded=0;orthogonalLoop=1;jettySize=auto;html=1;exitX=0;exitY=0.75;exitDx=0;exitDy=0;entryX=0.965;entryY=0.036;entryDx=0;entryDy=0;entryPerimeter=0;" parent="1" source="veElxyi0WQyssnxSMCz9-243" target="veElxyi0WQyssnxSMCz9-293" edge="1">
          <mxGeometry relative="1" as="geometry" />
        </mxCell>
        <mxCell id="veElxyi0WQyssnxSMCz9-243" value="" style="shape=image;verticalLabelPosition=bottom;labelBackgroundColor=default;verticalAlign=top;aspect=fixed;imageAspect=0;image=data:image/png,iVBORw0KGgoAAAANSUhEUgAAAQAAAAEACAYAAABccqhmAAAACXBIWXMAAA7DAAAOwwHHb6hkAAAAGXRFWHRTb2Z0d2FyZQB3d3cuaW5rc2NhcGUub3Jnm+48GgAAIABJREFUeJzt3Xt0VOW5P/Dvs3cSQoAWAcnMBC2t1uuxVgFrW6vFqiQzCQot2F9bLEJmsFLbov6svRrbZX966qU91gozifeKhQrFZCaAl9Rae1SwVTnWVrFFTGYSREAhMZeZ9/n9EU6LlJlM8r57Luzns5ZrdXXvefbDXrO/2bMv7wsIIYQQQgghhBBCCCGEEOLwRMNZeUHlhjHlVrKaCKco8GSLLdupxrLB4H1E9A8m3hjpCLyai20urVozsS9VHiDijxJoci62KUQmilTKAu1gxpZeVbL+/q5Z3dl+NqsAWDZl1eh9auy1YHUlQGNH3qpzmPlxsunqSEfgBSfqh3zNkxToRwSqB6PUiW0IoY/3MdPNyfKKm+7ZNrN3qLWHDIDLj4x6BkrwCIAZRvpzVi8RFofjgQdNFl3iiZ2kiFsAfNhkXSEc9BynkrMbd1zYlWmljAGwcGpbeWlfz5MAzjDamrNSzNbsxs6amIli9ZPXVVp2ySYGjjJRT4gcep5InR2O1/WkW8HK9OmS/u7vorgOfgCwyVKNCyo3jDFRzLJKfi4HvyhS05Sy/m+mFdIGwOVHto0lxjLzPeUAwzvaTi7WLbPI13o8E+abaEmIfCDCVSFfc0W65WkDYKCkZ1ahXvDLBjPm6tYogZqDYd4pEaLAjAPsC9ItTP8TgOhjjrSTO6fqFmBGse8DIcBKpf0epw0AhjrSmXZyZvwVx8ZGadYo9n0gBNiCJ92ytAGQ74d8TOjrSen9GwhFvw+EyHQsZ7wLIIQ4vEkACOFiEgBCuJgEgBAuJgEghItJAAjhYhIAQriYBIAQLiYBIISLSQAI4WISAEK4mASAEC4mASCEi0kACOFiEgBCuJgEgBAuJgEghItJAAjhYhIAQriYBIAQLiYBIISLSQAI4WISAEK4mASAEC4mASCEi0kACOFiEgBCuJgEgBAuJgEghItJAAjhYhIAQrhY2gBgwru5bMQB/eF47XtaFbjo94EQYOY96ZZlOANQ251oJofeAIi1KjAV+z4QAgyk/R6nDQBllbQ6006OMG/QLUFQ2jWEyDe7RG1MtyxtADS1V29l5sedaclxikvsiHaVTs9GEF430I8Q+fLYiva619ItzHgR0Lb5KgC9xltyGBOvaGyveUm3ThjTBxRoGQC9nxJC5Ecv29ZVmVbIGAArOupeZMIiAEmjbTmKfje6wlpmqlpT3N9M4B+YqidEjiRBfOlQfwiHvA3YGA+sJKIAmOLmenOEYuI7y8eg+vat/j6ThcOJ2huYsAiEd0zWFcIhHUzwR+K1Dw21ImVbMeRrrgCsembMBXAqgPE6HRrSD+btsGgjpbA83BXY4uTGllatmTiQKr+ciWsBnAxgjJPbE2IY9gD0AkitIXBTOF7Xk82Hsg6Agy2bsmp0r1VRPtLPm3Dn9trd+dz+5Ue2jeXR3aX57EGIctXTe1v7fL1nXoQQQgghhBBCCCGEEEIIIYQQQgghhBBCCCGEEEIIIYQQQgghhBCFZljjAQSroseBeQ4YpwBU6VRTWWPqYeJtFvNGdHo2hjF9wOlN1ntbphFZswE+AYwJTm9PiCwwwDtA2AKitZGOwKvZfjCrAKifvK6S7JLbAFyMQp1NiPA6wFdG4rWPOFF+ka/1eJvV7QDOd6K+EIYwAytLVMmy5V2zdgy18pABUO9tOZFA6wEcbaQ9ZzGBfxBO1N5gsmi9p/mzRNZaFMYwaEJkYzuDqxsTta9kWiljACytWjOxX43aBODDRltzGBMWNcYDd5uotf8v/zOQg18UGQL+nrLtGU3t1bvSrZPxdL6Py36MIjv4AYAYP7+scsNkE7VsVr+AHPyiCDHwESuZvD7TOmkDYGnVmokEqjffVk6MU5Raoluk3tsyDcB5BvoRIj+IQl87uuWIdIvTBkCfKqsBo2hHvGXiOt0ag1f7hShqZakk1aRbmDYALOBEZ/rJFTbRf5HvAyEABT4h3bK0AcCgic60kys0duHUNs15C7jI94EQADEdmW5Z2gAg0IgnDSkUZf37dJ9ZKPp9IASBMp3pCyHcSgJACBeTABDCxSQAhHAxCQAhXEwCQAgXkwAQwsUkAIRwMQkAIVxMAkAIF5MAEMLFJACEcDEJACFcTAJACBeTABDCxSQAhHAxCQAhXEwCQAgXkwAQwsUkAIRwMQkAIVxMAkAIF5MAEMLFJACEcDEJACFcTAJACBeTABDCxSQAhHAxCQAhXEwCQAgXO6wDYIz1Hue7ByEKWdoAYMbuXDbigPdua5//nk4BKv59IAQAtTPdkvRnAITXHeklRwgG+i/yfSAEACjC39MtS38GYKEVQNGeQjMjpl1DUdREL0LkESs71ZpuYdoAaOzwtxNjlTM9Oa6fObVct0iks+b3IDxroiEh8uShu968MJ5uYcaLgBasaxn0tvmeHPfjxq7Z/9AvQ8wp+haAfv1aQuQWg95WwHcyrZMxAJZ31mwjxucB7DXamYOY6N5Iwn+DqXqNXf5nGLwYhAFTNYXIgXdt8NymROCNTCsNeRsw0ul/Emx/EsAmY605410GL2uM11wKkNFrF42J2gdYqQsAvGayrhCOIDxrMX1yRSLw+6FXzRpT0NNazcRzCTiVgIk6PZrAQC/A2wDaSKR+FY7Xpb3dYUIIm0vZ0zWHCRcScBIBH3Bye0Jki4GdDLxETGsinTXrTf8RFEIIIYQQQgghhBBCCCGEEEIIIYQQQgghhBBCCCGEEEIIIYQQQgghRO4Ma0CQkCfqZ6I5DJxqAROcayvLjoA+Bt6wgI0DTA/c3el/y8nthbC5VPm6vkCMOgwOCDLOye25EQOdTPw4Kevx8rF45vat/j4nt9eABqujasbHKEWfY1LnEugEJ7fnFAZ2AtjCbK1p7KxuzXZAkKwCYHFly3+QRXcTMF2rS2ftBdAQSfhvc2I0lJCnZSYDYRAda7q2wF8ArATbayOd1S/ns5HLpjRXqZRVy6AvAnw2inP2rE1g+9Js9uWQAVDvaf4skfUIiuSvHRPda3pcwHpvy1eI6C4wSk3VdD2mOBPfB9ta2dhe81K+2zmUy6Y0VyVTNM8CXcLAafnuZ5j2gqku0ul/MtNKGQOgvvKRD5Nlb0YBnO4PC/N1kc7aH5koFfS1fApMbQDKTNRzPcKzAP+M4p6Hw5heNCMth3ytZzH4G2CeA6Ak3/1kg0FvlzBNX95Zsy3dOhkDIOiLrQLzPOOdOa/PZuuETP/w7DAFva2bAT7dSFfuxQD9lhTfFO4KFPVEK5f6NhxlY+CbxHQ5gNH57mcoxPh1uDPwxbTL0y2or4pNIcXbM61TyIjw03A8cI1Ojf0/f9pM9eRGzPw4g7/b1Fn3XL57MWnRUet8drLkByAsLvCfhmzb6qjl7XUdh1qY9gIHKdSgSA9+AACjRreEZVl+E624EuMlEJ/f2Fl73uF28APAXW9eGI8kAl+jJJ0IKugp9EgpK+2xkP4KJ3NRX+1mQLt/ZrniPwLvEeH6PRO7Z0TitY/luxmnhXf4X4/EAxcT87kE/C3f/RwKMz6Sbln6MwCi8c60kzPly6as0vuNRlzs+yDXWm22TgrHAw2rX57vqvkUw521bSB1OgM3Fto0cgRKO4lPUVzNHKluNbp4f8IUl14A10YS/v9y84w04XhdD4DvBD2ta2CplWAck++ehlKMDzmIAkLA32Dhk5FE4OduPvgPFOms2VTeS6cDWJnvXoYiASB0rHxPlUyLdAReyHcjheb2Xf53I4nAl4jp8kL7SXAgCQAxEgymmyIJ/5fv75rVne9mClm403+nRVYNgD357uVQJADEcPUB+Gqk03+tnPJnZ0VHzePKtmcAeDXfvRxMAkAMA+8D06xIInB/vjspNk3t1VuTTGcR8Od893Kgw/ougDBqL5HtDydq/pCvBkKT1ntpFJ/EKT5OEZ9AwEcBTMbgi2pj9v9XCmAfAd0M7AbhXTBvBeNVMP3VKlV/W9FeuzUfZy93d/rfWjxl/XlWKrURwLRcb/9QJABENvYqopqmeM3TudzoZZUbJqfsgXOJrZkMnslIfZQVABryEdUx/zy6GQBoJmjwcyplIeiN7SCOtoHQRrZ6YkV73WtO/jsO1NRevetrR7ecnxygDQBm5Gq76UgAiKG8R2T5c3XwL6jcMKbcSs4FcEkKyXPBZDGM/7GezISLAVzMKQtBT/QlAt2HpPVgeGd1wvTGDnbn9trdC6euvaC0r6wNwMed3l4mcg1AZKIALAjHnT/tX+KJnRTyRO8qtwY6AdwH4Dzk6vtJ+BgT38ylqTeD3mis3hc93+lN3rNtzp5USTJAwJtObysTCQCRFgFXRxKBh53cxpKq5lOD3uh9ivglJlwK0FgntzcEG0ANMTYGvdE/13tilzSgwbFj5K43L4wTUzXyeItQAkAcGvMvwonAbU6VX+yNfijoja5VynoBwAIMHnyF5ONEfG/cO2PzkqrmTzq1kRWd/r+AeB6ApFPbyEQCQBzKc3sm9lzlROEQNpcGvdFvWuD/AXCRE9swiYHTlLKeDnqj913qiR3pxDYi8drHGHSdE7WHIgEgDrZbAfOdeJsvWBX9OHu7XgDwszyf6g8XAVhgE14JeVocGSFrSuK5GxlY70TtTCQAxIEYUIubEoE3TBeu98QugcLTAE4yXTtXCDyRiVYFvdH7Qr7mCpO1G9Cg2La/DMD4vs9EAkAcKBxJ1K01WXDRpHXjgr7YKiK+F4DRgyaPFjBbTy+est7ogDFN7dW7LMtaDJi/75mOBIAYREgMjOq/1mTJ+snrKu3S0t8V6cCyQ/m4lUo9a/oC4YqOmsfBfLfJmplIAIhBrJbes22OsdtRl3lap5Jd8vvDfETlCUpZjy7xRqtNFqW+UVcCOOQgnqZJAAgAeNjkqX+9t+XElKX+COA4UzUL2BgFrKv3xL5gqmB49/nvEPMyU/UykQAQ/SnFWsOnH6i+KjaFQK1geE3VLAJlZPGDQW/LLFMFw521q0F4wlS9dCQAxB13ddX+3UShpVVrJpLijQA+ZKJeUWGUArTG6DUBZV0Lhy8ISgC427tE6icmCi2c2lbez6OiAE40Ua9IVShl/XZRZUvaYbiHI9JZswlgRx/FlrcBXYyYbg4n6naaqFXa13MbgE+YqJWlV0DYwuC/EdNrAHpA/M7+ZRUMGmMBH2LgeDBOxuDknrn4vk+2LVp1xbGxTxuZ2tyi70HhIjjUuwSAa/E+u4x/YaJSvS92MZgvM1Erg34ArURYhX67bbiv7S6atG5cSYl9NsiazeD5AJyc82Fa7z78FMA3dAtFOgKvhjzRh/e/vmycBIBbsXX3ndv9u3XLLJ6y/lhKpcImWjokQgKKbyWL7wnHR362ctfOC/cCiAKILpza9s2y/p65zLgGwKnGej0Q8RX13pbfNSZq1+iWYli3AMqRAJBrAO6UIoWf65dhslQqDOAD+rX+zS4iumKgrOIjkc7am3UO/oPds21mbzgeeDCS8J+miGY7NaUXge782tEtR+jWGbwWgKcMtPRvJABciR4J7/C/rlsl6G39EhgzTXR0ICa6N8l0Qjju/8U922b2mq7/L8RNcX/z7gndH2PQ9zA4w5FJkweSuMFEISK61USdg0kAuBCxatKtccWE2AfA+E8T/RxgLxO+1Bj3L7y70/+W4dpprX55fn9jwv8TsD0dwF9M1iamJaHKqPbFUV98dAuALgMtvY8EgPu8hU7PRt0ivaP4OhD7TDQEAGDeatlqWmM8kLfptCKd1S+nBpJnAhwzWNZiGz/TLdKAmUkADxno530kANyG+ddhTNeaqmpp1ZqJAIdMtQTCllRp6pxcjs6bzl07L9y7J9EzG4D2WdI/Mc4M+WIX6JaxgAdMtHNQTeEmzNavdGv0q1FXGRvQg7BloKz/7LvevDBupJ4BqzE/FUn4gwCMTYCimL+nW2NFIrAZwF8NtPNPaQOAwUU/7VN/2VilWaLo98H7EBKNXTXP6pRYOHXteBAuN9TRtpSdrDb5FqI5xJSoXGxqlB4Czq73tnzGQKlhv7SV6VjOEABk7LZLfvA+A1eQi3wfHITxqO6MOGV9ZZeC8UED3fQqormF9Jf/YGFMH7B6y74IgvYdEwAgWPpv+DFtGMGn0l5QzfATQBk91cg9esVAjSLfBwcj7Yt/DFxipBOmK5vi/oKaJ+9QwrvPf4eZL8bgpKiaOLB4yvoJOhX2TNz33wD2DuczREh7LKQ/A7BLYoU8r3kWHtEtwKy0axQQZSv7UZ0CocroKTAwkw0zPx7u9N+pWydXGhO1zxPhRgOlyuyk3hN9+wdrHc5rwv0py077MyZtADS1V+8iwLlHPJ1EeKfM6tP+gjUmap8HoHXQFAoC/rK8a9YOnRpsk4m//v2WxV83UCen+ssqbgTzVt06anAOBF1tWa/JtKKpvXpXusUZ7wKkLPuHBBh5VzyXSPE37+iY+7aRYha+jjzO3GKKInpetwYxz9WtwcDycLyu6H5a3bNtZi/D+o5uHSI+c9FR67Sen1BEm7PbGF4vKVMZ5xvIGABN7dW7FLgWOR6qWAMT+Pvhztp7TRWMdAReZVZzUOQhQMxav7cXe6MfYkD3Pfd+WPRTzRp5M6XzuTVA+t/TWSI7War1+HR/yn4BQGqI1d4gqNo7t9dmfOFryOcAGhO1r9iq5AyAf4XBySIL1WtQmB1O1Bp59vpAjZ11v4OFTwDQvoiWLxagFQBEOFe7CcKDjR3+du06edKABsUE/QBjpbUv7++a1Y30LzApAh5IMs3I5kwrq9eB9/92/MqSKc3Xs7LngPkUBiox5DTtDmPqIVJ/Z7Y2Uufkx3SfcMsk0hF4FcCskK/5dMCazYqOB/Ekp7ZnWlkfvaDzeTLw0o/FyNlw104pG6hYPVDSczuAMSMuQmTiBaqVAM7Z/7+ZgC4QbSErtXY4T1Tm9wAWRSPoaXkNRDoTYfwjkvAfo/scQiEIeaP3M/AVnRqlSXh/+Vag01RPIyWPAoshzTt5VRmIpurUYKD5cDj4AUARtejWGLDpeBO96JIAEEOa8PbYY6E5epRFlP2tqwJXkrLboPmYOJOSABDFQVHKwJc19Qf9GoVh/zUxrbsBBDrBUDtaJADE0JiO0ayww+SQXoWB9QYO0d+nRkgAiKER6b7848iYe/lEwKt6BdjEC1XaJABENsZpfr5o7/2nR9s1P6+7T42QABBDY9b9sr5rpI8CwqB9mhUkAESRsLRH/+k20kcBUaQXaqx/VmWEBIAYEjOSmiVsI40UEIu5TOfzZGR8AX0SAGJINMwBKP6N/k+IgsOkPRmK9qxMJkgAiKERaQUAETk5D19eWKw7tyAVxNulEgBiSKxY64KXgdeICw9B6z4+gdMO0pFLEgBiSBZIayQhAMc1oOGw+q4xQ+vpSGaWMwBRHMgmvYdegIrtvk981EgzBYEJmrMKk0V5nwQF0HjBI+RrrrBLaJTJZobrzu2BPfl8w2zRpHXjRlXYBT/F+r6+0v79g0iMSAr8N933xm1WM3GYPBFYP2X9KUjhSJ0axNAan8GUrL+8Cyo3jBltJUMMzAH4NGYam8zzmMFBX2wAHG0HsMGy1PIVHXUvOrm9kK95klLWUiKaDfAJACryvQ+yUW4lnwJw9kg/39hR0xH0RvfpzQbEnwOwfOSfLxxWSn1O968OD9iOflezldVPgCXeaPUoK7mVgVsBfMbYtFC6GKUAPgzgMqWsPwW90eVXHBtz5Kwk6IstYrZeJ0IDwKcDqHBiOw7RfJuPGCDNWXOpZtGkdYfF7UAmzNcs0RXeWZ0w0oymIQMg6I19WQEtBHhy0ZAGC8CS3m7eYDoEQp7YD8DcBGjf+82XyboTUhDhSc0expSU2NqjCufbkinNHwVDc7pvveHZTMoYAIPj33ETiutJrnP6uvFfpoqFfLGLmPh6U/XyxVJJrffPWekP6MEWXaZbI99SipZAcyg9hjIy36AJGQOAYd0MIK8X+kaCwfVLqpq1rtIC+4fCYr4Fh8HYiaQsrf1Rmhr9lPZMUYwz6ytj+qML50nI1zyJ2ECIKbXOQDtGpA2ARb7W42FgJNg8sRRb2vPXj9855oLD5SEWJvVpnc//8q2Z+8B4RrsRizNOVFHIWNlXQ2c04EEvNnbN/oeJfkxIGwA2UhfkshHjFOv3T1Tc++B9SCsAAICYVmrXAM6u90X/j26dXFvkaz0exN/SrUOE35rox5QM04PjQ7lsxDiio/c/sKGjuPfB+03VnZIqVWL9GgbeYiPgloVT1xbR+wFMlkrdAQM/h1Mp/o2BhoxJGwAWW8V+y6Ys5GsZrVXBOrzeYrOSttbv7/0Txka1G2F4S/vKGrXr5Ei9J3Y1EX1OuxDhiaau2v8x0JIx8iiwixBZs3VrsDI2u8/nQ77oNwzVcsxiX+zTZMHMdHMp3GakjkESAG7Cqkb3GYlIlz8KwhYj7TBuDXqjnzdRywmLp6w/1mJes/+BM12vVnVtihmoY5QEgKvQ2L6ef84nN9IazMD/M9MPbAD3hzwtBXe3KeRrPtpKpR4DMNlQydsa0FBwk+tKALgMM+s+xop34t2rAJh6m200E8WC3uY5huppC3rWn8xsPQ2DF4EZuHBp1ZqJpuqZIgHgPvMvP7JN612O1ZifYoLJ+/nlgLU66I1eaeDOjZagJ1YDSj0FYIrJugRU96tRm+u9LdNM1tUlAeA+4/pLe+bpFmmMB1aC8ISJhvazAdwS9LT+Vve9hZEIYXNp0BO7EcRRAEc4tJmpBPpDva9lsUP1h00CwIWIeZGROlBLAfSbqPWvojzbSqVeCXlavpqrs4GgJ3YOezv/DOJvw/nHvsuJqbHeG40snNpW7vC2hiQB4Ep01uCLXnrC8bq/EvhmEx0dZDIT3RP0xf5Y72n1OxUEwarox4Pe6G9A3AbQyU5sIx0C6kv6ep5a7I3m9WEzCQC3UtY1JsrsntBzPYBNJmr9G8aZRCoa9Mb+FPS0XG7ip8HCqW3lIU/LvKA3GoPCnwB8Hnl62YuA6QR6PuSL5e2R87T/8JA3toLB2i/U5BORGhOO1/WM9PNBX/SJIn4haigpStHx4R3+13UL1Vc+8mGy7D8BukNlD6mfgSeI+XGL6HdlY2jL7Vv9GR9NnodV9jjfuGMtTp1jMZ3LhFk56HO4UgAaIgn/Dbke4q7gx7MTjrFh4xoAS3QLNXbN/kfQG60H4PRz7mUEVIOoWgHo7eZU0Bfdxoq3kWXtglJ7iawkE44A81iAjwboWLAaBVCe7y9kZAP4cdAX+8RA2doF92ybk7MRg+UngIsx8aWLfK2aw4UNiiQCDxMh1wOn2GAcQ0SfA/M8EC1icAjM8wDU7P9dXzzjWTBqS/vLNpsYyyJbEgBuxii1Wd1oqlw4HmhgmBuNyZUYxyhlPZOrW4USAOIik6P0TElsWgai1abquVQ5MTWGvLEV805epTUJ6VAkAAQsi29uQJuR60ENaFDlFVggIaCPwaHxu8c8WV8VM/pU4oEkAAQYOC3u67naVL3bt/r7quLPfRGEX5qqWcDec7Q640xS/LxTYylKAAgAADOuM3VBEBg8E4jEA0vBfB2AvM3e5KAkAVeyRceBDIyVmNlksnhjyBe7xvRDURIA4n+V26wi87DK6BDwkc7aHzFhDoCCmA3XkF1M8IcTgdsaO/zte47oPicHZzs2M98U9LY+fMWEmLH5KSQAxIE+M9439oemizbGA+sUcHoO/lLmwtMpxTMa44FH//f/WP3y/P5IPLAUwCUARvzgWXZ4Tt8ofi7oWW/k0WUJAPF+zN8P+lrOM122KRF4g+KVZ+9/VqDXdP0ceI+Yrq5KbDr7rq7avx9qhUgicL9lqU+BoP10ZSYMHA9KPhP0tXxRt5YEgDiYBaYHQpPWe00XDmP6QDgeaFC2fQqAVtP1HfQokTo93Om/ZahRfVZ01L04UNY/HYQWZ1uisWBaGfRGfxbC5hEPWSYBIA6lkktT60K+ZkcmQG1qr94aSQT8gJpLQEGNknuQF4loViQRuCAcr/trth+6Z9ucPZG4fzYx/RCA08OAfZO9nU+MNLAlAEQ6M5itXzWgwbHvSCRRtzac8H+MiOYwsNmp7YzAJiZ8qSqx6fRw3L9xZCWIw53+HwPsZ9DbZtv7t22dpUpTf6r3tnxmuJ+UABCZXBT3Tr/F2U0Qh+P+3zYmAjMsyzqPgAcAdDu7zUPqA9FqRXRWJBE4ozEeWGliEM9IonZDCdN0AM8b6DEtAjwEeiLkjS4bzuckAERGDPpWyBP7QS62taKj5vFwIrCgNFnhYaavYvA6gZNh0MeMZgCXUG9ZZSTun98U9z9teiPLO2u2DYyqOAtAk+naBylh4NaQJ/pQtuM+yngAGRzm4wEMC4G/H07UmpkgYxjmnbyq7IO7Kj4BpnPJwtlgnAygcoTl9gDYzIw/gOmpPtjP3t81K6dnGyFftJ4ZtwNwdDgwAv4MUheE43U7h1jv0CQAJAAOxqDvNSb8P8l3Hwunrh1v95YcR0THWaAjwTSWwWOJaPxgn9zNxPsI6GZGB5S11bJTW4c6GHJliTc6XQ2OneD0cGDP75nQ/anVL89PO26jDAgiskbgG4Le6KSqxKar8znJxf4BM57b/1/RWZEIbF5atWZavxr1IAAnhwObdsTbY78N4MfpVpBrAGK4lnV4z/jNsimr9CZedbk7Oua+HUn4q0F8LRy8VcjEyzLdzpUAECPAc/alxjx2+ZFRT747KW7EkXjtTYroIgxen3DCEcyU9vagBIAYqU/1l+DP9Z7mz+a7kWLXFPc3U4qmA3jRifpEdFq6ZWkDQJFKOdFMLo2qsPX+DYyi3wdOIsBDZD1W7419N99TehW78A7/60TqUwDuN11bMaW9JZg2ACzQDtON5NjuoYaMHgoDxb4PcsEevDjY+kRocuyYfDdTzMLxup5IInAJM74OgzMuWYzdaZelW6CYXzLVQJ6B5ajaAAACC0lEQVRo909U9Psgh/izbPNLIW90mekxBdymsTNwh2WpzwJoN1GPbHoh3bK0AdCnSjcAvM9EA3lB/LB+DVoL51/mOJxUMHDreO+YP9ZXxs7MdzPFbEVH3X/bqmQaCG1ahQgJb0f5k+kWpw2A+7tmdTOTE/O+5UIHgbUfu4x0BF5l4CETDbnMGWTxH0Oe6EOXeVqn5ruZYrW8a9aOqnjFBUT4KUY4rBoBNzZgZjLd8ox3AZLlFTeh+B62SIJ4oc4TgAcqUSXLALxhopbLEBMuTpF6JeiN/uxS34aj8t1QMWrAzGQ4HriGwV8A8O6wPkxo2x3vviPzKkOon7yukuySRwCcMayN58d7THRpY9z/a5NF670tJ1qgFgY+YrKuy/QT41ew1H8O59168S+LfK3H25x6OKuZjAlPlA5UXPjLt2Zm/Bmf1a2bhVPbykt7u68B0dUAxmXXbs49SgpXhbsCW5wovnjK+glWMnk9iEIAHJ2s4TCnAHqUWDWNGms9onunxm0WTm0rL+nt+TYRvoVDTXJKSBDjp77Epp9n87j2sO7dDj5SaF+gFJ9KFiYTU37fJSB+Rym8YSlab2KW22x87eiWI5IDlh+E48BcSSC5/z1iaqcCHmhM1L6S706KzcKpbeV2/3vnW8z/AaYPEqm9ZNnP7Bq/96lML/8IIYQQQgghhBBCCCGEEMIt/j+oWUJzkxSU8AAAAABJRU5ErkJggg==;" parent="1" vertex="1">
          <mxGeometry x="424" y="526" width="31.5" height="31.5" as="geometry" />
        </mxCell>
        <mxCell id="veElxyi0WQyssnxSMCz9-244" value="Identifier Prompt" style="text;html=1;align=center;verticalAlign=middle;whiteSpace=wrap;rounded=0;fontStyle=1;fontColor=#7F00FF;" parent="1" vertex="1">
          <mxGeometry x="393.25" y="565" width="93" height="20" as="geometry" />
        </mxCell>
        <mxCell id="veElxyi0WQyssnxSMCz9-248" style="edgeStyle=none;rounded=0;orthogonalLoop=1;jettySize=auto;html=1;exitX=0;exitY=0.5;exitDx=0;exitDy=0;entryX=1;entryY=0;entryDx=0;entryDy=0;" parent="1" source="veElxyi0WQyssnxSMCz9-197" target="veElxyi0WQyssnxSMCz9-243" edge="1">
          <mxGeometry relative="1" as="geometry" />
        </mxCell>
        <mxCell id="veElxyi0WQyssnxSMCz9-249" style="edgeStyle=none;rounded=0;orthogonalLoop=1;jettySize=auto;html=1;exitX=0;exitY=0.25;exitDx=0;exitDy=0;entryX=1;entryY=0.25;entryDx=0;entryDy=0;" parent="1" source="veElxyi0WQyssnxSMCz9-205" target="veElxyi0WQyssnxSMCz9-243" edge="1">
          <mxGeometry relative="1" as="geometry" />
        </mxCell>
        <mxCell id="veElxyi0WQyssnxSMCz9-250" style="edgeStyle=none;rounded=0;orthogonalLoop=1;jettySize=auto;html=1;exitX=0;exitY=0.5;exitDx=0;exitDy=0;entryX=1;entryY=0.5;entryDx=0;entryDy=0;" parent="1" source="veElxyi0WQyssnxSMCz9-207" target="veElxyi0WQyssnxSMCz9-243" edge="1">
          <mxGeometry relative="1" as="geometry" />
        </mxCell>
        <mxCell id="veElxyi0WQyssnxSMCz9-251" style="edgeStyle=none;rounded=0;orthogonalLoop=1;jettySize=auto;html=1;exitX=0;exitY=0.5;exitDx=0;exitDy=0;entryX=1;entryY=0.75;entryDx=0;entryDy=0;" parent="1" source="veElxyi0WQyssnxSMCz9-209" target="veElxyi0WQyssnxSMCz9-243" edge="1">
          <mxGeometry relative="1" as="geometry" />
        </mxCell>
        <mxCell id="veElxyi0WQyssnxSMCz9-252" value="Harvey Deaths (Cluster A)" style="text;html=1;align=left;verticalAlign=middle;whiteSpace=wrap;rounded=0;fontSize=9;fontColor=light-dark(#000000, #ff9fff);fontStyle=1" parent="1" vertex="1">
          <mxGeometry x="212" y="454.5" width="130" height="30" as="geometry" />
        </mxCell>
        <mxCell id="veElxyi0WQyssnxSMCz9-253" value="Harvey Damages(Cluster B)" style="text;html=1;align=left;verticalAlign=middle;whiteSpace=wrap;rounded=0;fontSize=9;fontColor=light-dark(#000000, #ff9fff);fontStyle=1" parent="1" vertex="1">
          <mxGeometry x="211.5" y="536" width="130" height="30" as="geometry" />
        </mxCell>
        <mxCell id="veElxyi0WQyssnxSMCz9-254" value="Harvey Cost Incurred (Cluster C)" style="text;html=1;align=left;verticalAlign=middle;whiteSpace=wrap;rounded=0;fontSize=9;fontColor=light-dark(#000000, #ff9fff);fontStyle=1" parent="1" vertex="1">
          <mxGeometry x="212" y="593" width="150" height="30" as="geometry" />
        </mxCell>
        <mxCell id="veElxyi0WQyssnxSMCz9-256" value="reference 1107 contradicts 1108 in the number of deaths where 1107 stated... 1108 stated...&amp;nbsp;" style="text;html=1;align=left;verticalAlign=middle;whiteSpace=wrap;rounded=0;fontSize=8;fontColor=light-dark(#FF0000,#EDEDED);" parent="1" vertex="1">
          <mxGeometry x="212" y="481" width="158" height="30" as="geometry" />
        </mxCell>
        <mxCell id="veElxyi0WQyssnxSMCz9-257" value="reference 1107, 1108, 1109 were similar in ...." style="text;html=1;align=left;verticalAlign=middle;whiteSpace=wrap;rounded=0;fontSize=8;fontColor=#00994D;" parent="1" vertex="1">
          <mxGeometry x="212" y="551.5" width="198" height="30" as="geometry" />
        </mxCell>
        <mxCell id="veElxyi0WQyssnxSMCz9-258" value="reference 1109, 1110 stated that ......" style="text;html=1;align=left;verticalAlign=middle;whiteSpace=wrap;rounded=0;fontSize=8;fontColor=#00994D;" parent="1" vertex="1">
          <mxGeometry x="212.5" y="606" width="198" height="30" as="geometry" />
        </mxCell>
        <mxCell id="veElxyi0WQyssnxSMCz9-265" value="Sorted Cross-referenced Clusters" style="text;html=1;align=left;verticalAlign=middle;whiteSpace=wrap;rounded=0;fontStyle=1;fontColor=#7F00FF;" parent="1" vertex="1">
          <mxGeometry x="201" y="416" width="183" height="20" as="geometry" />
        </mxCell>
        <mxCell id="veElxyi0WQyssnxSMCz9-212" value="" style="rounded=0;whiteSpace=wrap;html=1;fillColor=none;dashed=1;dashPattern=8 8;" parent="1" vertex="1">
          <mxGeometry x="486" y="481" width="143" height="140" as="geometry" />
        </mxCell>
        <mxCell id="veElxyi0WQyssnxSMCz9-197" value="Cluster A" style="text;html=1;align=center;verticalAlign=middle;whiteSpace=wrap;rounded=0;fontSize=9;fontColor=light-dark(#000000, #ff9fff);fontStyle=1" parent="1" vertex="1">
          <mxGeometry x="509" y="496" width="57" height="30" as="geometry" />
        </mxCell>
        <mxCell id="veElxyi0WQyssnxSMCz9-205" value="Cluster B" style="text;html=1;align=center;verticalAlign=middle;whiteSpace=wrap;rounded=0;fontSize=9;fontColor=light-dark(#000000, #ff9fff);fontStyle=1" parent="1" vertex="1">
          <mxGeometry x="553" y="516" width="80" height="30" as="geometry" />
        </mxCell>
        <mxCell id="veElxyi0WQyssnxSMCz9-206" style="edgeStyle=none;rounded=0;orthogonalLoop=1;jettySize=auto;html=1;exitX=0.75;exitY=1;exitDx=0;exitDy=0;" parent="1" source="veElxyi0WQyssnxSMCz9-205" target="veElxyi0WQyssnxSMCz9-205" edge="1">
          <mxGeometry relative="1" as="geometry" />
        </mxCell>
        <mxCell id="veElxyi0WQyssnxSMCz9-207" value="Cluster C" style="text;html=1;align=center;verticalAlign=middle;whiteSpace=wrap;rounded=0;fontSize=9;fontColor=light-dark(#000000, #ff9fff);fontStyle=1" parent="1" vertex="1">
          <mxGeometry x="497" y="535" width="56" height="30" as="geometry" />
        </mxCell>
        <mxCell id="veElxyi0WQyssnxSMCz9-209" value="Cluster D" style="text;html=1;align=center;verticalAlign=middle;whiteSpace=wrap;rounded=0;fontSize=9;fontColor=light-dark(#000000, #ff9fff);fontStyle=1" parent="1" vertex="1">
          <mxGeometry x="547" y="550" width="80" height="30" as="geometry" />
        </mxCell>
        <mxCell id="veElxyi0WQyssnxSMCz9-213" value="Clustered Categories" style="text;html=1;align=left;verticalAlign=middle;whiteSpace=wrap;rounded=0;fontStyle=1;fontColor=#7F00FF;" parent="1" vertex="1">
          <mxGeometry x="495" y="591" width="132" height="20" as="geometry" />
        </mxCell>
        <mxCell id="veElxyi0WQyssnxSMCz9-298" value="" style="group" parent="1" vertex="1" connectable="0">
          <mxGeometry x="200.5" y="718" width="181" height="44" as="geometry" />
        </mxCell>
        <mxCell id="veElxyi0WQyssnxSMCz9-295" value="" style="rounded=0;whiteSpace=wrap;html=1;fillColor=none;dashed=1;dashPattern=8 8;" parent="veElxyi0WQyssnxSMCz9-298" vertex="1">
          <mxGeometry width="181" height="44" as="geometry" />
        </mxCell>
        <mxCell id="veElxyi0WQyssnxSMCz9-260" value="reference 4401 stated that ....." style="text;html=1;align=left;verticalAlign=middle;whiteSpace=wrap;rounded=0;fontSize=8;fontColor=#000000;" parent="veElxyi0WQyssnxSMCz9-298" vertex="1">
          <mxGeometry x="11" y="22.5" width="119" height="13.5" as="geometry" />
        </mxCell>
        <mxCell id="veElxyi0WQyssnxSMCz9-259" value="Unique Facts" style="text;html=1;align=left;verticalAlign=middle;whiteSpace=wrap;rounded=0;fontSize=9;fontColor=light-dark(#000000, #ff9fff);fontStyle=1" parent="veElxyi0WQyssnxSMCz9-298" vertex="1">
          <mxGeometry x="11" width="130" height="30" as="geometry" />
        </mxCell>
        <mxCell id="veElxyi0WQyssnxSMCz9-299" style="edgeStyle=none;rounded=0;orthogonalLoop=1;jettySize=auto;html=1;exitX=0;exitY=0.75;exitDx=0;exitDy=0;entryX=1;entryY=0.5;entryDx=0;entryDy=0;" parent="1" source="veElxyi0WQyssnxSMCz9-232" target="veElxyi0WQyssnxSMCz9-295" edge="1">
          <mxGeometry relative="1" as="geometry" />
        </mxCell>
        <mxCell id="veElxyi0WQyssnxSMCz9-302" value="" style="group" parent="1" vertex="1" connectable="0">
          <mxGeometry x="40" y="285" width="80" height="60" as="geometry" />
        </mxCell>
        <mxCell id="veElxyi0WQyssnxSMCz9-300" value="" style="shape=image;verticalLabelPosition=bottom;labelBackgroundColor=default;verticalAlign=top;aspect=fixed;imageAspect=0;image=data:image/png,iVBORw0KGgoAAAANSUhEUgAAAQAAAAEACAYAAABccqhmAAAACXBIWXMAAA7DAAAOwwHHb6hkAAAAGXRFWHRTb2Z0d2FyZQB3d3cuaW5rc2NhcGUub3Jnm+48GgAAIABJREFUeJzt3Xt8XFW99/HPb8+k15SLBaF4zqEo9jaTWGlBUMQWRaFNWm5pM9NWq3BQxAf1KCLqwYjgI3g75znPOWqRi5QmaYP0MtMCirQIHJDTAk1mgNZK+6hYFAr0miaZ2b/nj6TQS9LMJHtm7T2z3q9XX69cZvb+djLrN2vvvfZaghVodecsG+7sHjE2JHqawkkoJyCcgHKCqowW0dEg7wAd1vOUYwEHCAHH9PxsF5AFXGBn949kP+jrqrJDRHcgvKaqr4rIDhd9BXW2Dd8zcuvd26bvL+7/2PKSmA5g9W/atLXhMX/fPV7EqXLFrRLk3QpjBcYCJxuO9wqwFZFtqu5WkFZxNbX9naM2rVs3PWM4m9UPWwB8ZuHYtcM6Ru6ZisgHQKsRqlAiwBDT2fLUgfA8ShtIK6q/H7q3cr3tMfiLLQCGLai+/52ZbMUHRJii8CHgXGBYf88LqAywUeAJRB4PSeeji1sv/bvpUOXMFoAimzZtbXjMq3vOVrRGRD4GnEF5/x1eEkgiknij3XnsgS0zOkwHKifl/MYrmrr3Jd4VylKLyoUi+lGg0nQmn9oDPIzogxlHki0ba182HajU2QJQIJ+ccP/oTKhipivUCVxE91l3K3euIk86aIuTrVh27wsXbjcdqBTZAuChT064f3QmPGSOonOA8+i+3GYNXhb4ncKyrFYsa0lf+LrpQKXCFgAPxKuSU1zXvcoRma8wwnSeEtcBrBKRRY1tM38LoqYDBZktAAMUi648SXDqVfjnnst0VvH9QUTuUM3e3ZSa/TfTYYLIFoA8xSOrJyPuvyjMJXjX5ktVp8DSrPKjpenajabDBIktADmKRRLnqnC9wEzs6+Zbijwhqrc2pWuS9vCgf/aNfBTd1+z3zkP0q0DUdB4rL22i/LBrUvuSlpY5WdNh/MoWgF400OBsrpp6mbp6M8I403msgVPY6oh8v2vCvjtsITiSLQCHUIlFkjUINwGTTaexvCTPi+qt49Ib7m2gwTWdxi9sAegxN5r4uAO3Ae8zncUqIOFZ1L2+KTX7N6aj+EHZF4D4xMR7NcQtQJ3pLFZRPexo9otL0hc/bzqISWVbABZOXn7c/q7Q10XkS8BQ03ksI7oEfto1dNiNLRsu2Gk6jAllWABUYpHkFQjfA040ncbyhb8rckNzauZd5XbpsKwKwNzomveENPtzFT5qOovlQ8pjOFzV1Fb7oukoxVIWBWDatLXhU17bc43CLcBI03ksX2sXuK1L27/Xkp7TaTpMoZV8AYhXJaeo6i+wl/WsfAjPusKVS1trnzEdpZBKtgA00OBsjk75X9p9ac+O2bcGIiNwS9fE9u+W6iCikiwAdZHEP4VFF4OcZzqLFXwKTzki8xrbal4yncVrJTdhRbwqWRcWnrON3/KKwNmq+mwsmpxvOovXSqYHsKD6oZEZt+NnICX3R7J8RPjlniF8PrGhdp/pKF4oiQIwP7Ly9Kw49wNVprNYZaHVJXTp0tSMP5oOMliBPwSIVyVmZMV5Gtv4reKpdsg+E6tKXGw6yGAFeKZalXjVmdercgd2Hj6r+IYCc6MnxoZf/ur4R9axLpAjCAN5CLCg+qGRGe1sRJllOotlqcrKilDFvMWtn9hrOku+AlcA6iKrTw5LNgEy1XQWyzrIRscJ1SxpnfEX00HyEagCEJu0KoIjq4FTTWexrF687CozgzQxaWBOAtZXJz6KI49jG7/lX+9yhMdikdUXmg6Sq0AUgFhkVUxcHgCOM53FsvoxCnFX1kcTc00HyYXvC0AsmpyPyD1AhekslpWjIQJL4tFVV5gO0h9fF4B4NHk16C+BsOkslpWnkCK3xyLJL5kOcjS+LQDxquT1iv4XPs5oWf0QRH9SH01823SQvvhyIFB9JHET8F3TOSzLCwLTqk6c56RebVxnOsvhfHcZMBZN3AB8z3SOErIf2IywGZVNivumI84uXHYpuhdAkJE4HKOqxyp6nIiMQxkHjMdOmOod4Yamttrvm45xMF8VgPpo4lqBfzedI+BeFnhEhbWuhn43MfX01oEuhNFAg7Ml8v53ZyR0nuBOR+R8lFO8Dlxe5NqmVM1/mE5xgG8KQDy66gpFbsdHmYJCYauoLHaF5qWpmhcKua95kRWT1AnF1JX5iI4t5L5KlCJc0dRWe5fpIOCTxhaLrIohshifnpPwqU5VaSTEnc2tMx8v/nTWKvGqNR9W3M+gxLDTruUjqzCvOVW71HQQ4wWgPpqYJvAQ9g2Uqw5V/SXi3tycuvjPpsNA9xRsFcJXgCvV3pmZqy4RmdHYVvOwyRBGC0DP2P4ngGNN5giILOh/hZ3MzYtbL/276TC9iUVXniTi/Ksqn8P25nLxpqPZD5lcnsxYAei+q899Cju2PxcbRPl8Y7r2adNBchGPrJ6s4v4XcI7pLL6nsg3Jnt2Umv03E7s3MshmQfVDI8PiJrGNvz97ReSz41MbzgpK4wdoTM98bnxqw7kKVwuUxNx5BSM6VnEStVMSRg6dit4DaKDB2VQ1ZbmdzKNfKReZU+iz+oU2L7JikivhFtBJprP43IrxqQ2XDfSS7UAVvQewOTrlRtv4j06ROzKj2s8KeuMHWJK++Pk9Q/VMVbnbdBafu3hz1dRvFnunRe0BzIuuqnGRldjx/X1RlK83pWtvMx2kEOLRxBcVfoz9+/fFFaG2sa12TbF2WLQC0DN19/9g7+nvS1bQzzamZt1hOkgh1UdXLRDkDuzt3X15wyV0ZrGmHC9KJV5Q/dDInnn7bePv3X5FZpd64wdoTs1a7KCXAh2ms/jU8Q7Z++rOWTa8GDsrSgHoXrHHztvfh6wg85pTNatNBymWJalZSVTnASW54KYHJod3D//PYuyo4AUgXpWss8t19UlVuboxVXO/6SDF1pSe9SsR+bzpHD726XgkWV/onRT0HEB84upTNeRuxI70653ot5vaZt1kOoZJsUjyO4jeaDqHT72hZN9XyCHfBesBNNDgaMi9G9v4+7Kmqa227Cc9aUrPbEBYZTqHTx0vGlpSV7esYMOqC1YANkXPuAGYVqjtB9xf6ORTxb+Dz49EM27FpwX+ZDqJLwkfDr84/LrCbb4A5lYnznBcnsJe6ulNxlF32pL07CdMB/GT+urkh8XVR7ATwPamS133A83Pz37W6w173gOYNm1tOORyO7bx90qQf7ON/0jNrTWPiYpvZsrxmQpxnLuumrLe8zbleQEY89qe6xTO8Hq7JeIvXbrvO6ZD+NWwTPbbwMumc/jU+3Z3bPd8inFPDwHiExPv1RAbgaIMYggaVeqa07X3mc7hZ/XRxFyBZtM5fKo9pG71venZW7zaoIc9ABUNsQjb+Puy1jb+/vVMk/Wo6Rw+NTzrOD8H9eyD27MCEIskr8Ce9e+TQllf78+Lqn2t+qKcH6tKLvRqc55UkoWTlx/XkQlvBk70YnulRuGp5lStnR0nD/XR5OOCfsh0Dp/6e2bosHEtGy7YOdgNedID6OyquBHb+PvkiF3lKF8hXF8toOEz7wx37Pdk7oBB9wDmV68cn3WdVuysvr1TNjelaybYQT/5UolFk5uA95pO4lOdIXUjgz0hOOgeQNZ1foxt/H1SWGwb/0CIInqv6RQ+NiTrOD8a7EYGVQDiVcmPATMGG6KEaUVIl5gOEVQayt4D2OLZF2VWPJL8xGA2MYgCoKKqPxjMzsvAo4tbZ201HSKomp+7ZBtgR00ejej3BnNZcMAFIF61+nJg8kCfXxZUVpqOEHyywnQCP1M4oz6avHigzx9QAWigwVHVfx3oTsuGZB8xHSHo1LWvYX9E+G4DDQNqywN60qbo1Dh2iq/+7BifejZlOkTQTXj+2Y3Aa6Zz+JoSeTE6pW4gT827AHRPTqDfGsjOyswjxV7koRT1vIZ2aHA/RLlp2rS1ed9KnXcBqHhx2AJgfL7PKzeKBmYprwD4vekAvieMG/Pa3rznEMyzAKgo8tV8d1KORGWT6QylQu1rmSP9Wr5XBPIqAPGq5EUokfxClSc37Ng3rUfCoax9LXNTNTeavCCfJ+RVABS+kl+estV1bPgke/3fIyMq3vUS0GU6RxCE8myjOReAeGT1ZJTz849UfhT+smjDVPuG9ciiDVO7ULEzBeVA4YJYdGV1ro/PuQCouPbYP0cCu0xnKDmiu01HCAgBJ+deQE4FIBZdeRIwZ8CRyowie0xnKDWK2KKau/oF1fe/M5cH5tYDEOfT2Fl+cybi2k8rjwlqi2ruhmTcik/l8sAcCoCKKlcMNlE5UWWf6QwlyBaAfChX5nJJsN8CEIskpguc7k2q8iDIUNMZSpCdbDYfwrh41ZoP9/ew/nsAIv/sSaCyoqNMJyg5in1N86Sa7bftHrUAfHLC/aOBAd9qWLZE7JvVa2ILQP7k8nhV8vijPeKoBaArFJ4LDPM0UxlQ+2nlOYVK0xkCaBhw1LsEj34IIMz1Mk25EBjj5eIN5a6BBseBU0znCCRXj3r5vs8CUBdZfTKInZd9YEbWR1f+g+kQpWLzxDP/UWGE6RxBpMK0nnE8veqzAITEnQOECpKqDDgStrdMeyQbcu1rOXAhVC7r65d9FgDBdv8Hw3XVvmk94iD2tRwMkT4PA3otAPOq1/wDcHbBApUDkfebjlA61L6Wg/Ph+vErez2H0msBcLOZWX39zsqNoNNNZygZKva1HBzHGRKq6fUXvT5c5MKCxikP766fvHys6RBBNze65j2IjjWdI+hUtdc2fUQBqIssGwLYiuuFTIWdP2GQRLP2NfTGx3ra9iGOKAAVzojzsIMuPCGoXTZt0GSm6QQlYlQFI464rH9EAVBXLypOnrJQ2zOc2hqAusiD7xDpvetq5U+dI1/LI88B2ON/Lw3pqghfbjpEUIXprAfsnZVeUY74cD+kAHSPGNJJxUtU+lSdBaYzBJWK2NfOW9HDZwo6pAAIITv012OCfjAeWW0XUc3T3OrEGWLHonhNsho+5+AfHHoIoJxb1DjlQVT0BtMhgsZx+YbpDKVI9dD7ew4pACpqewAFoZfPi6ywh1Y5mhtNTgQuMZ2jRPVeAOrOWTYcsF3VwnBcCV1vOkRQOOg3sSNRC2XKwrFr35rj460XuWLPyDOBIwYKWJ6ZXz9p9QdMh/C7uZFVZwIx0zlK2NCukbumHPjmrQLgavYsM3nKhiNO9v820GA/2fpQV7cs5Djyc+ynf0G5jvPWB9FbL7TA+8zEKScydXN06mdNp/Cr0AvDr0Gxd/4V3ltLhx1UaaXKRJJyo+j34hNXn2o6h98sqF51msBNpnOUA1HeausOwFVT1lcAE40lKi/Hachd1tuNGeXqqinrKzKuLAGONZ2lHChEpk1bG4aeArC3828TsCcAi+msChlxi+kQfrG7Y/sPgHP6faDllaHvenXnOOgpAFlc2/0vMkW/Uh9NlP217nhVsg641nSOcpOVUBX0FABRombjlCURWBKLJMp29GW8avV5qnoPYKdQLzJHutt8dwGAd5uNU7aGIyTL8V6BudXJqKq7ArvwjBlud5t3AFQYazRMeTtWxU3Oj6wsmwVY4xMT73VUHwKOumyVVTgqnAYHLgNq9zeWMe/KivP43OrEGaaDFFq8KjlFQzyO2pV+DBsLIAuqHxqZcTt3Y4/D/GCPC5ctTdX+2nSQQohFVp2PyHLgGNNZLHTonsoRjpttPxXb+P2i0oFV9ZFEyS3JXh9NfA6RB7CN3y+kY9SesWF1QmNR01msgwwVYVGsKjl9eGf2s3dumr3bdKDBmHf6mmN0WHaR2pWm/Md1xjqojjGdw+qFaqw97KyPVyWn9P9gf5obWXVmdlh2g238PuW4Y8IqcqLtAfiUME5Vn45HE0vCma4v3/PipTtMR8rFwsnLj+vMhL+jcA12gVn/Uk5wUN5hOod1VI7Cgq5wRSoWTc738+3EDTQ48Ujikx2Z8IvaPbrPNn4fU9XREosm7gQ+bTqMlSMhLS63/fXEysZ166ZnTMeB7oa/uWrqZao02FmlA+UXUh9JrhDR2aaTWHn7I6I/yAwZ3tyy4YKdJgLUTfnNsaGO/TGBrwLvMZHBGpTlEosmngA+aDqJNWAdCr9xRO6pHHLyikUbpnYVcmd1dctCFS+OmI7qJxUuBUYWcn9WASmPSSyaTNtuW8l4A1gnwiPiZh9Zkr74eS82Oi+yYpIr4Y+Cng98BDuEt1SkJBZNbMF230rVa0AaYbOqbhaVTQ7u6xmcPSFHdne54TcBKpzMcVlXR4VxK12cd6joeBEZhzIOiAAnGP1fWIXyhzB27bVSdgLwEZSPCAICLg4OoKqEpftoQRWcnt8BCIK9NFz6BIY62JmALKssKQxxsD0AyypXtgdgWeXKHgJYVhnTngJgWVaZcoBO0yEsyyo+gQ5bACyrTGlPAegwHcSyLCNsD8CyypVApy0AllWmeg4BZL/pIJZlGdHhaPcdZJZllR193UF5zXQMy7KKT+E1R0QDMdGkZVneEpEdDmJ7AJZVlpTXHFxsD8CyypLssIcAllWmRNwdDiLbTQexLKv41A294oib3WY6iGVZxRcKZbaGdw0LbavsQLErBJuUBbah/BVhH7BLkV2omzUdzBPihAQ9BjgGZQTCKXSvT29XDjJHw7uO+X8CEIsmXgFOMhyoXLQjPCnIOkXbXJVNru77Y0t6TlkNya6LLBviyIj3OKLj1SUqDtNRzgGGm85WJrY3pWpPCQMgbENtASgUha2gTSL8+s328FMPbJlR9ndg9hS8F3r+rQBuvuj0NUOPG545G5VPoBJDdKzRkKVtK0B3AVC2Ah8wmaYEvYnQoiKLm1tnPg5iJ9ruR09hfLT7n36zvnr1uaK6AKUOOM5wvFLzdgFQ9CWxpwC8sh34yfAu92d3bpq923SY4BJtbuUx4LHPjF/5lfawczXCl4GTTScrBaq8BD0FQJSUbf+D9heFW4btqbz77m3T7R2WHuoppLctHLv2/+wfuecKcfgGyimmcwWZiKagpwC4IafNcW0PdYC6BH46rMv9lv3EL6yewvqfC6ofujurndcp3ICd1XpgRFqh59LfVVPWV+zu2L4bu0hIvta6yDVLUzUvmA5SjuZWJ6OO6/4nyHmmswTM/u0nVI5at2565q2OfyyaeBaYbDBUkGQEbhmX2nBTAw2u6TDlTSUeTV6r8AOgwnSagNjQlKqdCgeuAnRrxRaAXPzZUTe2JD37CdNBLADRxhT/Xj9p9VMi2mwvHeak9cAXby0MomibmSyB8mhGKybbxu8/zc/P/D1deqYi9m/THyF14Mu3VwZynN8bCRMQqrIyM6r9opb0ha+bzmL1rmlz7Ws79zsfBX5lOoufqcpTB75+qwDs3Oc8jV0joC93vXLiyMtbnpzTbjqIdXQPbJnRkZnYPldVF5nO4lMdw/aMfObAN4dc/a+PJp4UOLv4mfxL4GeNqdqrTeew8qUSiyYXAVeaTuIzjzelaj984JtDFgcVsMdPh1reNbH9C6ZDWAMhmpnY/jns4cAhVPWQNn5IAVBbAN4mPPLm/lCspWVOadySW4ZaWuZkh+6pnA/6O9NZ/EIOO0l6WA/A/e/ixvGtPzjtoUvsXXvBd/e26fszOuQS4P+ZzuIDShdPHvyDQwpAU2r23xDSxc3kOx2uQ/2SLTN2mQ5ieaMlfeHroszBLoPX2rS59pBZwJ3DHyEqDxQvj/8ofGlpa+0z/T/SCpLGdO3Tin7TdA6jlCPa9hEFwHX0weKk8aUVzanan5kOYRVGc6r2RyC/MZ3DFBUeOvxnRxSAbLb9MaDs7moT2KfhzJdN57AKSTSk2c8D5Xi79q5jho454iT/EQWgJT2nE2FtcTL5h0JD83OXbDOdwyqse9Ozt6Bym+kcxabow4s2TO06/OdHFAAA7eVYoaQJ6VFDx/yb6RhWcWSO2fd96J4Rp2yo9Hpo32sByIZIAGVzm6uo3NhbdbRKU8uTc9pF+Y7pHEXkht2KZG+/6LUAtGysfRkolzEBL4xLrV9hOoRVXJXDxjRpz8SYZeDRe1+4sNcVwHotAN1kWaHS+IkIt9hJPcpPT4+vLM4FKPTZlvssAKFs+D5K/DBAYetfR1cuNZ3DMmPn/tBdwCumcxRYpsLpur+vX/ZZAHq6DKU+hvqX69ZNz5gOYZnRM9R7iekchSVrF7de+ve+fnuUQwCQ0j4MUCV0r+kQllmuI3ebzlBIgnvUHu5RC0A407mMUh00oTy+NDXjj6ZjWGYtba1JcdAceSWmHXH67P5DPwXgnhcv3YHIcm8z+YMKjaYzWP4gIiX5XhC4r7Gt5o2jPeaoBQAA1/2FZ4l8xBH5tekMlj9kRUvy/gDXkdv7e0y/BaApXbsW+IMniXxC4E+NbTXlNRLM6tPE1g3PATtM5/CUsrl7Udqj678HgCjCnV5k8guF35rOYPlHzziQkrripaK357IidQ4FAFD3LqB0hsqqPGo6guUvCutMZ/BQZ4WTuSeXB+ZUAJpSs/8GWjIDZtyQXQTFOoxTOjNhqUrj0a79Hyy3HkD3Zn8AlMISwjqywy2pcxrW4IUIbTKdwSuK5nxna84FoCk1u5XSOHb+q13G2zrcktaLXgb2mM4xaKIPLk3Xbsz14Xn0AAB1fpR3IP/ZbDqA5UeiSPCvdgn5tdG8CkBTeuaDQM7Vxaf+ZjqA5VNKTsfNPtba2DYzr156fj0AAJWf5P0cfwl+N88qlEBPBa/Crblc+jtY3gUgM2nfvUBwT5hosP/IVkEF99yQsjk7oT3vK3V5F4CWljlZEb6b7/P8Q2wPwOpLYAuAOPKtgSxjl/8hADCubUNTUFcQUrR0BjRZXgvqykGt49rWD2gR1AEVgAYaXHVpGMhzzdNK0wksfxIYZTrDQIjojQOd1m5ABQCgOV3zK+C5gT7fHOck0wksf1II4HtD1ze21a4a6LMHXABAVB2+OvDnmyGOTjSdwfKtSaYD5E+/ke+Z/4MNogBAc2vtb4HEYLZRbKJULRy7dpjpHJa/LJy8/DjgdNM58rS8KTV7UHMZDKoAALiEvgx0DHY7xaIwonPU3nNN57D8pTNbcQEQMp0jD52S5frBbmTQBWBpasYfBfmPwW6nmBSdYzqD5S8BfE/8qPGF2kEPXR50AQDoGjr0ZgjQMEolNu/0NceYjmH5Qyy68iSUWaZz5OGV4V3u//ZiQ54UgJYNF+xE+LoX2yqSyuywrF0K3OqmzteAIaZj5ErRr3l1R6t4sZFuKrGq5MMo53u3zYLalVFnfEt6ZqmvDGMdxYLqVadlXHkeCMiJYflNU2rmJwZz5v9gnvQAuomGRa8E9nq3zYI6JizuItMhLHMaaHAyrtxJQBq/wD4X52qvGj94WgBgceusrSg3ebnNAquNRxNfNB3CMmNT1RnfAqaZzpErRW70ejEbTwsAwPYTK3+M8KzX2y0UhR/VR5JBOgFkeSAWTc5HpcF0jtzp+szEfTlP9ZUrD88BvG1udeIMx+UpoKIQ2y+ATlXmNadr7zMdxCq8WCT5KUTvIDjX/Ttd5ax8pvrKlec9AIClrbXPCEGqrgwRoTlelRz0wArLz1TiVcnrEb2T4DR+gG8VovFDgXoA0H2CZVN0ysPA9ELto0CaM6PaP9Py5Jx200Es79RFllWGZfjdwGWms+RHf5eZuP/8gdzrn4uCFQCAukjin8LCRuC4Qu6nAJ52nNBlS1pn/MV0EGvw5kdWnp7tXiW3ynSWPL2eCVHdsrH25ULtoCCHAAe0pGv/hOqVhdxHgZzlutnn6qPJmaaDWINTH01ckhXnfwhe4wf06kI2fihwD+CA+kjyLhFdWIx9eUyBH44aOuabizZMtTMJBcjCsWuHdVbu+YnC50xnGRDh9qa22qsKvZuC9gAO2DtMryGQk4cgwHW7O7Y/PjeatPMIBET9pJXv76jc83RgGz9sGLq78tpi7KgoPQCA+MTVp2rIXQ+cUKx9emy/iDR0Tdj3w0KdkLEGZ9q0teFTduz9iqreRIDG9h/m9bCjUxe3ztpajJ0VrQAAzK1adZGjkqRIPY+CUB7D4aqmttoXTUex3haPrJ6skr0dZKrpLIOQBfeiwU7ykY+iFgCAWNWqG1H5TrH367EugZ+GnCHfWNz6iaDc+1CSaqckRozq4GsKNxDcT/1uwg1NbbXfL+Yui/5JPL7tmZuBFcXer8cqFK7NuJ2t9kqBOfWRxOWVHWxS+DZBb/zwq6a2mluLvdOi9wAA6s5ZNjy0e/gjAmeb2L/XRPmtq+51zc/PDsw9EEE2N7LqTEf4Ich5prN4Q9eHnaHTTPQmjRQAODALS+gpRMeayuAxV1XuyaLfbknX/sl0mFI0P7LydFecmxXmYPC967GXwk7XOYtbLzUyo5bRF3FuNDnRQZ8AjjeZw2NdAs1ZQt/x+tbNclU/eflYukI3iMhngLDpPB56PeS4H7y3dbaxtTaNV9F4JDldRR8k+Mdwh+sEuSuk2R/em569xXSYIIpNWhUhJNehzKO0Gj5Ah4jz8ca2mb8zGcJ4AQCIRVfNAWkkWHdo5cpVlYQ47k+a2mY9ajqM/6nMjSYvcOBfgI/jk/eoxzKo1jelZw1oPT8v+ebFjVUlPo1yBz7K5DnhWdCfO+3hpiVbZthlyg8Sr0oe76ouEOEqlIjpPAXkivLpxnTtPaaDgM8aW7wq8QVVArXGwADtBZY66t65JD3rv72c4y1IGmhwXoxOOU/QK0AuJyBz8w2CCnJNY6rmp6aDHOCrAgAQiyS/hOhPTOcooj8LLFelpSld80Q5FIPYpFURFRaIIwtQTjGdp1hE5OuNBq71H43vCgBAPJpo6BncUW5eAl3tIsld+0OPPrBlRmCWXDua7nEfI8530BqFmcA/ms5UbAoNzala342A9WUBAIhXJa9X1aIOi/SZPcBahHWCPNo1Yd9zQbkJadq0teF3vb57qpuV8wSmIXxEYYTpXIYoyteb0rW3mQ7SG99Khoe3AAAFQ0lEQVQWAID6SOIaEf4Dn+cskp2i/DcOG0DXi4Q3+GXGovjE1acS0imKTgXOpHuEZ6XhWH7gCvIFPx3zH873DStetWqhqvyC0rxEOFivAs+r6iZxZJOqbAqJ/KnTDb3ckr7wdS93VPf+NSc6ndlTBDlVRMcrMh6YIOgEYLSX+yoRWVE+45ez/X3xfQGAt8YJLKb0BgsVUjvKn1V43VHeAN7A4Q3X1T0AgtMhDvsAXFdHgg4BEHFGIRwP7vEgx6syWuAfKP0z9F7qQHWeH67z9ycQBQBgXmTlh1xxVhDcCUWs8vAGopcEZdBXYAoAvDW76xrgvaazWNbhFLaKMCNIk8UEamaee9Ozt1Rkus5R5AnTWSzrEMLvK5yus4PU+CFgBQDgnhcv3bF3qH4cWG46i2UBINyXqWyfbuqW3sEI1CHAoVTiVau/pqq3YK8QWGZkBW4el9pwUwMNrukwAxHgAtCt53biZuCdprNYZWWHC/Glqdpfmw4yGIEvAAD10RX/CKFfSfcgFMsqLOHZsOhlxZq6u5ACdw6gN82pi/+cHdX+EeBO01ms0qaqi4burvxgKTR+KJEewMHi0eSlii7Cjk6zvPWmqFzdmK5pNh3ESyVXAADqIqtPDjvZu1C50HQWqwQIjzgS+pRf7r3wUkkWgG4q8WjyWoXbsEOIrYHJCNwS5LP8/SnhAtCte8ko9xfAFNNZrCDR9a7KlUvTtRtNJymkkjgJeDSN6ZnPbT+h8myBL9F9j71lHU27iHw9M3H/2aXe+KEMegAHW1C96rSM6/wc9ALTWSxfetQNOVct3Thzs+kgxVJWBaCbSrwq8SlV+T5wkuk0li9sV/T65tSsxaaDFFsZFoBuC6ofGpl1O69TuB57r3u56hT4mewP/Wu5TtNetgXggLpI4p8qhJsVFpjOYhWPQtIR+WJjW81LprOYVPYF4ID66sRHxeVW7NWCkqbwP47K9Y3pmrWms/iBLQCHiVclP4bqrQpnmM5ieSolIjc1ts28rxzWXsiVLQC9UolFkjUI3wXeZzqNNSgviPL9cekN95bqYJ7BsAXgKOrqloUqXhxer8p12EIQLMKzuPqD8elnltqG3zdbAHIUiyTOVeF66V7Zxr5uPqXIE6J6a1O6Jmm7+v2zb+Q8xaIrqxHnX1Bi2HsM/KJTVRpDjvx4SdvMNtNhgsQWgAGKVyWPB+pU9QtAlek8ZUnZLI7cGZLOu4I4H58f2ALggXhVcorruleJyDxgpOk8JW4/kBCRRY1tM39ru/mDYwuAhxZOXn7c/q5wnQhzgOnYyUq9kgFZK7hLh4Szv7r7uUveNB2oVNgCUCB1kQffUUFXjSvUCVwIhE1nChhXkScdtKVLnaUt6ZmvmA5UimwBKIL5Ex8ck3G6ahC9UJCPAceYzuRTO4GHUR7M4CRtoy88WwCK7Kop6yt2dWz/EKoXishFQLXpTAYpsBHlQRx9cPvoUU+sWzc9YzpUObEFwLB5p685Roe7Z6F6rsKH6P433HSuAskAGwWeQOTxrrCzruXZGa+aDlXObAHwmYtOXzP0HUO7pmaRs8CpFtEqIELwblneD6SBVlVtQ5zf79zvbHhgy4wO08Gst9kCEAB1dctC4ReHvxfValWJivBuRcaK6GkoYzD3d1SE7aqyVXC3os5L4pBStC0zof0PLS1zsoZyWTmyBSDgLjp9zdDRI7rGZrPh08TJnqzqjAYdDZwI9HwtxwKjep5SCVTQPR/ksT0/2wm4QBdvz5u4G3QnyA6E11BeA9kh4u7AdbY7oey2HfsqttlP9GD7/ymiCIl/3JwQAAAAAElFTkSuQmCC;" parent="veElxyi0WQyssnxSMCz9-302" vertex="1">
          <mxGeometry x="25" width="30" height="30" as="geometry" />
        </mxCell>
        <mxCell id="veElxyi0WQyssnxSMCz9-301" value="Operator" style="text;html=1;align=center;verticalAlign=middle;whiteSpace=wrap;rounded=0;fontStyle=1;fontColor=#7F00FF;" parent="veElxyi0WQyssnxSMCz9-302" vertex="1">
          <mxGeometry y="30" width="80" height="30" as="geometry" />
        </mxCell>
        <mxCell id="veElxyi0WQyssnxSMCz9-310" style="edgeStyle=none;rounded=0;orthogonalLoop=1;jettySize=auto;html=1;exitX=0;exitY=1;exitDx=0;exitDy=0;entryX=0.5;entryY=1;entryDx=0;entryDy=0;" parent="1" source="veElxyi0WQyssnxSMCz9-295" target="veElxyi0WQyssnxSMCz9-301" edge="1">
          <mxGeometry relative="1" as="geometry" />
        </mxCell>
        <mxCell id="veElxyi0WQyssnxSMCz9-311" value="Recieves" style="edgeLabel;html=1;align=center;verticalAlign=middle;resizable=0;points=[];" parent="veElxyi0WQyssnxSMCz9-310" vertex="1" connectable="0">
          <mxGeometry x="-0.1489" y="-2" relative="1" as="geometry">
            <mxPoint as="offset" />
          </mxGeometry>
        </mxCell>
        <mxCell id="veElxyi0WQyssnxSMCz9-324" value="" style="group" parent="1" vertex="1" connectable="0">
          <mxGeometry x="787" y="550" width="32.370000000000005" height="156.5" as="geometry" />
        </mxCell>
        <mxCell id="veElxyi0WQyssnxSMCz9-314" value="Fact 1" style="text;html=1;align=left;verticalAlign=middle;whiteSpace=wrap;rounded=0;fontSize=10;" parent="veElxyi0WQyssnxSMCz9-324" vertex="1">
          <mxGeometry width="32.37" height="30" as="geometry" />
        </mxCell>
        <mxCell id="veElxyi0WQyssnxSMCz9-315" value="Fact 2" style="text;html=1;align=left;verticalAlign=middle;whiteSpace=wrap;rounded=0;fontSize=10;" parent="veElxyi0WQyssnxSMCz9-324" vertex="1">
          <mxGeometry y="22" width="32.37" height="30" as="geometry" />
        </mxCell>
        <mxCell id="veElxyi0WQyssnxSMCz9-320" value="Fact 3" style="text;html=1;align=left;verticalAlign=middle;whiteSpace=wrap;rounded=0;fontSize=10;" parent="veElxyi0WQyssnxSMCz9-324" vertex="1">
          <mxGeometry y="46" width="32.37" height="30" as="geometry" />
        </mxCell>
        <mxCell id="veElxyi0WQyssnxSMCz9-321" value="Fact 4" style="text;html=1;align=left;verticalAlign=middle;whiteSpace=wrap;rounded=0;fontSize=10;" parent="veElxyi0WQyssnxSMCz9-324" vertex="1">
          <mxGeometry y="71" width="32.37" height="30" as="geometry" />
        </mxCell>
        <mxCell id="veElxyi0WQyssnxSMCz9-322" value="Fact n" style="text;html=1;align=left;verticalAlign=middle;whiteSpace=wrap;rounded=0;fontSize=10;" parent="veElxyi0WQyssnxSMCz9-324" vertex="1">
          <mxGeometry y="131" width="32.37" height="25.5" as="geometry" />
        </mxCell>
        <mxCell id="veElxyi0WQyssnxSMCz9-323" value="" style="endArrow=none;dashed=1;html=1;dashPattern=1 3;strokeWidth=2;rounded=0;" parent="veElxyi0WQyssnxSMCz9-324" edge="1">
          <mxGeometry width="50" height="50" relative="1" as="geometry">
            <mxPoint x="15.840000000000032" y="133" as="sourcePoint" />
            <mxPoint x="15.840000000000032" y="93" as="targetPoint" />
          </mxGeometry>
        </mxCell>
        <mxCell id="veElxyi0WQyssnxSMCz9-326" style="edgeStyle=none;rounded=0;orthogonalLoop=1;jettySize=auto;html=1;exitX=0;exitY=0.5;exitDx=0;exitDy=0;entryX=1;entryY=0.75;entryDx=0;entryDy=0;" parent="1" source="veElxyi0WQyssnxSMCz9-320" target="veElxyi0WQyssnxSMCz9-174" edge="1">
          <mxGeometry relative="1" as="geometry" />
        </mxCell>
        <mxCell id="veElxyi0WQyssnxSMCz9-327" value="" style="shape=image;verticalLabelPosition=bottom;labelBackgroundColor=default;verticalAlign=top;aspect=fixed;imageAspect=0;image=data:image/png,iVBORw0KGgoAAAANSUhEUgAAAQAAAAEACAYAAABccqhmAAAACXBIWXMAAA7DAAAOwwHHb6hkAAAAGXRFWHRTb2Z0d2FyZQB3d3cuaW5rc2NhcGUub3Jnm+48GgAAIABJREFUeJzt3Xl4VOW9B/Dv7z0zgQgElc1CmJkAllaKG6641BTIBNTaRVBbba9daGtLyWRYenvbOu1tb5WSCZRqW1q116021laqhEyCxraK9tZuVrRYhEyCWIsbCUqSmXl/948AsmSdOTPvmTm/z/P4PJDM+55vfDi/nOVdCMJWy6bGxqc0B4ipDJoDTDSBCGOYaQzAYwkYA6AYwHEHmowAUHTgz3sBaAI0A3tBeIuZXgP4VQL2EPAaGG3aohYi1ZJQ3fF12xd0mfg5RWEg0wHy1fLAxpO09sxkwmkgzATzTICm450TOxcYjF0APweFv0Grvysr9Uz7ieOeX/+nsxI5zCHylBSAQViIOqvUV/IeBbpAE11IwCyATzGdqx9JAH8D4QloejxRlHxs3fYFe0yHEs4jBaAPS6c0+TxJXcmE+QDmABhlOlMGGIRnAd4ERsO+sWMflysEAUgBOEKVv+FMRWoRmC8DMMN0nizqALAZTL9KFCV/s277gnbTgYQZri8AodKmmWTpq5ixiAgnm85jQCeATUyos/bjodWvBN8yHUjkjisLwIrpG0al9g+/hgmLAcwyncdBOhj0IFjfWdtaudl0GJF9rioAYV9sFhO+AOAqACNN53E2/gsT1lv76S65KihcLigATCFfbA4RLQVwmek0eagdhJ95EqnvrXppwS7TYYS9CrYALJ71tHfUq69/ksFhAO8xnacAdAG4B5Z1c3TH3BdMhxH2KLgCEEFEtftmfxTE/wNgmuk8BUiD8ICVpP/63q6Kf5oOIzJTQAWAKRxouppZRwB6t+k0LpBgwh3eROq/5dYgfxVEAQhP3nQ2K7UGwGzTWVxoP4i+3/mW99u37infZzqMGJq8LgCh0kcmwUp9l8DXIs9/lgLwEpi/Gm0N3gUQmw4jBicvT5oImj3t/u4qAN9EbiffiIEwfpey9OK1O+dvMx1FDCzvCsCysk2n6pT6CQjnmM4i+pQAUbRkxJvfiGxd1G06jOhb3hSAJdPqh3m7rRtBWA7AYzqPGBgDz0DTp2vbKp42nUX0Li8KQJW/6b0KqXsAOsN0FjFkSRC+09ay97/vx6KU6TDiSA4vAExhX+NnmRBFz8o5In89xWx9vLZ17g7TQcQ7HFsAQqUNJ8JSdxL4UtNZhG3eBPgz0XjlA6aDiB6OLABVgcbTFfMDAKaYziJsxyCs2zdmzDJZlMQ8xxWAsD/2cQbWQ17vFTbG71KWtWjtzrmvmI7iZo4pAAtRZ5UGSmqIaanpLCJnWpXSl6/eOf8Z00HcyhEFYNmE2AhdzPeC6YOms4ic26fAV6+OV240HcSNlOkAywMbT9LD8Zic/K41UoM2hPyxG0wHcSOjBaB6yuZ3p9j7FICzTOYQxlkE3BL2x/7bdBC3MXYL0DO4R28GMNFUBuFIPyyJP/mlCCLadBA3MFIAqvwNZyogBtBYE8cXjnd3Sbzo+gjKk6aDFLqc3wJU+2OzFehROflFP65t93fduRB1lukghS6n/4OrAo2nExADcHwujyvyEc0sOb64rHLv1A2P4TFZXyBLcnYFECptmmkxbwZwQq6OKfIbga9r95//E4Ad8bq6EOXkCmB5aePJbPEjAMbn4niioJxx3gnbj3/qzbsbTAcpRFm/Alge2HhSykITgHdl+1iiMBHT0pA/ttx0jkKU1UurUOmWYlgdzQScm83jCFdgBl9bG6+813SQQpK1K4AIIoqsjnvl5Bc2IQLdVu2PycrPNspaAdgbOC8K4EPZ6l+40nAADy7zx8pMBykUWSkAYX/s4zKrT2TJuBTw4OKJD8l0cRvYXgCqyxpOOzCfX4isIODUkd6in5jOUQhsLQBf8T18AjT9CrKYh8i+j4X8DV8yHSLf2VgAmLqo6C7IMl4iRwgUDZU1yP4QGbCtAIR9jV+SBTxFjnlJ070rpm8YZTpIvrKlAIR99acw4WY7+hJiiKYmO4evMR0iX2VcAJZMqx8Gsu4BUGxDHiHS8anqQOwq0yHyUcYFwNtt3cjA6XaEESJdxLhladnmCaZz5JuMCsCysk2ngrDMrjBCpIuBMR6dkluBIUp7LsCBLbqfAjDLxjyF7BUQfgfG38D0Aiz9QoqsN4qTXR03tV765uKJDxcPO84a4elUoy2LfCnidwN4D2k6H4RZyPHaDXmLcXm0Nfiw6Rj5Iu0CUO2PLQPwPRuzFCB6DqzvZODh2tbgcwCltbDFyilNo5Nal4NxFQNXQJ639I3R5inunLFq2xUdpqPkg7QKwIpJ9aVJj/UPyIadvUkCuI81rc3GttgrpzSNTmj9MTCWA5Ax8b3iaDReGTadIh+kVQCq/bG7AXzc5iz5TgO4g9n6n1zsgBtBs6fd1/UxEEUgheBo3SmlT127c/4200GcbsgFoMq/6XwF9UQ6bQsX/wVk3RBtmfdUro8cKt1STJ6OlWCsRM9sOQGAQRtr4xWXmc7hdEM6iSOIqHbf+U+CIMMveyQBRNrie2+6H4tSJoP0DMay6gDMMJnDSYhUZU3LvJjpHE42pNeAHYHZV8nJf8huUpgTjQe/Y/rkB4Ca1gXP7Ut0n0OgO0xncQpmvTqCiPHt75xs0FcAC1FnTfaPfhbAe7KYJ1/8I2Wp4Nod81pNB+lN2Ne4lIlrIbdpYMI1tS3B+0zncKpBV8fJgeOvg5z8ANEfKVF0kVNPfgCoaa1Yy8BnARi/MjFNMSKywUjfBlUAFs962gvmr2c7TB7YykldWbO7/FXTQQZSGw/eBqIvms5hGgPTSwOjrzWdw6kGVQBGvfr6J+H6ef4U55QnWLur8nXTSQYr2lLxYxC+aTqHacT4ulwF9G4QBYCJwdXZj+JoXRr6I7W75rxkOshQRVsqvsmgX5nOYdjUyb7jP2I6hBMNWABCvsbLALw3B1kcjMJr4pV/Np0iPcRM3k8D2Gk6iVHEK0xHcKIBCwARXD2kkoFN0XjFLaZzZGJNS/mbxOoTANy8yeZZockNF5kO4TT9FoCwLzYLwPtzlMWJOj06tcR0CDvUtM57nEA/M53DJLJk6vrRPP19kwlfyFUQRyLc/L22BS/a2eXiiQ8dN8I7LEisPwiiMwBMRs+OyfsZeJ3A24hoc4rVhjXxec/beexub3KlN2F9CG7doZnp0uqpscnRF4NtpqM4RZ8DRZZMqy/xJqyXAIzMYR4neSPhTQXWbV/QbkdnVf6GdxFRhBjXYfDTebcCfGM0HvxVulOJj1YdiEXAuNGOvvISIxJtDbr+zchBfd4CeJOea+Dekx9EtM6Ok38h6qxqX+xGBfonMRZjaHP5ZwD0y2p/45ZQadPMTLMAACf5+wDcO1ee8CkZHvyOvv9HMH82hzmcpgvd3nWZdrJyStPoUv/oh0CIILO1E84jS28JB2IZ77VYu6vydTBuy7SfPObbGzivwnQIp+i1ABz4bePapb4YtDHT0X7hic1jEyneQsB8m2KNZMYDIX/shkw70or+145A+Yo0/YfpDE7R+xWAlbo6xzkchTQyOkEWz3ray97uOoBPsSvTAYqA71f7Gxdk0smaloq/MvCMXaHyDuHyZRNispoV+ioATAtznMNJ3k4MS2Y0h3zkq69HAZTblOdoFsD3ZLpFNhF+bVegPHScLoYsFoJeCkDYF5tFhJNNhHEExuPrti/oSrd5z+0TZ3yZPoDjmeimTDogwqN2hclHzLTIdAYnOKYAsHL1b39A4bGM2lv6ZmRh2/WjMfPC8ORNZ6fbftRxe58C8JaNkfIKgRfInoK9/UNldvWlERP9Kd22odKmmTY+9BsIsaWWp9s4snVRN4C/25gn3wxPdBbPNR3CtCMKQPXU2GS4fE05TfSPtBur1IdtjDIwxvxIoDn9hUAJL9iYJv8QV5qOYNoRBYASOfvt5VRvn7DjiV3pNiaiD9oZZhBG7uOuORm0T7/YFQDSrv/3fmQBYCCj10sF4N8RRHQ6DUOlW4oBnGFzngFp0PlpN2a8YmOU/EOYHPI1uPqK91ABWIg6C5S1V1f5gdIfIqvUm2XIwcO/YzCmpduUGLbMc8hnSpGrRwUe+gc7yV9yGoASg1nM4/QLAJN1vJ1RhnDk9I+rlHvnBBygmS40ncGkQ9OBLaYL2PWLSGN2tT/m5kUzXIfAri4A71yyEmYbzCHSRErtTbux1q5/Dw5g/PLSRtcOfDtUAJhxgckgIj3M/M9022rCaDuz5KuUx73/9hUALA9sPAmEyabDiHTwX9JtqUAT7EySr4g57RGV+U4BgNYeWxabEDmX4BSa022sZacnAAATXPvvv6cAEE43HUSkgXhTJhuVENjly70fwDgVcOcjcAUARHif6SBi6BTT2nTbLplWPwyA3esV5KvRS6dsduUtcE8BYJxqOogYIkLT6ngw7Sm93oSaDeA4GxPlNSupXXkOKABguHj+f356y0qlMlqynQHXz4Q7HCl3ngNq2dTYeGS2YKXILQbT9ZnuV0BEl9sVqBAwI6MVlvKVQsqdP3i+YmBltLXi/kz6CE1uPAvs3iffvSFCwHQGEzwpzX4iVz4AzTcahC/VtgR/mGlHpPR/9LMnjCu59QrAQ3DnD55nusB0XTSe2W9+AAiVNpwI0HV2hCowrjwPFEAnmQ4h+vUWkboi08v+g8iiarh91mfvRtwwrtl1O2EpKJxoOoTo0x7WdElNy7yMlik/KDyxeSyAL9vRVyEqGtE51nSGXFPMGGc6hOgNxVNKX1TbVvG0XT2yt/tmADIDsA+WVmNMZ8g1RQzX/dB54Hl4+KK1O+dvs6vDZYFNlwC43q7+CpJS7rsCAMktgJMQ8CSn+EI797BfMq2+RLP6KeTRf780p1z3y1BBhoM6CD9iDe8MZjLBp5c+yZuwbgcw1b4+CxUNZev2guABuEh+MTjCPfvGjr1+/Z/OStjZabWv8RsAPmpnnwVsmOkAuaYAct0P7Tz0g5L4k5+w++QP+WOfBuFGO/ssZERcZDpDrnkAuO6HdhSim6MtFV+xu9tQoOF6YqyHXN4NnnbfFYAHgNd0CJdKgfkL0XjwJ3Z3HPLHbiDGOpjYpyCfkXLdL0MFIGk6hAt1gemaaGul7Sd/ta9hJQG3QE7+ISMgZTpDrikAnaZDuMw+Ylxu19DedzCF/LEoiG6yt1/3YHB3um3DgaZgVWBTwMY4OSEFILde0eD317QGm+zsNDKjrijsb7yXgJCd/boNMbrSbauRmq9YvRAKxH68ZFp93oyuVQDtNx3CJVpgWReviVf+2c5Ol02IjWjfN3oDA1fb2a8bsaK0rwCIMQKAlxiLvQlrW7WvYWVGW7fniAJYCkAOEGNxdMfcF+zsMzyxeawehkcBuH6fe5ukfQUA0OED6k4A0U3t3P3sMn/sAxmnyiJFcguQE6S0re/4V0xunMhF3Y+CcI6d/boZQ7+RQfPeRtRO1cAj1YFY3RcnbXbkMGPF4H2mQ4ihCfvqT0ko/oMs62WzFNIfgs39DKlnLBzmSW2t9jV8Iu3+s0SB6GXTIcTghSdvOptJ/ZaAUtNZCo2yaE8GzQfapn0CiP437I/9fMm0escsyKIYvNt0CDE41b7GOazUIwC5btpqLnR7Uq+l3ZgwqJW1GLjam/A8sywQOzftY9lIkYZcAeSBcKDxGhDXQxb0yBY9ZntxJs8Axg/+o+zXjN+GfY1LTW9JpgApAE4XCjR8npnvhszbyKaXIyhPa1TsyilNowEM9ZXfMCZeU+1vvN/kWoSKAbkFcDpWV0GG9mYXYUe6TROZbbP+0eEjurcsndLky6CPtCkFLQVAuB4ztaTdNpHMpAAAjJlWSm+pCjTmfJduNUoV74ALJ0EIcTgiTvsKABZNsSHCJMX8eMgXy+mWbSrSUt4JcEb7zAmR7xjYmW5bYrZrubURRPh1KNCQs8VbD9xX0nO5OqAQTqQ0ns2g+TTbggAWMd1W7W/8oo199ungg6WtuTiYEA6V6kh2P592aya7F1wlgNeFfbElNvd7DAUARCQFQLgWAdvX77787Qw6sPMK4FCvTFjbM1Ygew4UgJQUAOFaTHgm3bbLpsbGA1nbW4OYuDbsiy3OUv89BWDkcR3/gMwKFG7F+FvaTVPqDDuj9IKYcGvI3/jhbHSuACCydVE3GP+XjQMI4XSK9BPpt9bZLgAAYBH4nmp/bLbdHb8zuozwe7s7FyIPJNq7k2n/8mONXA3eKSbgN0vLNk23s1PPwT8Qqd8zazv7FodJQV1T7WtIcwYYGxkm6gpEf83kASARTmc78/SDgTGWVvWh0oaz7do+7lAB6PYknvQmrBQAy46OxZGIsRgke3Q4Duu0r3xXTN8wKtmJk+2MMwhTYNHdEUQuiyCS8W/sQ7cA67YvaAfSfxgiRF7S6rfpNk11HTcbBiZpETC/3Xf+1+3o64jwDKT9P0OIPNTd2el9NN3GzPoiO8MMCeEbYX9sfqbdHFEALODhTDsUIn/w72/dU57+mpiEi20MM1QKwF3hso3+TDs5ZGS86HcAMlkVRYi8wcCmdNsumVY/DIyz7cwzVAyMYe25J4JI2rchRzQ8sCJKfcbJhMgHjIZ0mxalrHMx9FWAsuGCDt/5aU8cOqZyMPNvMssjhPMRsK22tTLtIfBac9DOPJlgwk3LSxvTehtxTAHo2j+sHhntkCKE8zHhvkzaE+hSu7LY4LiUxT9biLohv8I/pgAceCjSbEssIRyKdKou3bYrJtWXAjjVxjh2mO3zjb5hqI16fXhAwN2Z5xHCoQh/r2ldkPYiOEmv51IAjhvVxYRvLw9sHNT+BAf1WgB0atSvIG8DRIEi4N7M2rOTLv8PV5LSnshQGvRaAGp3zd5PwM/tSCSEwyStFN2ZbuMbxjWPZMYcOwPZivCZ6rKG0wb78b7fHzJutyWQEM7y8Kq2irSXwh9enPgQet8J2CksaLplsDsO9VkAalqDfyLgr/blEsI8Bf5pJu2ZcLVdWbLognCg8YrBfNDT73cZt4PwfVsiuR7/HKRa02vK1wCQKcGZYrTFW9vTHvwTKm04kcDz7IyUNYwbAd4AUL+zlfstAFZx58+SncO/hYG3PhYDUMTrV7dUPJZO25C/8VySNQEyRqAf3I9F6W+C48EicH7sz8jA6SFf42W1rXiov8/1O4Z41bYrOsD4ob3RhDCiI6W86zPpgBgftytMLpCiAacMDziJIGVZawHstyWREIYQaP2alvI3021f5W96L0AX2Jkp65jPDgea+h2yPGABWLtz7itMuMu+VELkXDJpUUbPshTpz8OBg38Gwpz6Wn/fH9Q0QlJWDQBZMFDkJ+a71+6Yl94DWACh0i3FYFxrZ6TcoQur/U19rlw8qAIQ3TH3BQZ+ZV8oIXImoYi+lVEPno5FyN7mH1lH0J/p63uDXkhAK/01AElbEgmRK4zbV8eDae/8CwCkMeRJNk7CwLUrpm8Y1dv3Bl0A1u6cvw2M2+yLJUTWdcGL72TSwbLApktAOMeuQIaUJLuKP9bbN4a0lJAm/iaA9NdQEyKHGLg1+mKwLZM+NKvlduUxiZg/39vXh1QA1sQrXwahxp5IQmTV60jxtzPpIFTaNBNAxivvOgEDp4d99acc/fUhLybY+VbRagD/siWVENlC9NVMd88hS69AHr7664uGuvLorw25ANy6p3wfQcYFCOdi4Jm2ljczmvSzfHL9VABX2RTJEUhR5gUAADQwK/M4QmQFg+jLGY35B5BSVgSA155IDsGYGQ7E3nP4l4ZcAJZNiI0gIL+GRAo3+WltS0VGO1wd2IH3GpvyOAozPnr43/ufDtyb4XwJQMPsCuQWsjtwTrysqWhFpp1YWn0HhbpJLuODwDuvRodcADTIMeuh5xPZHTgXeEkmE34AoMrfcCaAj9gUyHkIZy6ZVl9yYDPgod8CEFBhfyohMvZANF75QKadEFQNCujJfy88wxLq0KamQyoA4bKNfgam259JiIy81JW0PpdpJ9W+xoUEvsSGPI6mQZcc/PPQrgBSHrn8F06jwfTJW16a+1omnYRKtxSDeJVdoRyu/OAfhjgUWO7/hcMQr462VjyScT+qfTmAQMb95IfTqwLNxwNDKAARNHsI/IHsZRJiyJ4qGdE+4LJXAwmXbfQT0Uo7AuUJy8PdZwJDKABv+hLnQhYHFc7xiieZWhjZuqg70444Zf0Yzl7r33aa+FRgCAVAkZbLf+EUSSa6atVLC3Zl2lG1r+ETcOOtLdNMYAgFgEHy+k84BK3MdLQfAIQnNo8F0Wo7EuWhwV8BfMX38AkEnJXdPEIMyu3ReEXUjo7Y0/0DAOPs6CsPzViIOmtQBaALnnko1KGRIm8w6LGSkXu/YEdf1b7GhaDCmu03RMWTp5w4dXCrArvxHkk4DD3H5P2wHQ/9VkyqLwXxj+xIlc84mfQNqgCwDP8VJjHa4OHKTMf5A0AEEZX0WHcij1f5tY2iSQNOBgr5GmYQUJqLPEL04t+aVHDNi/MyWtvvoHb/7P8CuHzgTxY+YpQOeAWglDz9F8a8CajKNfF5z9vRWdjXdCHA37CjrwIxacACwCyX/8KIdtK6Ihqf9xc7Olse2HgSk74P6ayBUaiI+y8AkUDzcAAX5yiOEAe9AVLBmrb5f7Sjs8Wznvam2PNLAJPs6K9gaDqp3wKwlxIXw2VDJIVxr0BxebRl3lN2dTjy1VdrIcvYHYtwXL+XQ0qjgnMVRgigFZY1L7pj7gt2dRgKxD4Jxhft6q/AFPd7BcBgef8vcoPwd3hwoZ0nf7gsdjExfmxXfwWo7wIQKn1kEoAZOQwjXIqAzV6lLsp0G6/DVfmb3ssaDwKQBWz7dlzfVwCeRAUKe2004QAEuqNj7JgFN++Yt9euPpdMqx+noH8D4AS7+ixQxX0+A1BMcv8vsikJ0MqaeEUUcfs6vWFc80hvMrER4Gn29VqwPL0WgAgiqh2Yk+s0wi34VbC62palvA4TKt1STFbHb8A4285+C1hnr7cAe8vOOwvunSYpsutPpFJn2X3yL571tJesjjoctuClGAjv7/0ZgJbhv8J2GsSrSkbunV2z81IbL/qBhaizRu557S4Al9nZb6FjUGevtwAEDsrzP2GjfzHx9bUtlQ12d7wQddZk/+ifocB28s0Jxv5jCsCSafUlSFCae9gJcYwHOMWLa3dVvm53x5EZdUV7942+B8Ax216LgZHCsVcAnoRnDsCFtS2yMOEVMK+ItlbemY3Ol0yrH9beYf2CCFdko39XYP73MQVAMSpYrv5F+phBd3cnVSjT3Xr6smxCbAQn8CAT5majf/egl48pAEycbw8ANdLY5FTYj4FnQPRlO1bs7cvSss0TNOuHwCyv+jJEwMtHnDjLSxtPBjDFUJ5BIeA1EO4nxufggY+ZTwXwsOlcLvc6MVXtiu89M5sn//LSxpMtnXpcTn57MPHuI64AkpYOkvOe/idBeBKMGGndOKrtD3+KIKKP+szlobLGCtK8CsBpJkK6VBcDtzIVfWtNPPP1+vpT5Wu8IEX6QYDGZvM4bsIau48426v9sYfgjHepO5iwmTRt1srbNPjFIJmqfU1XgvhmAGVZTehuCQbdB1aR2ta5O7J9sFAg9klirAdQlO1juYmGnn2oAERm1BW17xv9GoCRBrLsA/GjYNXIKR2r3VW5PZPOIoHm4R26+xMaWEaEk+0KKZAA8z2K6Fur48Gd2T5YBM2e9kDi22B208adOaOp6IRDBaDa31AO0KO5Ozw9B8JDrPXmZJH+/brtC7rsPkIEEbXXd/6livCfDJxvd/8usg+E24mSUbtH8fVlybT6cd6E9QvI0N6sYGBXbTw4+dAzAGaqoOze/v8LhEZmjlke2rz6xYp/Z/VoACKIaLTiIQAPLQtsukSzWg6gEvLWYFAY2KWY1nk89GM7p+sOJOxrupATug7Au3J1TLch5q3AYSukEtk+/DcJ4A9gfohAm2taK/4MkLEZxqtb5j8G4LFQ6SOTSCWuBdFiOPyNhyEpApqZaf3oVu+vIyhP5urAEURUh2/2Eib9PQAyGC2LiNSzwIEzftnU2HidxL+QeQX4BwiNYIqpTv7t6leCb2UaNFsiiKh23+xyEH8KwEcADDedySjC3wm4N8X8v2vilS/n+vBLpzT5rKS+CySrUOcCE3+qtqXyDg8AcBLzkN7J/yaAR8AcIyvVmKv7QzscuD14BMAjVYHm45VOXMbEV1DPLYKJB6Em/IOI6qCTv6iJL3jOVIiwf9NHOKV/ApLtunKF2XoKOHDSh/yNdxL4ukG0SwH4IwgxMBrb4nv/cD8WpbIZNNeWTKsf5k145jDxFcS4HIV1H9oN8O8BamDmTbWtlVtNhgmVNpwID32XGItN5nAffjUaD44HiAlgqvY37gZwUu+fRRuIY2DVWITuzTe1XvZGbsOaE0FE7S29YAZZfDGgLwDoYuTX5hJJMP4MYAuYmjs7vY/euqd8n+lQwMHtufkWyMIzJjwYjQc/DABUFWg8XTEfvv3S2wB+B+KYZitm175shWKZP1bGzBeC6DwGZhDwPgbGmM4FIAXwiwx6BsDfCPyE6qT/c9pzmHDZRj9rz4/Qc6slzFgejQdXA4DH0qjQhGcIPa/oRqthj0dayjtNJ3SqAwNgdgK46+DXlpZtnmCl9PsIfAoDM5iolMClACYc+M+u1ysMYDfAOxlqpyLs1OAdSNFW8Mittbtm77fpOLYLlW4pJtX+Zdb0NbjnGYsjseLfHfwzRQLNw+WEz57Fs572jnhl73h4E5MUWyew5hJWbCmNEk3wEPOowz/PhLcUU7cmpBThNZ3i1xTp18hrvRp/ce9r+fjMJeyLXclEqwH2m84i8EZJvGj8wde7jpv5IwpHlb/hTIKqIfAlprOIQ+6OxoOHHvjLVsnCdlX+pvcS+D8J/HGAZdSlo/CDh/9NCoCwTbhso1+z56vE+tMALNN5xDG6PMO7Gg//ghQAkbFQadNMWLycNV9NMoTXyR5Zte2KjsO/IAVApC0UqhBzAAAHTElEQVQUaHw/Ma8A9HzI86R88MDRX5ACIIYkVLqlGJ6ORaRxA5jPMZ1HDNo+z/DO+4/+ohQAMShLyzZNt9i6Htz+aTCNld/3eafu6Mt/QAqA6McXJ20eM8yrrwTra6Hpwp5xSHLm5yNidUevX891EOFsodItxVAdc0nhOjCugKzDVwD4hWg8+J7e1uOQKwCBFZPqS1OWtYAVXwrumAvgOBhbukXYjUE/7WsxHikALhQJNA/voO5zWKOCgEuTwOkAANkSqhC1F1lqfV/flALgAjeMax45bGRittJ8ERPe387d54AxDID8oi90xD/qbz1HKQAFpirQfLylk+8DeJYmzCJgFtA9HRoWA3LGu0uXJ6XW9vcBKQB5ZsX0DaO6uosmelKecVrpqcQ8FcA0ME0FYRq4+8SDV/JyQe96d69qq9jd3wekADhIONAU1EjNB6hYMUoY8BIwWgOjiDERhHHJTgy3ADDpA4915GwXvUrCslYN9CEpAA6SQnKbYrUBwLCDV+qH3rzLCS6GgnFbdMfcFwb6mEzVdJA1LfNbCPQD0zlE3ntLE39zMB+UAuAwXu7+DgGvmc4h8hhh9WD3dpAC4DA3tV72hgZ/13QOkbf2JDyp6GA/LAXAgZJe/QMAGe2QLFzrl+u2L2gf7IelADjQuu0LuhTpz0Le2oshoiHugi0FwKEObGba6wwuIfrCwGlV/oZB72YlBcDBvJaqBvCS6Rwir5DFmDvYD0sBcLCeMdy81HQOkV+YqGKwn5UC4HDReOUDBNxnOofIKxURRAZ1bksByAP73y76LAHbTOcQeWN8u/+C0wbzQSkAeeDWPeX7SOlFABy7959wFiIdHMznpADkidU75z9DjJWmc4j8oJkGVQBkikmeqfbHfgngo6ZzCMfr7ny7aMyte8r39fchuQLIM/sS3Z8A0R9N5xCOVzS8uPuSgT4kBSDPrN99+dueFD4ERpvpLMLhaODbACkAeWhVW8VuxVgAoM+13oRgZikAhWp1W/BZAq4BkDSdRTgTEU4O+TZP6e8zUgDyWE08uImJFwPQprMIh1LJfkcFSgHIc7UtlXcA+CykCIheEPc/LFgKQAGIxoO3E+hzkOnD4lhzFs962tvXN6UAFIiaeMVPwSxFQBytZNSeN87t65tSAApItLXyJ8T4PICU6SzCQfoZFiwFoMDUtAbXs6IFAI7ZC164EzP6fA4gQ4ELVHjyprNZqYcBjDedRRinE97USeu2L9hz9DfkCqBA1bTN/yMs6yIAO0xnEcYpT9Ka0+s3cp1E5E50x9wXOMVnM7DJdBZhlurjdaAUgAJXu6vy9dp4xaVg/grk4aBrMbgC4GNu+eUZgItU+xvKAboP8lzAlZTGzNVtwWeP+JqpMCL3ovHKZlLJcxj0mOksIvdS6tjJQVIAXKZm56Xx2vi8DxDjcwD6XSxCFJbehgXLLYCLLfPHyjRwG4By01lETnTuS3SPWb/78rcPfkGuAFxsdTy4syT+5FwwlgJ403QekXXDRxUNv+jwL0gBcLkIIjraGvx+wpt6Nxg/hrwpsMu/AfyQgL/CQfMzNB85LFhuAcQRqvxN71Wcqh3MclKiV2+DaJ1X0Xd7dnYClkyrH+ft9lzCiucS41IAkwzm2xqNB9938C9SAESvwoHYh8C4kYHTTWfJE0km3M7MkTXxypf7/hhTlT92hkVUoZmCBJ4NoChnKQF4kqnJq15asAuQAiD6xRTyNV5Gir4O5rNNp3GoLgB3w7JWRXfMfWGojW8Y1zxyWHF3OREHmamCCCdnIeMRGPhMbTx4GyAFQAxSKNBQSaCvgnHRwJ92hXYQ/8iTUmtXtVXstqvTkG/zFKhkxYFXdnMAlNjV90FEVFfTUnEVIAVADFF1WcNp0PQ5ANcCGGU6T64RsE0DtxVZav3Be/xsiaDZs3dy1/lKUQUTBcE8C/Y8uH+9Lb53/P1YlJICINKyYvqGUcmu4o+B9ecAOsN0nizbR6D7wXR7Teu8x02FCE9sHquLuucqpgoGBwFMTLcvRThvdUvwD1IARMbCvvpTNNSVpOhKMGaazmOTTgCPMvEvvcO6frlq2xWOW2AlVNo0E1aq53aBcDGA4YNty8w31rZWfksKgLDV0rJN0y2trgTjgyDMAmCZzjQEbwDYSIwN+/cXNQy0r56ThEq3FCvPWxdr1kECKgDMGKDJE9F48EIpACJrlkyrL/F2WxcT0SUMLgdwGhxVEPhVMD3BxL8nsp4oafE8HUF5QWy0smJSfWnCYwUVUQUzzwVw4lEfSWoqGicFQOTMyilNo1MpPUsTnwqmmegpCKcAKM76wRltAD9HpJ7VpLcqrf9Q0zr/eYAcM0ovWxaizvIHRp+lmSrQ8+zgXAAegv6oFABh1ELUWZOnnDiVk0kfFE0iRikBE0GYzBoToFAMxgj0FInhAEagZ+BMB3q2ResAkCSgnXsu4V8C8C8QvwTQy4CKexWez/YT+3xSFWg+3uLODzCszv8HMkRSRkTP6wsAAAAASUVORK5CYII=;" parent="1" vertex="1">
          <mxGeometry x="316" y="303" width="30" height="30" as="geometry" />
        </mxCell>
        <mxCell id="veElxyi0WQyssnxSMCz9-328" value="Related Text chunks" style="text;html=1;align=center;verticalAlign=middle;whiteSpace=wrap;rounded=0;fontStyle=1;fontColor=#7F00FF;" parent="1" vertex="1">
          <mxGeometry x="715.18" y="120" width="176" height="20" as="geometry" />
        </mxCell>
        <mxCell id="veElxyi0WQyssnxSMCz9-330" value="Related Text chunks" style="text;html=1;align=center;verticalAlign=middle;whiteSpace=wrap;rounded=0;fontStyle=1;fontColor=#7F00FF;" parent="1" vertex="1">
          <mxGeometry x="1275" y="496" width="176" height="20" as="geometry" />
        </mxCell>
        <mxCell id="veElxyi0WQyssnxSMCz9-331" value="Related Text chunks" style="text;html=1;align=center;verticalAlign=middle;whiteSpace=wrap;rounded=0;fontStyle=1;fontColor=#7F00FF;" parent="1" vertex="1">
          <mxGeometry x="509" y="880" width="176" height="20" as="geometry" />
        </mxCell>
        <mxCell id="veElxyi0WQyssnxSMCz9-332" value="Related Text chunks" style="text;html=1;align=center;verticalAlign=middle;whiteSpace=wrap;rounded=0;fontStyle=1;fontColor=#7F00FF;" parent="1" vertex="1">
          <mxGeometry x="-290" y="521" width="176" height="20" as="geometry" />
        </mxCell>
      </root>
    </mxGraphModel>
  </diagram>
</mxfile>
